<?xml version="1.0" encoding="UTF-8"?>
<svg xmlns="http://www.w3.org/2000/svg" xmlns:xlink="http://www.w3.org/1999/xlink" width="30pt" height="30pt" viewBox="0 0 30 30" version="1.1">
<g id="surface1">
<path style=" stroke:none;fill-rule:nonzero;fill:rgb(75.294118%,22.745098%,16.862745%);fill-opacity:1;" d="M 21 17.351562 C 21.042969 20.703125 18.355469 23.457031 15 23.5 C 11.644531 23.457031 8.957031 20.703125 9 17.351562 C 9 13.355469 13.664062 7.851562 14.765625 6.605469 C 14.824219 6.539062 14.910156 6.5 15 6.5 C 15.089844 6.5 15.175781 6.539062 15.234375 6.605469 C 16.335938 7.851562 21 13.355469 21 17.351562 Z M 21 17.351562 "/>
<path style=" stroke:none;fill-rule:nonzero;fill:rgb(90.196078%,29.803922%,23.529412%);fill-opacity:1;" d="M 20.292969 16.074219 C 20.339844 17.996094 19.339844 19.792969 17.683594 20.765625 C 16.027344 21.738281 13.972656 21.738281 12.316406 20.765625 C 10.660156 19.792969 9.660156 17.996094 9.707031 16.074219 C 9.707031 12.550781 13.820312 7.695312 14.796875 6.59375 C 14.847656 6.535156 14.921875 6.5 15 6.5 C 15.078125 6.5 15.152344 6.535156 15.203125 6.59375 C 16.179688 7.695312 20.292969 12.550781 20.292969 16.074219 Z M 20.292969 16.074219 "/>
<path style=" stroke:none;fill-rule:nonzero;fill:rgb(98.431373%,48.235294%,46.27451%);fill-opacity:1;" d="M 11 17.851562 C 10.722656 17.851562 10.5 17.625 10.5 17.351562 C 10.5 14.636719 13.371094 10.699219 14.609375 9.136719 C 14.777344 8.917969 15.09375 8.882812 15.308594 9.050781 C 15.527344 9.222656 15.5625 9.539062 15.390625 9.753906 C 12.992188 12.800781 11.5 15.710938 11.5 17.351562 C 11.5 17.625 11.277344 17.851562 11 17.851562 Z M 11 17.851562 "/>
<path style=" stroke:none;fill-rule:nonzero;fill:rgb(98.431373%,48.235294%,46.27451%);fill-opacity:1;" d="M 12 20.59375 C 11.851562 20.59375 11.714844 20.527344 11.621094 20.417969 C 11.441406 20.210938 11.285156 19.988281 11.148438 19.753906 C 11.050781 19.597656 11.046875 19.402344 11.132812 19.242188 C 11.222656 19.082031 11.390625 18.984375 11.574219 18.984375 C 11.757812 18.988281 11.921875 19.085938 12.011719 19.246094 C 12.117188 19.429688 12.242188 19.605469 12.378906 19.769531 C 12.507812 19.917969 12.535156 20.125 12.453125 20.300781 C 12.371094 20.480469 12.195312 20.59375 12 20.59375 Z M 12 20.59375 "/>
<path style=" stroke:none;fill-rule:nonzero;fill:rgb(14.901961%,72.54902%,60.392157%);fill-opacity:1;" d="M 27.847656 13.5 C 27.601562 13.5 27.390625 13.320312 27.351562 13.078125 C 26.375 7.003906 21.148438 2.53125 15 2.5 C 14.722656 2.5 14.5 2.277344 14.5 2 C 14.5 1.722656 14.722656 1.5 15 1.5 C 21.640625 1.535156 27.285156 6.367188 28.339844 12.921875 C 28.363281 13.066406 28.320312 13.214844 28.226562 13.324219 C 28.132812 13.4375 27.992188 13.5 27.847656 13.5 Z M 27.847656 13.5 "/>
<path style=" stroke:none;fill-rule:nonzero;fill:rgb(14.901961%,72.54902%,60.392157%);fill-opacity:1;" d="M 2 15.5 C 1.722656 15.5 1.5 15.277344 1.5 15 C 1.535156 8.359375 6.367188 2.714844 12.921875 1.660156 C 13.195312 1.617188 13.453125 1.804688 13.496094 2.078125 C 13.535156 2.347656 13.347656 2.605469 13.078125 2.648438 C 7.003906 3.625 2.53125 8.851562 2.5 15 C 2.5 15.277344 2.277344 15.5 2 15.5 Z M 2 15.5 "/>
<path style=" stroke:none;fill-rule:nonzero;fill:rgb(14.901961%,72.54902%,60.392157%);fill-opacity:1;" d="M 15 28.5 C 8.359375 28.464844 2.714844 23.632812 1.660156 17.078125 C 1.617188 16.804688 1.804688 16.546875 2.078125 16.503906 C 2.347656 16.464844 2.605469 16.652344 2.648438 16.921875 C 3.625 22.996094 8.851562 27.46875 15 27.5 C 15.277344 27.5 15.5 27.722656 15.5 28 C 15.5 28.277344 15.277344 28.5 15 28.5 Z M 15 28.5 "/>
<path style=" stroke:none;fill-rule:nonzero;fill:rgb(14.901961%,72.54902%,60.392157%);fill-opacity:1;" d="M 16.507812 27.921875 C 16.464844 27.652344 16.652344 27.394531 16.921875 27.351562 C 22.996094 26.375 27.46875 21.148438 27.5 15 C 27.5 14.722656 27.722656 14.5 28 14.5 C 28.277344 14.5 28.5 14.722656 28.5 15 C 28.464844 21.640625 23.632812 27.285156 17.078125 28.339844 C 16.945312 28.363281 16.8125 28.328125 16.703125 28.25 C 16.597656 28.171875 16.527344 28.054688 16.507812 27.921875 Z M 16.507812 27.921875 "/>
<path style=" stroke:none;fill-rule:nonzero;fill:rgb(14.901961%,72.54902%,60.392157%);fill-opacity:1;" d="M 17 4 C 16.773438 4 16.898438 4.050781 14.699219 2.398438 C 14.574219 2.304688 14.5 2.15625 14.5 2 C 14.5 1.84375 14.574219 1.695312 14.699219 1.601562 L 16.699219 0.101562 C 16.921875 -0.0664062 17.234375 -0.0195312 17.398438 0.199219 C 17.566406 0.421875 17.519531 0.734375 17.300781 0.898438 L 15.832031 2 L 17.300781 3.101562 C 17.472656 3.230469 17.542969 3.453125 17.472656 3.65625 C 17.40625 3.863281 17.214844 4 17 4 Z M 17 4 "/>
<path style=" stroke:none;fill-rule:nonzero;fill:rgb(14.901961%,72.54902%,60.392157%);fill-opacity:1;" d="M 13 30 C 12.785156 30 12.59375 29.863281 12.527344 29.65625 C 12.457031 29.453125 12.527344 29.230469 12.699219 29.101562 L 14.167969 28 L 12.699219 26.898438 C 12.480469 26.734375 12.433594 26.421875 12.601562 26.199219 C 12.765625 25.980469 13.078125 25.933594 13.300781 26.101562 L 15.300781 27.601562 C 15.425781 27.695312 15.5 27.84375 15.5 28 C 15.5 28.15625 15.425781 28.304688 15.300781 28.398438 C 13.167969 30 13.230469 30 13 30 Z M 13 30 "/>
<path style=" stroke:none;fill-rule:nonzero;fill:rgb(14.901961%,72.54902%,60.392157%);fill-opacity:1;" d="M 29.5 17.5 C 29.34375 17.5 29.195312 17.425781 29.101562 17.300781 L 28 15.832031 L 26.898438 17.300781 C 26.734375 17.519531 26.421875 17.566406 26.199219 17.398438 C 25.980469 17.234375 25.933594 16.921875 26.101562 16.699219 L 27.601562 14.699219 C 27.699219 14.582031 27.84375 14.511719 28 14.511719 C 28.15625 14.511719 28.300781 14.582031 28.398438 14.699219 L 29.898438 16.699219 C 30.011719 16.851562 30.03125 17.054688 29.945312 17.222656 C 29.863281 17.394531 29.6875 17.5 29.5 17.5 Z M 29.5 17.5 "/>
<path style=" stroke:none;fill-rule:nonzero;fill:rgb(14.901961%,72.54902%,60.392157%);fill-opacity:1;" d="M 1.601562 15.300781 L 0.101562 13.300781 C -0.0078125 13.15625 -0.03125 12.96875 0.0390625 12.804688 C 0.109375 12.640625 0.261719 12.523438 0.441406 12.503906 C 0.617188 12.480469 0.792969 12.558594 0.898438 12.699219 L 2 14.167969 L 3.101562 12.699219 C 3.265625 12.480469 3.578125 12.433594 3.800781 12.601562 C 4.019531 12.765625 4.066406 13.078125 3.898438 13.300781 L 2.398438 15.300781 C 2.304688 15.425781 2.15625 15.5 2 15.5 C 1.84375 15.5 1.695312 15.425781 1.601562 15.300781 Z M 1.601562 15.300781 "/>
</g>
</svg>
