<?xml version="1.0" encoding="UTF-8"?>
<svg xmlns="http://www.w3.org/2000/svg" xmlns:xlink="http://www.w3.org/1999/xlink" width="30pt" height="30pt" viewBox="0 0 30 30" version="1.1">
<g id="surface1">
<path style=" stroke:none;fill-rule:nonzero;fill:rgb(21.960784%,30.588235%,60%);fill-opacity:1;" d="M 30 15 C 30 17.71875 29.277344 20.265625 28.011719 22.464844 C 27.90625 22.648438 27.796875 22.832031 27.683594 23.011719 C 25.023438 27.210938 20.335938 30 15 30 C 9.664062 30 4.976562 27.210938 2.316406 23.011719 C 2.042969 22.582031 1.792969 22.136719 1.566406 21.679688 C 0.5625 19.667969 0 17.398438 0 15 C 0 12.601562 0.5625 10.332031 1.566406 8.320312 C 2.113281 7.21875 2.796875 6.191406 3.585938 5.265625 C 4.242188 4.5 4.972656 3.796875 5.769531 3.175781 C 8.316406 1.1875 11.519531 0 15 0 C 18.480469 0 21.6875 1.1875 24.230469 3.175781 C 25.757812 4.367188 27.042969 5.847656 28.011719 7.535156 C 29.277344 9.734375 30 12.28125 30 15 Z M 30 15 "/>
<path style=" stroke:none;fill-rule:nonzero;fill:rgb(90.588235%,96.078431%,98.823529%);fill-opacity:1;" d="M 28.011719 5.335938 L 28.011719 22.464844 C 27.90625 22.648438 27.796875 22.832031 27.683594 23.011719 L 26.453125 23.011719 C 26.453125 20.679688 24.5625 18.789062 22.226562 18.789062 C 19.894531 18.789062 18.003906 20.679688 18.003906 23.011719 L 10.933594 23.011719 C 10.933594 20.679688 9.042969 18.789062 6.707031 18.789062 C 4.375 18.789062 2.484375 20.679688 2.484375 23.011719 L 2.316406 23.011719 C 2.042969 22.582031 1.792969 22.136719 1.566406 21.679688 L 1.566406 5.335938 C 1.566406 4.144531 2.535156 3.175781 3.726562 3.175781 L 25.851562 3.175781 C 27.046875 3.175781 28.011719 4.144531 28.011719 5.335938 Z M 28.011719 5.335938 "/>
<path style=" stroke:none;fill-rule:nonzero;fill:rgb(77.254902%,87.058824%,91.764706%);fill-opacity:1;" d="M 5.746094 3.175781 C 4.578125 3.175781 3.625 4.105469 3.585938 5.265625 C 3.585938 5.289062 3.585938 5.3125 3.585938 5.335938 L 3.585938 20.167969 C 2.902344 20.917969 2.484375 21.917969 2.484375 23.011719 L 2.316406 23.011719 C 2.046875 22.582031 1.792969 22.136719 1.566406 21.679688 L 1.566406 5.335938 C 1.566406 4.144531 2.535156 3.175781 3.726562 3.175781 Z M 5.746094 3.175781 "/>
<path style=" stroke:none;fill-rule:nonzero;fill:rgb(0%,65.098039%,97.647059%);fill-opacity:1;" d="M 22.320312 15.941406 L 28.011719 15.941406 L 28.011719 6.390625 L 25.03125 6.390625 C 23.535156 6.390625 22.320312 7.605469 22.320312 9.101562 Z M 22.320312 15.941406 "/>
<path style=" stroke:none;fill-rule:nonzero;fill:rgb(89.803922%,24.313725%,17.647059%);fill-opacity:1;" d="M 24.433594 1.3125 L 24.433594 3.175781 L 20.207031 3.175781 L 20.207031 1.3125 C 20.207031 0.585938 20.796875 0 21.519531 0 L 23.121094 0 C 23.84375 0 24.433594 0.585938 24.433594 1.3125 Z M 24.433594 1.3125 "/>
<path style=" stroke:none;fill-rule:nonzero;fill:rgb(100%,35.686275%,27.843137%);fill-opacity:1;" d="M 24.433594 1.3125 L 24.433594 3.175781 L 21.585938 3.175781 L 21.585938 1.3125 C 21.585938 0.585938 22.171875 0 22.898438 0 L 23.121094 0 C 23.84375 0 24.433594 0.585938 24.433594 1.3125 Z M 24.433594 1.3125 "/>
<path style=" stroke:none;fill-rule:nonzero;fill:rgb(25.490196%,25.490196%,25.882353%);fill-opacity:1;" d="M 10.089844 23.011719 C 10.089844 24.882812 8.578125 26.394531 6.707031 26.394531 C 4.839844 26.394531 3.324219 24.882812 3.324219 23.011719 C 3.324219 21.144531 4.839844 19.628906 6.707031 19.628906 C 8.578125 19.628906 10.089844 21.144531 10.089844 23.011719 Z M 10.089844 23.011719 "/>
<path style=" stroke:none;fill-rule:nonzero;fill:rgb(25.490196%,25.490196%,25.882353%);fill-opacity:1;" d="M 25.695312 23.011719 C 25.695312 24.925781 24.140625 26.476562 22.226562 26.476562 C 20.3125 26.476562 18.761719 24.925781 18.761719 23.011719 C 18.761719 21.097656 20.3125 19.546875 22.226562 19.546875 C 24.140625 19.546875 25.695312 21.097656 25.695312 23.011719 Z M 25.695312 23.011719 "/>
<path style=" stroke:none;fill-rule:nonzero;fill:rgb(90.588235%,96.078431%,98.823529%);fill-opacity:1;" d="M 24 23.011719 C 24 23.992188 23.207031 24.785156 22.226562 24.785156 C 21.25 24.785156 20.457031 23.992188 20.457031 23.011719 C 20.457031 22.035156 21.25 21.242188 22.226562 21.242188 C 23.207031 21.242188 24 22.035156 24 23.011719 Z M 24 23.011719 "/>
<path style=" stroke:none;fill-rule:nonzero;fill:rgb(90.588235%,96.078431%,98.823529%);fill-opacity:1;" d="M 8.4375 23.011719 C 8.4375 23.96875 7.664062 24.742188 6.707031 24.742188 C 5.753906 24.742188 4.980469 23.96875 4.980469 23.011719 C 4.980469 22.058594 5.753906 21.285156 6.707031 21.285156 C 7.664062 21.285156 8.4375 22.058594 8.4375 23.011719 Z M 8.4375 23.011719 "/>
<path style=" stroke:none;fill-rule:nonzero;fill:rgb(100%,35.686275%,27.843137%);fill-opacity:1;" d="M 26.867188 20.714844 L 28.011719 20.714844 L 28.011719 17.871094 L 26.867188 17.871094 C 26.535156 17.871094 26.269531 18.136719 26.269531 18.46875 L 26.269531 20.117188 C 26.269531 20.449219 26.535156 20.714844 26.867188 20.714844 Z M 26.867188 20.714844 "/>
<path style=" stroke:none;fill-rule:nonzero;fill:rgb(100%,35.686275%,27.843137%);fill-opacity:1;" d="M 7.195312 13.648438 C 7.195312 13.707031 7.195312 13.761719 7.199219 13.820312 C 7.296875 19.253906 15.472656 19.253906 15.574219 13.820312 C 15.574219 13.765625 15.574219 13.707031 15.574219 13.648438 C 15.574219 10.421875 13.90625 7.582031 11.386719 5.949219 C 8.863281 7.582031 7.195312 10.421875 7.195312 13.648438 Z M 7.195312 13.648438 "/>
<path style=" stroke:none;fill-rule:nonzero;fill:rgb(100%,100%,100%);fill-opacity:1;" d="M 14.335938 11.871094 L 12.941406 11.871094 C 12.703125 11.871094 12.511719 11.679688 12.511719 11.441406 L 12.511719 10.046875 C 12.511719 9.808594 12.320312 9.617188 12.082031 9.617188 L 10.6875 9.617188 C 10.449219 9.617188 10.257812 9.808594 10.257812 10.046875 L 10.257812 11.441406 C 10.257812 11.679688 10.066406 11.871094 9.832031 11.871094 L 8.433594 11.871094 C 8.199219 11.871094 8.003906 12.0625 8.003906 12.296875 L 8.003906 13.695312 C 8.003906 13.929688 8.199219 14.125 8.433594 14.125 L 9.832031 14.125 C 10.066406 14.125 10.257812 14.316406 10.257812 14.550781 L 10.257812 15.949219 C 10.257812 16.183594 10.449219 16.375 10.6875 16.375 L 12.082031 16.375 C 12.320312 16.375 12.511719 16.183594 12.511719 15.949219 L 12.511719 14.550781 C 12.511719 14.316406 12.703125 14.125 12.941406 14.125 L 14.335938 14.125 C 14.574219 14.125 14.765625 13.929688 14.765625 13.695312 L 14.765625 12.296875 C 14.765625 12.0625 14.574219 11.871094 14.335938 11.871094 Z M 14.335938 11.871094 "/>
<path style=" stroke:none;fill-rule:nonzero;fill:rgb(90.588235%,96.078431%,98.823529%);fill-opacity:1;" d="M 26.964844 14.65625 L 26.246094 14.65625 C 25.988281 14.65625 25.777344 14.445312 25.777344 14.191406 L 25.777344 8.417969 C 25.777344 8.160156 25.988281 7.953125 26.246094 7.953125 L 26.964844 7.953125 C 27.222656 7.953125 27.433594 8.160156 27.433594 8.417969 L 27.433594 14.191406 C 27.433594 14.445312 27.222656 14.65625 26.964844 14.65625 Z M 26.964844 14.65625 "/>
</g>
</svg>
