<svg width="708" height="498" viewBox="0 0 708 498" fill="none" xmlns="http://www.w3.org/2000/svg">
<path d="M649.639 381.85C715.099 310.439 738.903 166.131 649.639 146.294C517.275 116.879 582.691 220.68 257.872 166.13C56.6284 132.334 71.9071 332.258 183.486 443.838C295.066 555.417 567.814 471.113 649.639 381.85Z" fill="#FCDDD4"/>
<mask id="mask0" mask-type="alpha" maskUnits="userSpaceOnUse" x="102" y="140" width="606" height="358">
<path d="M649.639 381.849C715.099 310.438 738.903 166.131 649.639 146.294C517.275 116.879 582.691 220.679 257.872 166.13C56.6284 132.334 71.9071 332.258 183.486 443.837C295.066 555.417 567.814 471.112 649.639 381.849Z" fill="#FCDDD4"/>
</mask>
<g mask="url(#mask0)">
<path opacity="0.7" d="M59.5098 349.019C91.9727 306.807 177.955 224.492 262.184 232.935C367.469 243.488 167.427 441.359 262.184 441.359C356.94 441.359 401.686 198.637 470.122 198.637C538.557 198.637 393.79 378.04 470.122 388.593C546.453 399.146 609.624 135.318 693.852 132.68C778.08 130.042 606.992 349.019 743.863 349.019" stroke="url(#paint0_linear)" stroke-width="2"/>
<path d="M296.305 253.535C296.305 253.535 292.099 384.393 296.19 531.503C296.19 531.503 308.462 543.134 331.714 535.38C331.714 535.38 331.498 371.685 337.742 306.638C337.742 306.638 367.022 430.271 404.053 537.319C404.053 537.319 428.812 542.057 437.639 528.057C437.639 528.057 387.69 354.669 380.37 254.944L296.305 253.535Z" fill="url(#paint1_linear)"/>
<path d="M296.619 254.944H380.369C381.015 262.482 381.661 270.452 382.737 278.637C332.789 278.852 306.308 266.144 296.404 260.329C296.404 256.667 296.619 254.944 296.619 254.944Z" fill="#402B2B" fill-opacity="0.45" style="mix-blend-mode:multiply"/>
</g>
<path d="M305.021 38.045H325.689L328.488 25.5524C328.488 25.5524 320.307 30.291 318.369 27.0602C316.432 23.8294 316.862 25.1217 314.925 25.5524C312.987 25.9832 312.987 23.3986 310.619 24.9063C308.035 26.6294 304.16 34.8141 305.021 38.045Z" fill="#6B1912"/>
<path d="M264.632 194.023L276.41 165.508L309.528 177.922C308.386 187.056 288.187 204.561 276.41 216.959L264.632 194.023Z" fill="url(#paint2_linear)"/>
<path d="M292.216 110.923C292.216 110.923 274.081 143.814 263.452 192.165C260.182 207.043 260.973 214.729 265.932 218.201C272.131 222.54 283.287 218.82 288.866 207.043C294.547 194.026 305.048 165.792 307.404 152.222C307.404 152.222 303.328 113.362 292.216 110.923Z" fill="url(#paint3_linear)"/>
<path d="M292.104 110.415C292.104 110.415 293.181 135.184 296.41 254.295C296.41 254.295 325.69 269.156 384.035 258.818C384.035 258.818 384.251 223.063 392.216 191.401C392.216 191.401 407.072 131.738 399.536 114.292C399.536 114.292 351.956 84.7834 292.104 110.415Z" fill="url(#paint4_linear)"/>
<path d="M337.315 86.8077L336.884 102.23C336.884 102.23 340.544 107.615 349.371 108.261C358.198 108.692 362.504 103.738 362.504 103.738L363.365 80.7769C352.385 85.5154 341.621 87.4539 337.315 86.8077Z" fill="url(#paint5_linear)"/>
<path d="M338.177 80.4761L337.316 97.4918C341.622 98.138 352.386 96.1995 363.151 91.4609L363.797 80.4761H338.177Z" fill="url(#paint6_linear)" style="mix-blend-mode:multiply"/>
<path d="M396.522 147.892C396.522 147.892 383.82 176.539 379.298 189.462C374.777 202.17 374.777 252.786 351.095 262.479C351.095 262.479 376.284 260.971 384.25 258.817C384.25 258.817 384.681 220.693 392.431 191.4C392.431 191.4 397.814 160.6 399.967 146.6L396.522 147.892Z" fill="#EE4D47" fill-opacity="0.29" style="mix-blend-mode:multiply"/>
<path d="M379.729 42.9995C379.299 43.2149 378.868 50.1073 378.868 50.1073L377.146 64.5383L369.18 70.7846L364.659 72.7231C364.659 72.7231 357.985 69.923 358.846 67.3384C359.707 64.9691 364.013 30.9377 364.874 30.9377C365.735 30.9377 372.625 35.8916 372.625 35.8916L379.729 42.9995Z" fill="#402B2B"/>
<path d="M316.649 30.0754C314.711 30.0754 317.725 53.7682 317.725 53.7682L321.17 44.2911L323.538 32.8755L316.649 30.0754Z" fill="#402B2B"/>
<path d="M319.878 34.8125L316.218 65.1823C316.218 65.1823 314.926 90.8136 336.025 92.3213C357.124 93.6136 371.549 72.7209 371.549 72.7209C371.549 72.7209 374.132 75.7363 376.931 70.567C379.514 65.3977 377.792 58.5053 374.132 57.8591C370.257 57.4283 368.534 59.5822 368.104 62.813C367.673 66.0438 367.243 68.4131 367.243 68.4131L364.013 67.9824L366.381 42.9973C366.381 42.9973 361.43 33.3048 355.832 31.3663C350.234 29.4278 345.283 37.1818 345.283 37.1818C345.283 37.1818 340.116 38.2587 335.164 37.1818C330.212 36.1048 326.983 34.8125 326.983 34.8125C326.983 34.8125 323.968 35.674 319.878 34.8125Z" fill="url(#paint7_linear)"/>
<path d="M335.977 210.76C335.977 210.76 303.124 205.801 303.124 200.842C303.124 195.883 309.942 184.105 314.901 170.468C319.86 156.831 324.2 135.135 326.059 130.795C327.919 126.456 320.48 138.854 320.48 138.854C308.289 154.764 283.411 187.701 281.428 192.164C279.444 196.627 278.535 207.248 278.328 212L287.007 216.959L312.422 213.86L335.977 210.76Z" fill="#EE4D47" fill-opacity="0.29" style="mix-blend-mode:multiply"/>
<path d="M325.38 79.3455C325.38 76.8657 327.907 73.1598 332.199 74.3862C336.538 75.6264 337.571 79.3453 337.778 81.8248" stroke="#893D43"/>
<path d="M319.182 115.299C319.182 115.299 265.253 184.745 264.013 195.884C262.773 207.023 261.871 218.009 273.142 219.365C284.412 220.722 295.119 202.975 299.064 193.932L308.024 171.088L326.62 125.837L319.182 115.299Z" fill="url(#paint8_linear)"/>
<path d="M326.679 130.175C326.679 123.976 319.24 121.497 313.041 121.497L274.609 174.807C266.757 185.758 253.285 211.008 267.17 219.439C281.056 227.869 296.511 206.421 301.884 195.263C304.859 188.32 319.654 148.978 326.679 130.175Z" fill="url(#paint9_linear)"/>
<path d="M319.241 116.538C319.241 116.538 315.453 101.816 319.477 92.2366C319.477 92.2366 321.673 87.9526 324.041 89.7939C326.678 91.4915 328.75 87.6197 331.387 89.3173C334.023 91.0149 336.133 88.5043 338.746 91.7691C338.746 91.7691 341.719 90.8692 343.425 93.41C345.132 95.9508 349.039 101.632 348.19 102.949C347.341 104.267 344.459 110.818 343.715 111.043C342.972 111.268 341.611 111.306 340.997 108.871C340.997 108.871 340.93 111.325 339.645 114.085C338.565 116.907 335.051 120.342 335.051 120.342L326.059 126.455L319.241 116.538Z" fill="url(#paint10_linear)"/>
<path d="M342.051 27.0598V5.09009C355.184 5.73625 368.748 8.32089 375.422 16.5057C383.388 26.1982 378.867 48.5987 378.867 48.5987C378.867 48.5987 369.178 47.5217 367.456 44.2909C365.734 41.0601 349.371 36.5368 336.884 37.183C324.397 37.8292 318.369 36.5369 312.125 31.1522C310.833 30.0752 309.757 28.5675 308.896 26.8444H342.051V27.0598Z" fill="#402B2B"/>
<path d="M380.374 40.4139C380.374 40.4139 371.116 37.3984 355.615 36.1061C329.564 25.1213 318.369 27.0598 318.369 27.0598C318.369 27.0598 318.584 18.6596 320.952 12.8441C323.321 7.02862 339.253 -1.15615 352.601 0.136188C365.949 1.42852 379.728 11.3364 381.881 20.8135C383.603 28.1367 380.374 40.4139 380.374 40.4139Z" fill="url(#paint11_linear)"/>
<path d="M364.658 37.1858C361.859 23.8317 341.837 17.1547 327.627 17.37C313.633 17.5854 303.73 29.2164 302.223 37.1858C301.577 40.4166 304.16 40.8474 305.022 38.0473C305.667 36.1088 306.959 26.8471 319.877 27.9241C332.795 29.001 332.149 40.632 338.608 41.709C344.636 42.7859 351.525 38.4781 364.658 37.1858Z" fill="url(#paint12_linear)"/>
<path d="M320.543 45.1001L319.872 43.7499C320.451 43.4625 324.598 40.6804 330.571 39.1555L331.433 41.3731C326.327 42.2262 320.543 45.1001 320.543 45.1001Z" fill="#402B2B"/>
<path d="M357.193 50.7672C354.613 47.1616 348.459 43.0547 348.551 42.8601L350.252 41.2821C350.446 41.3743 355.925 45.3994 358.617 49.7733L357.193 50.7672Z" fill="#402B2B"/>
<path d="M336.241 52.907C336.241 52.907 335.595 57.4301 333.873 58.7225C332.151 60.0148 329.136 61.0917 328.706 62.1687C328.275 63.0303 329.136 64.7534 331.074 65.3995C333.012 66.0457 333.227 66.6919 333.227 66.6919C333.227 66.6919 329.352 67.1227 327.414 64.7534C325.476 62.3841 327.629 60.4456 329.567 59.3687C331.505 58.2917 332.366 57.8609 333.227 57.2148C334.304 56.5686 336.241 52.907 336.241 52.907Z" fill="#D87C60"/>
<path d="M345.496 55.2738C345.496 57.4277 347.003 59.3662 348.941 59.3662C350.879 59.3662 352.386 57.6431 352.386 55.2738C352.386 53.1199 350.879 51.1814 348.941 51.1814C347.003 51.1814 345.496 52.9045 345.496 55.2738Z" fill="#402B2B"/>
<path d="M321.815 52.4745C321.815 54.6283 323.322 56.5668 325.259 56.5668C327.197 56.5668 328.704 54.8437 328.704 52.4745C328.704 50.3206 327.197 48.3821 325.259 48.3821C323.322 48.5975 321.815 50.3206 321.815 52.4745Z" fill="#402B2B"/>
<path d="M310.136 220.68C308.483 217.993 305.425 210.513 306.416 202.083C308.483 204.976 312.119 212.745 310.136 220.68Z" fill="#644545"/>
<path fill-rule="evenodd" clip-rule="evenodd" d="M385.111 210.571C400.828 187.739 402.98 118.6 402.98 118.6C388.519 120.48 381.612 134.795 377.175 143.992C375.007 148.486 373.428 151.758 371.846 151.758L365.186 194.098L298.583 205.991C298.528 206.068 298.473 206.145 298.418 206.221C295.138 206.307 283.753 206.949 276.317 211.684C276.317 211.684 272.465 214.571 274.679 216.595C275.738 217.752 275.401 219.004 275.063 220.256C274.726 221.508 274.389 222.759 275.448 223.916C276.341 224.891 276.481 225.901 276.618 226.894C276.806 228.255 276.99 229.586 279.105 230.756C279.105 230.756 278.719 233.838 281.511 235.092C281.638 235.149 281.772 235.209 281.912 235.272C284.861 236.6 290.614 239.191 291.717 238.18C292.132 237.8 293.167 237.049 294.327 236.206C296.401 234.699 298.879 232.9 298.941 232.406C299.037 231.635 298.845 230.287 296.341 230.092C296.341 230.092 298.749 229.612 301.253 227.88C303.853 226.341 306.646 222.297 306.646 222.297L309.18 216.509C370.887 221.769 385.111 210.571 385.111 210.571Z" fill="url(#paint13_linear)"/>
<path d="M367.027 150.263L360.998 181.925L358.294 189.894L306.223 202.083C307.67 204.769 310.439 212.249 309.943 220.68C321.514 221.919 353.707 222.043 375.031 217.58C380.759 216.48 387.428 210.761 395.876 189.894C415.037 123.985 399.536 114.293 399.536 114.293C378.007 117.093 367.027 150.263 367.027 150.263Z" fill="url(#paint14_linear)"/>
<path d="M229.977 178.527C229.977 178.527 254.678 203.943 234.317 209.522C213.955 215.101 194.69 198.686 168.655 203.135C124.023 210.761 50.736 220.679 11.0634 146.293C-38.5274 53.3101 90.8899 16.1171 156.116 16.1174C234.363 16.1178 265.216 49.5912 272.655 95.4627C278.606 132.16 246.094 167.369 229.977 178.527Z" fill="url(#paint15_linear)"/>
<path d="M135.914 127.236L137.108 101.658C141.888 100.418 145.879 98.1422 149.081 94.8313C152.282 91.5203 154.135 87.3201 154.638 82.2307C155.231 76.243 154.616 71.4459 152.792 67.8392C150.979 64.1328 148.453 62.1193 145.214 61.7988C142.369 61.5171 140.062 62.2966 138.294 64.137C136.624 65.9872 135.18 68.5651 133.961 71.8707L131.336 78.8665C130.117 82.1721 128.354 84.4665 126.047 85.7497C123.848 86.9429 121.585 87.2732 119.26 86.7408C117.032 86.218 115.173 84.9759 113.683 83.0145C112.202 80.9534 111.619 78.3261 111.936 75.1327C112.331 71.1409 114.094 67.8388 117.227 65.2265C120.457 62.6238 124.409 60.7475 129.081 59.5975C133.753 58.4476 138.543 58.1154 143.45 58.601C153.362 59.5819 160.902 62.4948 166.072 67.3395C171.339 72.1939 173.548 78.9123 172.699 87.4946C172.116 93.3824 170.199 98.2313 166.948 102.041C163.697 105.851 159.686 108.83 154.915 110.978C150.252 113.036 145.447 114.525 140.5 115.446L138.564 127.499L135.914 127.236ZM132.506 163.177C128.973 162.827 126.054 161.279 123.75 158.531C121.543 155.794 120.618 152.628 120.973 149.036C121.319 145.543 122.842 142.671 125.542 140.419C128.351 138.076 131.521 137.08 135.054 137.43C138.685 137.789 141.55 139.383 143.649 142.21C145.855 144.948 146.786 148.063 146.44 151.556C146.084 155.149 144.556 158.071 141.856 160.323C139.254 162.585 136.137 163.536 132.506 163.177Z" fill="white"/>
<defs>
<linearGradient id="paint0_linear" x1="401.686" y1="205.737" x2="401.686" y2="509.4" gradientUnits="userSpaceOnUse">
<stop stop-color="#F37753"/>
<stop offset="1" stop-color="white" stop-opacity="0"/>
</linearGradient>
<linearGradient id="paint1_linear" x1="366.058" y1="174.86" x2="366.058" y2="538.091" gradientUnits="userSpaceOnUse">
<stop stop-color="#822626"/>
<stop offset="0.943497" stop-color="#402B2B"/>
</linearGradient>
<linearGradient id="paint2_linear" x1="283.001" y1="169.358" x2="283.001" y2="225.997" gradientUnits="userSpaceOnUse">
<stop stop-color="#FFB3B6"/>
<stop offset="1" stop-color="#FFC8C1"/>
</linearGradient>
<linearGradient id="paint3_linear" x1="307.463" y1="115.92" x2="307.463" y2="227.499" gradientUnits="userSpaceOnUse">
<stop stop-color="#F4A984"/>
<stop offset="1" stop-color="#EE4D47"/>
</linearGradient>
<linearGradient id="paint4_linear" x1="346.887" y1="38.0578" x2="346.887" y2="256.894" gradientUnits="userSpaceOnUse">
<stop stop-color="#F4A984"/>
<stop offset="1" stop-color="#EE4D47"/>
</linearGradient>
<linearGradient id="paint5_linear" x1="358.947" y1="101.119" x2="337.16" y2="110.516" gradientUnits="userSpaceOnUse">
<stop stop-color="#FFB3B6"/>
<stop offset="1" stop-color="#FFC8C1"/>
</linearGradient>
<linearGradient id="paint6_linear" x1="359.379" y1="90.3125" x2="337.469" y2="99.5913" gradientUnits="userSpaceOnUse">
<stop stop-color="#FFB3B6" stop-opacity="0.31"/>
<stop offset="1" stop-color="#FFC8C1"/>
</linearGradient>
<linearGradient id="paint7_linear" x1="313.412" y1="84.9467" x2="318.072" y2="43.3041" gradientUnits="userSpaceOnUse">
<stop stop-color="#FFB3B6"/>
<stop offset="1" stop-color="#FFC8C1"/>
</linearGradient>
<linearGradient id="paint8_linear" x1="302.657" y1="90.5034" x2="302.657" y2="217.367" gradientUnits="userSpaceOnUse">
<stop stop-color="#FFB3B6"/>
<stop offset="1" stop-color="#FFC8C1"/>
</linearGradient>
<linearGradient id="paint9_linear" x1="275.848" y1="147.532" x2="322.29" y2="215.753" gradientUnits="userSpaceOnUse">
<stop stop-color="#F4A984"/>
<stop offset="0.91698" stop-color="#EE4D47"/>
</linearGradient>
<linearGradient id="paint10_linear" x1="329.5" y1="114" x2="347" y2="84" gradientUnits="userSpaceOnUse">
<stop stop-color="#FFB3B6"/>
<stop offset="1" stop-color="#FFC8C1"/>
</linearGradient>
<linearGradient id="paint11_linear" x1="350.378" y1="-21.7021" x2="350.378" y2="40.9239" gradientUnits="userSpaceOnUse">
<stop stop-color="#F4A984"/>
<stop offset="1" stop-color="#EE4D47"/>
</linearGradient>
<linearGradient id="paint12_linear" x1="352.015" y1="11.1638" x2="352.015" y2="76.27" gradientUnits="userSpaceOnUse">
<stop stop-color="#F4A984"/>
<stop offset="1" stop-color="#EE4D47"/>
</linearGradient>
<linearGradient id="paint13_linear" x1="381.777" y1="178.577" x2="270.166" y2="215.78" gradientUnits="userSpaceOnUse">
<stop stop-color="#FFB3B6"/>
<stop offset="1" stop-color="#FFC8C1"/>
</linearGradient>
<linearGradient id="paint14_linear" x1="348.995" y1="153.112" x2="396.107" y2="224.399" gradientUnits="userSpaceOnUse">
<stop stop-color="#F4A984"/>
<stop offset="1" stop-color="#EE4D47"/>
</linearGradient>
<linearGradient id="paint15_linear" x1="39.6726" y1="-106.62" x2="268.334" y2="226.785" gradientUnits="userSpaceOnUse">
<stop stop-color="#F4A984"/>
<stop offset="1" stop-color="#EE4D47"/>
</linearGradient>
</defs>
</svg>
