<?xml version="1.0" encoding="UTF-8"?>
<svg xmlns="http://www.w3.org/2000/svg" xmlns:xlink="http://www.w3.org/1999/xlink" width="40pt" height="40pt" viewBox="0 0 40 40" version="1.1">
<g id="surface1">
<path style=" stroke:none;fill-rule:nonzero;fill:rgb(40%,80.784314%,85.882353%);fill-opacity:1;" d="M 3.605469 29.507812 L 10.820312 29.507812 L 10.820312 39.34375 L 14.753906 39.34375 L 14.753906 28.195312 L 25.246094 28.195312 L 25.246094 39.34375 L 29.179688 39.34375 L 29.179688 29.507812 L 36.394531 29.507812 C 37.84375 29.507812 39.015625 28.332031 39.015625 26.886719 L 39.015625 17.050781 C 39.015625 15.601562 37.84375 14.425781 36.394531 14.425781 L 33.113281 14.425781 C 31.667969 14.425781 30.492188 15.601562 30.492188 17.050781 L 30.492188 22.296875 L 23.277344 22.296875 L 23.277344 25.574219 L 16.722656 25.574219 L 16.722656 22.296875 L 9.507812 22.296875 L 9.507812 17.050781 C 9.507812 15.601562 8.332031 14.425781 6.886719 14.425781 L 3.605469 14.425781 C 2.15625 14.425781 0.984375 15.601562 0.984375 17.050781 L 0.984375 26.886719 C 0.984375 28.332031 2.15625 29.507812 3.605469 29.507812 Z M 3.605469 29.507812 "/>
<path style=" stroke:none;fill-rule:nonzero;fill:rgb(40%,80.784314%,85.882353%);fill-opacity:1;" d="M 21.96875 14.425781 L 18.03125 14.425781 L 20 19.671875 Z M 21.96875 14.425781 "/>
<path style=" stroke:none;fill-rule:nonzero;fill:rgb(96.470588%,74.901961%,34.509804%);fill-opacity:1;" d="M 16.722656 25.574219 L 23.277344 25.574219 L 23.277344 22.296875 L 26.558594 22.296875 L 26.558594 18.359375 C 26.558594 16.1875 24.796875 14.425781 22.621094 14.425781 L 21.96875 14.425781 L 20 19.671875 L 18.03125 14.425781 L 17.378906 14.425781 C 15.203125 14.425781 13.441406 16.1875 13.441406 18.359375 L 13.441406 22.296875 L 16.722656 22.296875 Z M 16.722656 25.574219 "/>
<path style=" stroke:none;fill-rule:nonzero;fill:rgb(40%,80.784314%,85.882353%);fill-opacity:1;" d="M 10.164062 10.492188 C 10.164062 12.664062 8.402344 14.425781 6.230469 14.425781 C 4.054688 14.425781 2.296875 12.664062 2.296875 10.492188 C 2.296875 8.320312 4.054688 6.558594 6.230469 6.558594 C 8.402344 6.558594 10.164062 8.320312 10.164062 10.492188 Z M 10.164062 10.492188 "/>
<path style=" stroke:none;fill-rule:nonzero;fill:rgb(96.470588%,74.901961%,34.509804%);fill-opacity:1;" d="M 23.933594 10.492188 C 23.933594 12.664062 22.171875 14.425781 20 14.425781 C 17.828125 14.425781 16.066406 12.664062 16.066406 10.492188 C 16.066406 8.320312 17.828125 6.558594 20 6.558594 C 22.171875 6.558594 23.933594 8.320312 23.933594 10.492188 Z M 23.933594 10.492188 "/>
<path style=" stroke:none;fill-rule:nonzero;fill:rgb(40%,80.784314%,85.882353%);fill-opacity:1;" d="M 37.703125 10.492188 C 37.703125 12.664062 35.945312 14.425781 33.769531 14.425781 C 31.597656 14.425781 29.835938 12.664062 29.835938 10.492188 C 29.835938 8.320312 31.597656 6.558594 33.769531 6.558594 C 35.945312 6.558594 37.703125 8.320312 37.703125 10.492188 Z M 37.703125 10.492188 "/>
<path style=" stroke:none;fill-rule:nonzero;fill:rgb(40%,80.784314%,85.882353%);fill-opacity:1;" d="M 13.441406 3.933594 L 16.722656 3.933594 L 16.722656 0.65625 L 7.539062 0.65625 L 7.539062 3.933594 L 10.820312 3.933594 L 10.820312 5.902344 Z M 13.441406 3.933594 "/>
<path style=" stroke:none;fill-rule:nonzero;fill:rgb(0.392157%,0.392157%,20%);fill-opacity:1;" d="M 2.949219 30.097656 L 2.949219 40 L 4.261719 40 L 4.261719 30.164062 L 10.164062 30.164062 L 10.164062 39.34375 C 10.164062 39.707031 10.457031 40 10.820312 40 L 14.753906 40 C 15.117188 40 15.410156 39.707031 15.410156 39.34375 L 15.410156 28.851562 L 19.34375 28.851562 L 19.34375 38.6875 L 16.722656 38.6875 L 16.722656 40 L 23.277344 40 L 23.277344 38.6875 L 20.65625 38.6875 L 20.65625 28.851562 L 24.589844 28.851562 L 24.589844 39.34375 C 24.589844 39.707031 24.882812 40 25.246094 40 L 29.179688 40 C 29.542969 40 29.835938 39.707031 29.835938 39.34375 L 29.835938 30.164062 L 35.738281 30.164062 L 35.738281 40 L 37.050781 40 L 37.050781 30.097656 C 38.542969 29.792969 39.671875 28.46875 39.671875 26.886719 L 39.671875 17.050781 C 39.671875 15.421875 38.476562 14.078125 36.917969 13.824219 C 37.804688 12.984375 38.359375 11.804688 38.359375 10.492188 C 38.359375 7.960938 36.300781 5.902344 33.769531 5.902344 C 31.238281 5.902344 29.179688 7.960938 29.179688 10.492188 C 29.179688 12.101562 30.015625 13.519531 31.273438 14.339844 C 30.40625 14.929688 29.835938 15.921875 29.835938 17.050781 L 29.835938 21.640625 L 27.214844 21.640625 L 27.214844 18.359375 C 27.214844 16.015625 25.441406 14.074219 23.167969 13.804688 C 24.042969 12.96875 24.589844 11.792969 24.589844 10.492188 C 24.589844 7.960938 22.53125 5.902344 20 5.902344 C 17.46875 5.902344 15.410156 7.960938 15.410156 10.492188 C 15.410156 11.792969 15.957031 12.96875 16.832031 13.804688 C 14.558594 14.074219 12.785156 16.015625 12.785156 18.359375 L 12.785156 21.640625 L 10.164062 21.640625 L 10.164062 17.050781 C 10.164062 15.921875 9.59375 14.929688 8.726562 14.339844 C 9.984375 13.519531 10.820312 12.101562 10.820312 10.492188 C 10.820312 7.960938 8.761719 5.902344 6.230469 5.902344 C 3.699219 5.902344 1.640625 7.960938 1.640625 10.492188 C 1.640625 11.804688 2.195312 12.984375 3.082031 13.824219 C 1.523438 14.078125 0.328125 15.421875 0.328125 17.050781 L 0.328125 26.886719 C 0.328125 28.46875 1.457031 29.792969 2.949219 30.097656 Z M 24.664062 27.539062 L 15.335938 27.539062 C 15.238281 27.058594 15.039062 26.609375 14.753906 26.230469 L 25.246094 26.230469 C 24.960938 26.609375 24.761719 27.058594 24.664062 27.539062 Z M 30.492188 10.492188 C 30.492188 8.683594 31.960938 7.214844 33.769531 7.214844 C 35.578125 7.214844 37.050781 8.683594 37.050781 10.492188 C 37.050781 12.300781 35.578125 13.769531 33.769531 13.769531 C 31.960938 13.769531 30.492188 12.300781 30.492188 10.492188 Z M 30.492188 22.949219 C 30.855469 22.949219 31.148438 22.65625 31.148438 22.296875 L 31.148438 17.050781 C 31.148438 15.964844 32.03125 15.082031 33.113281 15.082031 L 36.394531 15.082031 C 37.476562 15.082031 38.359375 15.964844 38.359375 17.050781 L 38.359375 26.886719 C 38.359375 27.96875 37.476562 28.851562 36.394531 28.851562 L 29.179688 28.851562 C 28.820312 28.851562 28.523438 29.144531 28.523438 29.507812 L 28.523438 38.6875 L 25.902344 38.6875 L 25.902344 28.195312 C 25.902344 27.113281 26.785156 26.230469 27.867188 26.230469 L 33.769531 26.230469 C 34.132812 26.230469 34.425781 25.9375 34.425781 25.574219 L 34.425781 19.015625 L 33.113281 19.015625 L 33.113281 24.917969 L 23.933594 24.917969 L 23.933594 22.949219 Z M 21.019531 15.082031 L 20 17.804688 L 18.980469 15.082031 Z M 16.722656 10.492188 C 16.722656 8.683594 18.191406 7.214844 20 7.214844 C 21.808594 7.214844 23.277344 8.683594 23.277344 10.492188 C 23.277344 12.300781 21.808594 13.769531 20 13.769531 C 18.191406 13.769531 16.722656 12.300781 16.722656 10.492188 Z M 14.097656 18.359375 C 14.097656 16.554688 15.570312 15.082031 17.378906 15.082031 L 17.578125 15.082031 L 19.386719 19.902344 C 19.480469 20.15625 19.726562 20.328125 20 20.328125 C 20.273438 20.328125 20.519531 20.15625 20.613281 19.902344 L 22.421875 15.082031 L 22.621094 15.082031 C 24.429688 15.082031 25.902344 16.554688 25.902344 18.359375 L 25.902344 21.640625 L 23.277344 21.640625 C 22.917969 21.640625 22.621094 21.933594 22.621094 22.296875 L 22.621094 24.917969 L 17.378906 24.917969 L 17.378906 22.296875 C 17.378906 21.933594 17.082031 21.640625 16.722656 21.640625 L 14.097656 21.640625 Z M 2.949219 10.492188 C 2.949219 8.683594 4.421875 7.214844 6.230469 7.214844 C 8.039062 7.214844 9.507812 8.683594 9.507812 10.492188 C 9.507812 12.300781 8.039062 13.769531 6.230469 13.769531 C 4.421875 13.769531 2.949219 12.300781 2.949219 10.492188 Z M 1.640625 17.050781 C 1.640625 15.964844 2.523438 15.082031 3.605469 15.082031 L 6.886719 15.082031 C 7.96875 15.082031 8.851562 15.964844 8.851562 17.050781 L 8.851562 22.296875 C 8.851562 22.65625 9.144531 22.949219 9.507812 22.949219 L 16.066406 22.949219 L 16.066406 24.917969 L 6.886719 24.917969 L 6.886719 19.015625 L 5.574219 19.015625 L 5.574219 25.574219 C 5.574219 25.9375 5.867188 26.230469 6.230469 26.230469 L 12.132812 26.230469 C 13.214844 26.230469 14.097656 27.113281 14.097656 28.195312 L 14.097656 38.6875 L 11.476562 38.6875 L 11.476562 29.507812 C 11.476562 29.144531 11.179688 28.851562 10.820312 28.851562 L 3.605469 28.851562 C 2.523438 28.851562 1.640625 27.96875 1.640625 26.886719 Z M 1.640625 17.050781 "/>
<path style=" stroke:none;fill-rule:nonzero;fill:rgb(0.392157%,0.392157%,20%);fill-opacity:1;" d="M 19.34375 21.640625 L 20.65625 21.640625 L 20.65625 22.949219 L 19.34375 22.949219 Z M 19.34375 21.640625 "/>
<path style=" stroke:none;fill-rule:nonzero;fill:rgb(0.392157%,0.392157%,20%);fill-opacity:1;" d="M 10.527344 6.488281 C 10.617188 6.535156 10.71875 6.558594 10.820312 6.558594 C 10.957031 6.558594 11.097656 6.511719 11.214844 6.425781 L 13.660156 4.589844 L 16.722656 4.589844 C 17.082031 4.589844 17.378906 4.296875 17.378906 3.933594 L 17.378906 0.65625 C 17.378906 0.292969 17.082031 0 16.722656 0 L 7.539062 0 C 7.179688 0 6.886719 0.292969 6.886719 0.65625 L 6.886719 3.933594 C 6.886719 4.296875 7.179688 4.589844 7.539062 4.589844 L 10.164062 4.589844 L 10.164062 5.902344 C 10.164062 6.148438 10.304688 6.378906 10.527344 6.488281 Z M 8.195312 3.277344 L 8.195312 1.3125 L 16.066406 1.3125 L 16.066406 3.277344 L 13.441406 3.277344 C 13.300781 3.277344 13.164062 3.324219 13.050781 3.410156 L 11.476562 4.589844 L 11.476562 3.933594 C 11.476562 3.574219 11.179688 3.277344 10.820312 3.277344 Z M 8.195312 3.277344 "/>
<path style=" stroke:none;fill-rule:nonzero;fill:rgb(0.392157%,0.392157%,20%);fill-opacity:1;" d="M 23.277344 1.96875 L 24.589844 1.96875 L 24.589844 3.277344 L 23.277344 3.277344 Z M 23.277344 1.96875 "/>
<path style=" stroke:none;fill-rule:nonzero;fill:rgb(0.392157%,0.392157%,20%);fill-opacity:1;" d="M 25.902344 1.96875 L 27.214844 1.96875 L 27.214844 3.277344 L 25.902344 3.277344 Z M 25.902344 1.96875 "/>
<path style=" stroke:none;fill-rule:nonzero;fill:rgb(0.392157%,0.392157%,20%);fill-opacity:1;" d="M 28.523438 1.96875 L 29.835938 1.96875 L 29.835938 3.277344 L 28.523438 3.277344 Z M 28.523438 1.96875 "/>
</g>
</svg>
