<svg id="Layer_1" data-name="Layer 1" xmlns="http://www.w3.org/2000/svg" xmlns:xlink="http://www.w3.org/1999/xlink" viewBox="0 0 299.63 40"><defs><style>.cls-1{fill:none;}.cls-2{clip-path:url(#clip-path);}.cls-3{fill:#df1332;}.cls-10,.cls-11,.cls-12,.cls-13,.cls-14,.cls-15,.cls-16,.cls-17,.cls-18,.cls-19,.cls-3,.cls-4,.cls-5,.cls-6,.cls-7,.cls-8,.cls-9{fill-rule:evenodd;}.cls-4{fill:#e0ab26;}.cls-5{fill:#19943a;}.cls-6{fill:#c61424;}.cls-7{fill:#e33520;}.cls-8{fill:#38bbe4;}.cls-9{fill:#fcc600;}.cls-10{fill:#aa173d;}.cls-11{fill:#e85f24;}.cls-12{fill:#db005f;}.cls-13{fill:#f69e10;}.cls-14{fill:#c59014;}.cls-15{fill:#3e7e42;}.cls-16{fill:#2493d1;}.cls-17{fill:#184568;}.cls-18{fill:#63ac2e;}.cls-19{fill:#05669f;}.cls-20{isolation:isolate;}.cls-21{fill:#fff;}</style><clipPath id="clip-path"><path class="cls-1" d="M116.4,0c-9.36.13-17.35,2.06-24,6.05C90.6,7,88.32,8.47,86.09,9.86l-1.8-2.45-4.71,9.73h12l-1.77-2.46,7.53-4.49a30.36,30.36,0,0,1,8.92-3.86,38.42,38.42,0,0,1,25.95,2.05c4.67,2.16,7.52,5,8.77,8.45,2.76,7.9-5.76,15.82-19,17.6a40.71,40.71,0,0,1-16.22-1,31.31,31.31,0,0,1-8.11-3.59Q83.75,21.64,69.88,13.4c-4.41-2.61-8.8-5.26-13.26-7.85a40.52,40.52,0,0,0-12-4.37,54.43,54.43,0,0,0-15.28-1A46.08,46.08,0,0,0,12.1,4.65C6.33,7.53,2.53,11.14.88,15.52A12,12,0,0,0,2.5,27.36c4.86,6.83,13.43,10.88,25.59,12.23A51.32,51.32,0,0,0,48.91,37.4c4-1.49,7.24-3.24,10.82-4.87.91-.53,2.31-1.37,3.76-2.15l2.6,2.77,1.44-4.54,1.93-6-2.23.32-9.41,1.35h0l1.62,1.62c-3.75,2.14-7.67,4.31-8.77,4.94a31.21,31.21,0,0,1-12.74,3.78,37.37,37.37,0,0,1-20.75-3.35c-4.79-2.49-7.71-5.55-8.44-9.31C7.57,16.1,11,11.37,18.91,7.87a37.21,37.21,0,0,1,18-2.68,34.21,34.21,0,0,1,15.62,5C58.71,13.93,65,17.6,71.28,21.31c5.63,3.34,11.22,6.72,16.87,10,2.48,1.48,5.07,2.68,7.78,4a44.15,44.15,0,0,0,16.77,4.4c10.59.61,19.75-1.3,27.34-5.73,4.87-2.83,8-6.31,9.2-10.31,1.85-6.13-.5-11.66-7.17-16.46A41.14,41.14,0,0,0,121.88.31c-.73,0-1.44-.15-2.17-.18L116.46,0"/></clipPath></defs><title>HIE logo small_white_1</title><g class="cls-2"><polygon class="cls-3" points="109.7 15.94 113.82 13.79 96.13 -6.79 72.98 14.3 85.96 22.62 109.7 15.94"/><polygon class="cls-4" points="99.01 -4.77 90.42 0.18 104.14 15.6 114.24 12.99 118.78 -6.05 99.01 -4.77"/><polygon class="cls-5" points="117.23 -7.96 143.55 -0.08 127.8 15.88 113.98 12.99 117.23 -7.96"/><polygon class="cls-6" points="128.42 12.93 137.03 20.42 160.37 20.42 142.87 -3.39 128.42 12.93"/><polygon class="cls-7" points="127 29.31 136.14 19.93 158.62 21 141.65 44.49 127 29.31"/><polygon class="cls-8" points="126.89 27.93 110.25 28.24 112.94 51.04 140.22 42.41 126.89 27.93"/><polygon class="cls-9" points="110.77 28.92 100.75 26.68 89.49 42.43 114.68 48.4 110.77 28.92"/><polygon class="cls-10" points="89.1 17.91 70.26 33.47 89.48 42.99 100.86 26.76 89.1 17.91"/><polygon class="cls-11" points="72.01 33.49 55.29 20.69 69.16 10.46 71.78 13.23 79.65 18.64 85.5 22.14 72.01 33.49"/><polygon class="cls-12" points="56.16 20.08 44.5 10.38 56.16 -3.62 74.85 6.73 56.16 20.08"/><polygon class="cls-13" points="56.31 -3.92 27.34 -8.55 35.03 13.88 45.23 10.91 56.31 -3.92"/><polygon class="cls-14" points="27.75 -8.22 2.9 1.95 26.24 15.31 35.31 13.72 27.75 -8.22"/><polygon class="cls-15" points="25.97 15.15 21.72 20.08 -4.23 21.68 2.9 1.64 25.97 15.15"/><polygon class="cls-16" points="-4.09 21.52 6.18 39.56 25.95 28.25 21.72 20.08 -4.09 21.52"/><polygon class="cls-17" points="75.89 24.86 67.55 20.06 47.11 23.42 46.42 30.43 58.52 43.76 69.75 42.83 75.89 24.86"/><polygon class="cls-18" points="26.29 27.3 6.16 38.71 32.66 51.67 36.13 29.7 26.29 27.3"/><polygon class="cls-19" points="32.68 46.68 59.44 42.05 47.23 28.53 35.83 28.53 32.68 46.68"/></g><g class="cls-20"><path class="cls-21" d="M170.93,11.21h-1.86V6.1H161.8v5.11H160V.36h1.85V4.82h7.27V.36h1.86Z"/></g><g class="cls-20"><path class="cls-21" d="M186.86,11.21H176.41V.36h10.12V1.65h-8.27V5H186V6.25h-7.74V9.92h8.6Z"/></g><g class="cls-20"><path class="cls-21" d="M203.31,11.21h-2.09l-1.64-3.3h-5.84l-1.55,3.3h-1.95L195.61.36h2ZM199,6.77c-1.14-2.35-1.79-3.68-1.93-4a12.82,12.82,0,0,1-.49-1.27h-.05a9.63,9.63,0,0,1-.71,2l-1.57,3.25Z"/></g><g class="cls-20"><path class="cls-21" d="M215.87,11.21h-8.75V.36H209V9.92h6.9Z"/></g><g class="cls-20"><path class="cls-21" d="M230.39,1.65h-4.63v9.56H223.9V1.65h-4.59V.36h11.08Z"/></g><g class="cls-20"><path class="cls-21" d="M245.72,11.21h-1.86V6.1h-7.27v5.11h-1.86V.36h1.86V4.82h7.27V.36h1.86Z"/></g><g class="cls-20"><path class="cls-21" d="M162,25.51h-1.86V14.67H162Z"/></g><g class="cls-20"><path class="cls-21" d="M178.7,25.51h-1.9L169.5,17h0v8.51H167.7V14.67h1.89l7.31,8.51h0V14.67h1.76Z"/></g><g class="cls-20"><path class="cls-21" d="M195.18,25.51h-1.9L186,17h0v8.51h-1.76V14.67h1.89l7.31,8.51h0V14.67h1.77Z"/></g><g class="cls-20"><path class="cls-21" d="M206.73,14.48A7.29,7.29,0,0,1,211.54,16a5,5,0,0,1,1.87,4.07,5,5,0,0,1-1.88,4.06,7.3,7.3,0,0,1-4.8,1.54,7.12,7.12,0,0,1-4.86-1.6A4.91,4.91,0,0,1,200,20.22a5.14,5.14,0,0,1,1.86-4.2A7.35,7.35,0,0,1,206.73,14.48Zm0,10a5,5,0,0,0,3.44-1.16,4,4,0,0,0,1.34-3.21,4,4,0,0,0-1.35-3.25,5.1,5.1,0,0,0-3.4-1.14,5.2,5.2,0,0,0-3.45,1.12,4.18,4.18,0,0,0-1.36,3.42,3.87,3.87,0,0,0,1.33,3.05A5,5,0,0,0,206.72,24.47Z"/></g><g class="cls-20"><path class="cls-21" d="M229.58,14.67,224.1,25.51h-1.89l-5.42-10.84h2l3.64,7.88a10,10,0,0,1,.72,1.76h0a13.44,13.44,0,0,1,.73-1.76l3.78-7.88Z"/></g><g class="cls-20"><path class="cls-21" d="M245.12,25.51H243l-1.64-3.3h-5.84L234,25.51h-1.95l5.37-10.84h2Zm-4.29-4.44c-1.15-2.34-1.8-3.68-1.94-4a13.14,13.14,0,0,1-.49-1.28h-.05a9.93,9.93,0,0,1-.71,2l-1.57,3.24Z"/></g><g class="cls-20"><path class="cls-21" d="M259,16h-4.63v9.55h-1.86V16h-4.59V14.67H259Z"/></g><g class="cls-20"><path class="cls-21" d="M265.42,25.51h-1.86V14.67h1.86Z"/></g><g class="cls-20"><path class="cls-21" d="M277.14,14.48A7.31,7.31,0,0,1,282,16a5,5,0,0,1,1.87,4.07,5,5,0,0,1-1.88,4.06,7.33,7.33,0,0,1-4.8,1.54,7.15,7.15,0,0,1-4.87-1.6,4.91,4.91,0,0,1-1.84-3.88,5.14,5.14,0,0,1,1.86-4.2A7.36,7.36,0,0,1,277.14,14.48Zm0,10a5.05,5.05,0,0,0,3.45-1.16,4.05,4.05,0,0,0,1.33-3.21,4,4,0,0,0-1.35-3.25,5.07,5.07,0,0,0-3.39-1.14,5.25,5.25,0,0,0-3.46,1.12,4.17,4.17,0,0,0-1.35,3.42,3.86,3.86,0,0,0,1.32,3.05A5,5,0,0,0,277.12,24.47Z"/></g><g class="cls-20"><path class="cls-21" d="M299.63,25.51h-1.9L290.42,17h0v8.51h-1.76V14.67h1.89l7.31,8.51h0V14.67h1.77Z"/></g><g class="cls-20"><path class="cls-21" d="M170.38,39.82H159.93V29h10.13v1.29h-8.28v3.31h7.74v1.29h-7.74v3.67h8.6Z"/></g><g class="cls-20"><path class="cls-21" d="M186.7,39.82h-2.29l-2.81-3.08c-.68-.76-1.12-1.26-1.3-1.52h0q0,.14-4.16,4.6h-2.24l5.42-5.65L174.5,29h2.21l2.95,3.24a8.21,8.21,0,0,1,.7.88q.38-.5,3.93-4.12h2l-4.91,5.11Z"/></g><g class="cls-20"><path class="cls-21" d="M202.53,36.38a4.76,4.76,0,0,1-2.13,2.72,7,7,0,0,1-3.65.9c-2.29,0-4-.55-5-1.67a5.63,5.63,0,0,1-1.57-4A4.9,4.9,0,0,1,192,30.26a7.42,7.42,0,0,1,4.75-1.47,7.14,7.14,0,0,1,3.49.8,4.41,4.41,0,0,1,2,2.36l-1.82.34a3.34,3.34,0,0,0-1.39-1.7,4.41,4.41,0,0,0-2.34-.57,4.74,4.74,0,0,0-3.47,1.16,4.18,4.18,0,0,0-1.18,3.12,4.26,4.26,0,0,0,1.24,3.37,5.42,5.42,0,0,0,5.92.41A3.56,3.56,0,0,0,200.69,36Z"/></g><g class="cls-20"><path class="cls-21" d="M218.19,39.82h-1.86V34.71h-7.27v5.11h-1.85V29h1.85v4.45h7.27V29h1.86Z"/></g><g class="cls-20"><path class="cls-21" d="M235.18,39.82h-2.09l-1.64-3.3h-5.84l-1.55,3.3h-1.95L227.48,29h2Zm-4.3-4.44c-1.14-2.35-1.79-3.68-1.93-4a12.2,12.2,0,0,1-.49-1.28h-.05a10.33,10.33,0,0,1-.71,2l-1.57,3.25Z"/></g><g class="cls-20"><path class="cls-21" d="M250.06,39.82h-1.9l-7.3-8.52h0v8.52h-1.76V29H241l7.31,8.51h0V29h1.76Z"/></g><g class="cls-20"><path class="cls-21" d="M267.94,38.3a10.5,10.5,0,0,1-5.78,1.7A8.26,8.26,0,0,1,257,38.48a4.83,4.83,0,0,1-2-4,5.41,5.41,0,0,1,.8-2.87,5.29,5.29,0,0,1,2.38-2.05,9,9,0,0,1,3.84-.73,7.74,7.74,0,0,1,3.78.8A4,4,0,0,1,267.73,32l-1.66.36a3.1,3.1,0,0,0-1.4-1.76A5.24,5.24,0,0,0,262,30a5.42,5.42,0,0,0-3.82,1.19,4.09,4.09,0,0,0-1.29,3.14,4.3,4.3,0,0,0,.63,2.41,3.74,3.74,0,0,0,1.85,1.45,7.09,7.09,0,0,0,2.67.5,7.93,7.93,0,0,0,4.08-1.12v-2H262v-1.3h5.91Z"/></g><g class="cls-20"><path class="cls-21" d="M283.55,39.82H273.1V29h10.13v1.29H275v3.31h7.73v1.29H275v3.67h8.59Z"/></g></svg>