<svg width="494" height="544" viewBox="0 0 494 544" fill="none" xmlns="http://www.w3.org/2000/svg">
<path d="M490.65 354.3C483.432 394.945 462.673 431.952 431.75 459.3C421.074 468.714 409.521 477.086 397.25 484.3C354 510.45 300.4 526.3 244.6 539.3L235.05 541.45C226.756 543.334 218.248 544.107 209.75 543.75C121 540.05 60.5501 408.5 41.7501 270.05C25.3501 146.8 52.8001 7.20002 175.7 0.900022C221.85 -1.39998 275.7 21.6 325.7 58.6C329.3 61.25 332.9 64 336.45 66.8L338.65 68.55C432 142.95 508.25 263.6 490.65 354.3Z" fill="#FDE6D6"/>
<path d="M55.0501 470.35C62.0001 484.4 64.5501 502.2 50.6001 507.9C35.0001 514.3 10.1001 504 2.90006 480.55C-1.74994 465.55 -0.14994 444.65 12.9001 436.6C23.5501 429.7 46.7501 453.15 55.0501 470.35Z" fill="#F5F9FD"/>
<path d="M436.75 155.25C430.5 149.8 425.5 141.7 430.8 136.25C436.1 130.8 450.4 130.35 458.8 140.3C464.15 146.65 467.85 157.05 463.8 163.4C460.2 168.8 444.55 161.9 436.75 155.25Z" fill="#FFAD69"/>
<path d="M421.75 354.75C421.75 355.35 421.75 355.85 421.75 356.4C420.5 370.35 408.5 400.1 396.75 426.4C397.15 435.9 397.45 444.4 397.5 451.4C397.5 452.7 397.5 453.9 397.5 455.1H396.05C396.4 461.3 396.85 472.05 397.2 484.4C353.95 510.55 300.35 526.4 244.55 539.4L235 541.55C226.706 543.434 218.198 544.208 209.7 543.85C209.189 541.758 209.003 539.599 209.15 537.45C210.332 509.261 213.271 481.173 217.95 453.35L214.85 452.9C226.2 414.6 231.9 359.35 234.85 311.4C235.2 305.75 235.5 300.25 235.75 294.8C228.5 302.2 223.5 306.8 223.5 306.8L208.15 281.55C189.2 295.25 171.3 307.35 162.55 312.95C155.3 319.75 142.95 320.75 133.25 307.95C117.55 287.4 95.4 201.15 92.8 186.5C92.4206 186.357 92.0663 186.154 91.75 185.9C88.15 180.9 75.55 153.65 76.75 148.35C77.95 143.05 83.85 131.6 90.7 130.05C89.9 127.6 89 125.05 87.7 121.5C84.8 113.6 81.35 105.6 86.55 106.5C91.75 107.4 103.65 136.5 105.7 141.5C106 139.15 106.3 137.25 106.3 137.25C107.9 132.55 116.3 130.05 115.05 137.25C113.6 147.25 117.1 152.25 116.95 160.5C116.95 160.95 116.95 161.45 116.95 162.15C116.97 162.45 116.97 162.75 116.95 163.05C116.977 163.266 116.977 163.484 116.95 163.7C116.95 163.7 116.95 163.95 116.95 164.05C115.733 170.195 113.574 176.114 110.55 181.6C116 199.4 141 245.95 155.55 271.6C164.45 264.2 175.55 255.4 187.05 246.6L186.05 244.95C186.05 244.95 245.35 189.5 276.05 185.3C276.5 183.15 276.8 180.8 277.1 178.35C277.4 175.9 277.6 171.75 277.7 168.35C255.15 168.1 253.05 151.5 255.3 130.4L251.75 129.5L257 115.9V114.9C256.424 114.229 256.089 113.384 256.05 112.5C256.05 110.85 256.5 109.45 257.4 109.4C257.529 109.35 257.671 109.35 257.8 109.4C257.8 108.2 258.2 107 258.35 105.8C258.75 103.15 259.25 100.8 259.75 98.35C258.413 98.0872 257.037 98.0872 255.7 98.35L255.3 95.9C256.954 95.6054 258.646 95.6054 260.3 95.9C261.96 89.1963 264.641 82.788 268.25 76.9C261.05 76.4 257.65 74.05 262.65 68.25C270.4 59.25 307.1 54.75 325.6 58.55C332.1 59.9 336.35 62.25 336.4 65.75C336.4 66.15 336.4 66.4 336.4 66.75C338.292 65.9494 339.921 64.6325 341.1 62.95L343.2 64.35C341.993 66.0573 340.422 67.4748 338.6 68.5L337.85 68.9C357.65 81.8 329.65 150.9 329.55 150.9C329 162.75 328.65 174.45 328.7 182.7C346.5 184.75 357.75 189.95 365.2 198.1C385.2 214.15 415.9 280 415.9 280L403.35 283.3C412.3 312 419.9 340.8 422.1 350.45C422.166 351.892 422.048 353.337 421.75 354.75Z" fill="#D1CDD3"/>
<path d="M368.1 107.75C366.4 118.65 363.1 177.75 364.45 191.25C365.8 204.75 299.45 208.85 308.3 193.8C317.15 178.75 310.85 128.8 310.85 128.8L368.1 107.75Z" fill="#FFAD69"/>
<path d="M363.5 109.45L310.85 128.7C312.822 145.173 313.29 161.792 312.25 178.35C333.95 169.4 329.15 151.2 329.15 141.4C329.15 132.5 363.55 111.15 363.5 109.45Z" fill="#D88344"/>
<path d="M294.1 111.7L285.9 129.2L295.9 133.25L294.1 111.7Z" fill="#D88344"/>
<path d="M293.95 105.9C288.95 139.55 280.75 173.1 321.55 167.55C362.35 162 368.65 109.8 368.55 99.9C367.9 47.3 303.55 39.8 293.95 105.9Z" fill="#FFAD69"/>
<path d="M373.5 69.1001C375.607 68.0112 377.437 66.4549 378.85 64.5501L376.75 63.1501C375.474 64.8618 373.741 66.1789 371.75 66.9501C371.777 66.6006 371.777 66.2495 371.75 65.9001C371.75 52.3001 308.45 56.2001 298 68.3501C291.8 75.5501 298.4 77.4501 309.1 77.1001C308.306 77.7115 307.713 78.5477 307.4 79.5001C300.35 114.05 333.65 148.05 337.4 150.95H364.6C364.6 150.95 393.1 81.8001 373.5 69.1001Z" fill="#232323"/>
<path d="M457.5 350.5C453.9 334.45 435.15 265 420.25 231.7L382.2 239.8C382.2 239.8 406.75 321.9 419.8 352.55C416.75 369.05 401.35 445.8 391.85 467.25C387.65 477.25 403.55 481.1 407.4 476.3C411.25 471.5 454.95 383.7 457.4 356.3C457.4 355.7 457.4 355.2 457.4 354.65C457.65 353.28 457.683 351.88 457.5 350.5Z" fill="#FFAD69"/>
<path d="M400.35 197.85C420.35 213.5 451.3 280.05 451.3 280.05L385.8 297.05C385.8 297.05 347.7 156.65 400.35 197.85Z" fill="#8A0303"/>
<path d="M431.75 459.35C421.074 468.764 409.521 477.136 397.25 484.35C354 510.5 300.4 526.35 244.6 539.35C244.55 538.701 244.55 538.049 244.6 537.4C246.4 506.45 249.6 471.1 254.6 448.65L397.65 451.5L431.45 452.2C431.45 453.9 431.75 456.3 431.75 459.35Z" fill="#232323"/>
<path d="M352.45 181.9C391.7 183.2 405 196.45 411.75 219.4C419.45 245.4 433 402.65 433 455.15C433 455.15 315.45 463.5 250.35 452.8C270.75 383.85 272.95 259.9 273.4 222.8C273.7 195.25 302.65 180.25 352.45 181.9Z" fill="#8A0303"/>
<path fill-rule="evenodd" clip-rule="evenodd" d="M357.3 208.9C358.003 209.851 359.118 210.408 360.3 210.4L360.9 210.2C362.242 210.03 363.388 209.151 363.9 207.9L369.6 193.7C369.98 192.559 369.798 191.305 369.108 190.319C368.418 189.334 367.302 188.733 366.1 188.7H349.75C348.33 188.7 347.031 189.503 346.396 190.773C345.761 192.043 345.898 193.564 346.75 194.7L357.3 208.9ZM348.5 191.9C348.714 191.463 349.163 191.189 349.65 191.2H365.95C366.37 191.195 366.765 191.402 367 191.75C367.225 192.118 367.225 192.582 367 192.95L361.3 207.1C361.149 207.537 360.76 207.848 360.3 207.9C359.855 207.952 359.416 207.761 359.15 207.4L348.5 193.2C348.245 192.804 348.245 192.296 348.5 191.9Z" fill="white"/>
<path d="M273.25 231.95C272.95 250.1 272.25 279.05 270.3 311.4C286.95 291.4 303.3 267.75 304.25 250C305.6 225.6 291.75 224.1 273.25 231.95Z" fill="#E5AA33"/>
<path d="M295.4 240.4L275.4 207.15C275.4 207.15 220.4 246.8 190.85 271.35C176.25 245.65 151.3 199.1 145.85 181.35C148.864 175.883 151.007 169.978 152.2 163.85C152.23 163.735 152.23 163.615 152.2 163.5C152.2 163.5 152.2 163.05 152.2 162.85C152.222 162.55 152.222 162.25 152.2 161.95C152.2 161.25 152.2 160.7 152.2 160.25C152.2 152.2 148.85 147.25 150.3 137.05C151.3 129.9 143.15 132.35 141.55 137.05L140.9 141.25C138.85 136.25 126.5 106.9 121.8 106.25C117.1 105.6 120.05 113.5 122.95 121.25C124.2 124.7 125.15 127.4 125.95 129.8C119.05 131.4 112.95 143.2 112 148.15C111.05 153.1 123.55 180.7 127 185.7C127.267 186.034 127.588 186.321 127.95 186.55C130.5 201.25 152.95 287.45 168.35 308.05C178.05 320.8 190.45 319.8 197.7 313.05C215.5 301.7 270.2 264.1 295.4 240.4Z" fill="#FFAD69"/>
<path d="M329.15 207.15C327.15 243.85 259.15 306.8 259.15 306.8L221.25 244.8C221.25 244.8 332.85 140.4 329.15 207.15Z" fill="#8A0303"/>
<path d="M308.15 116.3C306.65 125.1 304.45 133.85 312.7 133.2C320.95 132.55 323.05 118.85 323.2 116.25C323.9 102.25 311.1 98.9 308.15 116.3Z" fill="#FFAD69"/>
</svg>
