<?xml version="1.0" encoding="UTF-8"?>
<svg xmlns="http://www.w3.org/2000/svg" xmlns:xlink="http://www.w3.org/1999/xlink" width="40pt" height="40pt" viewBox="0 0 40 40" version="1.1">
<g id="surface1">
<path style=" stroke:none;fill-rule:nonzero;fill:rgb(40%,70.196078%,100%);fill-opacity:1;" d="M 16.484375 0 C 16.082031 0 15.703125 0.0703125 15.3125 0.101562 C 8.832031 0.625 3.863281 5.410156 2.710938 11.183594 C 2.265625 13.410156 2.332031 15.609375 2.90625 17.730469 L 0 22.59375 L 4.765625 25.988281 L 4.765625 32.8125 L 9.453125 32.8125 L 9.453125 40 L 25.859375 40 L 25.859375 35.0625 C 25.859375 30.261719 27.03125 25.175781 29.4375 19.519531 C 30.171875 17.789062 30.546875 15.953125 30.546875 14.0625 C 30.546875 6.351562 24.328125 0.015625 16.484375 0 Z M 16.484375 0 "/>
<path style=" stroke:none;fill-rule:nonzero;fill:rgb(30.196078%,53.333333%,100%);fill-opacity:1;" d="M 25.859375 35.0625 C 25.859375 30.261719 27.03125 25.175781 29.4375 19.519531 C 30.171875 17.789062 30.546875 15.953125 30.546875 14.0625 C 30.546875 6.351562 24.328125 0.015625 16.484375 0 C 16.082031 0 15.703125 0.0703125 15.3125 0.101562 L 15.3125 40 L 25.859375 40 Z M 25.859375 35.0625 "/>
<path style=" stroke:none;fill-rule:nonzero;fill:rgb(80%,90.196078%,100%);fill-opacity:1;" d="M 20 14.0625 L 34.140625 14.0625 L 34.140625 16.40625 L 20 16.40625 Z M 20 14.0625 "/>
<path style=" stroke:none;fill-rule:nonzero;fill:rgb(30.196078%,53.333333%,100%);fill-opacity:1;" d="M 36.484375 18.75 C 34.546875 18.75 32.96875 17.171875 32.96875 15.234375 C 32.96875 13.296875 34.546875 11.71875 36.484375 11.71875 C 38.421875 11.71875 40 13.296875 40 15.234375 C 40 17.171875 38.421875 18.75 36.484375 18.75 Z M 36.484375 18.75 "/>
<path style=" stroke:none;fill-rule:nonzero;fill:rgb(80%,90.196078%,100%);fill-opacity:1;" d="M 34 23.78125 L 31.3125 21.09375 L 15.3125 21.09375 L 15.3125 18.75 L 32.28125 18.75 L 35.65625 22.125 Z M 34 23.78125 "/>
<path style=" stroke:none;fill-rule:nonzero;fill:rgb(30.196078%,53.333333%,100%);fill-opacity:1;" d="M 36.484375 28.125 C 34.546875 28.125 32.96875 26.546875 32.96875 24.609375 C 32.96875 22.671875 34.546875 21.09375 36.484375 21.09375 C 38.421875 21.09375 40 22.671875 40 24.609375 C 40 26.546875 38.421875 28.125 36.484375 28.125 Z M 36.484375 28.125 "/>
<path style=" stroke:none;fill-rule:nonzero;fill:rgb(80%,90.196078%,100%);fill-opacity:1;" d="M 32.28125 11.71875 L 15.3125 11.71875 L 15.3125 9.375 L 31.3125 9.375 L 34 6.6875 L 35.65625 8.34375 Z M 32.28125 11.71875 "/>
<path style=" stroke:none;fill-rule:nonzero;fill:rgb(30.196078%,53.333333%,100%);fill-opacity:1;" d="M 36.484375 9.375 C 34.546875 9.375 32.96875 7.796875 32.96875 5.859375 C 32.96875 3.921875 34.546875 2.34375 36.484375 2.34375 C 38.421875 2.34375 40 3.921875 40 5.859375 C 40 7.796875 38.421875 9.375 36.484375 9.375 Z M 36.484375 9.375 "/>
<path style=" stroke:none;fill-rule:nonzero;fill:rgb(90.196078%,96.862745%,100%);fill-opacity:1;" d="M 21.171875 15.234375 C 21.171875 18.46875 18.546875 21.09375 15.3125 21.09375 C 12.078125 21.09375 9.453125 18.46875 9.453125 15.234375 C 9.453125 12 12.078125 9.375 15.3125 9.375 C 18.546875 9.375 21.171875 12 21.171875 15.234375 Z M 21.171875 15.234375 "/>
<path style=" stroke:none;fill-rule:nonzero;fill:rgb(80%,90.196078%,100%);fill-opacity:1;" d="M 21.171875 15.234375 C 21.171875 12.003906 18.542969 9.375 15.3125 9.375 L 15.3125 21.09375 C 18.542969 21.09375 21.171875 18.464844 21.171875 15.234375 Z M 21.171875 15.234375 "/>
<path style=" stroke:none;fill-rule:nonzero;fill:rgb(40%,70.196078%,100%);fill-opacity:1;" d="M 18.828125 15.234375 C 18.828125 17.175781 17.253906 18.75 15.3125 18.75 C 13.371094 18.75 11.796875 17.175781 11.796875 15.234375 C 11.796875 13.292969 13.371094 11.71875 15.3125 11.71875 C 17.253906 11.71875 18.828125 13.292969 18.828125 15.234375 Z M 18.828125 15.234375 "/>
<path style=" stroke:none;fill-rule:nonzero;fill:rgb(30.196078%,53.333333%,100%);fill-opacity:1;" d="M 18.828125 15.234375 C 18.828125 13.296875 17.25 11.71875 15.3125 11.71875 L 15.3125 18.75 C 17.25 18.75 18.828125 17.171875 18.828125 15.234375 Z M 18.828125 15.234375 "/>
<path style=" stroke:none;fill-rule:nonzero;fill:rgb(90.196078%,96.862745%,100%);fill-opacity:1;" d="M 15.3125 14.0625 L 14.140625 14.0625 L 14.140625 16.40625 L 16.484375 16.40625 L 16.484375 14.0625 Z M 15.3125 14.0625 "/>
<path style=" stroke:none;fill-rule:nonzero;fill:rgb(80%,90.196078%,100%);fill-opacity:1;" d="M 15.3125 14.0625 L 16.484375 14.0625 L 16.484375 16.40625 L 15.3125 16.40625 Z M 15.3125 14.0625 "/>
</g>
</svg>
