<?xml version="1.0" encoding="UTF-8"?>
<svg xmlns="http://www.w3.org/2000/svg" xmlns:xlink="http://www.w3.org/1999/xlink" width="40pt" height="40pt" viewBox="0 0 40 40" version="1.1">
<g id="surface1">
<path style=" stroke:none;fill-rule:nonzero;fill:rgb(90.196078%,90.588235%,90.980392%);fill-opacity:1;" d="M 37.765625 19.941406 L 31.453125 16.988281 C 30.867188 16.714844 30.195312 16.714844 29.609375 16.988281 L 28.023438 17.730469 C 29.773438 14.648438 31.140625 10.457031 26.664062 7.011719 C 21.679688 3.179688 16.902344 7.570312 15.789062 8.726562 C 14.679688 7.570312 9.902344 3.179688 4.914062 7.011719 C -0.753906 11.371094 2.945312 16.929688 4.929688 19.914062 C 5.441406 20.683594 5.925781 21.414062 5.96875 21.730469 C 6.035156 22.257812 5.988281 22.828125 5.933594 23.488281 C 5.820312 24.882812 5.664062 26.796875 6.519531 29.714844 C 7.507812 33.089844 10.257812 34.816406 11.394531 35.398438 C 11.605469 35.507812 11.863281 35.476562 12.042969 35.320312 C 12.222656 35.164062 12.289062 34.914062 12.210938 34.6875 C 11.695312 33.21875 10.167969 28.226562 11.992188 25.660156 C 12.75 24.59375 14.027344 24.050781 15.789062 24.050781 C 17.550781 24.050781 18.828125 24.59375 19.585938 25.660156 C 21.410156 28.226562 19.878906 33.21875 19.367188 34.6875 C 19.289062 34.914062 19.355469 35.164062 19.535156 35.320312 C 19.644531 35.414062 19.78125 35.464844 19.917969 35.464844 C 20.007812 35.464844 20.097656 35.441406 20.183594 35.398438 C 21.175781 34.890625 23.402344 33.507812 24.609375 30.914062 C 26.648438 33.957031 29.054688 34.832031 30.035156 35.070312 C 30.199219 35.109375 30.363281 35.128906 30.53125 35.128906 C 30.695312 35.128906 30.863281 35.109375 31.027344 35.066406 C 32.066406 34.816406 34.710938 33.847656 36.824219 30.328125 C 38.464844 27.59375 38.910156 24.007812 39.03125 22.117188 C 39.089844 21.195312 38.582031 20.320312 37.765625 19.941406 Z M 37.765625 19.941406 "/>
<path style=" stroke:none;fill-rule:nonzero;fill:rgb(83.137255%,98.431373%,100%);fill-opacity:1;" d="M 24.050781 20.441406 C 24.277344 18.71875 32.257812 11.421875 25.222656 6.011719 C 20.054688 2.035156 15.074219 7.285156 14.539062 7.9375 C 14.003906 7.285156 9.027344 2.035156 3.855469 6.011719 C -3.179688 11.421875 4.800781 18.71875 5.027344 20.441406 C 5.253906 22.160156 4.328125 24.140625 5.570312 28.378906 C 6.511719 31.605469 9.105469 33.265625 10.289062 33.871094 C 10.503906 33.984375 10.746094 33.773438 10.664062 33.542969 C 9.828125 31.148438 7.308594 22.488281 14.539062 22.488281 C 21.769531 22.488281 19.25 31.148438 18.414062 33.542969 C 18.332031 33.773438 18.574219 33.984375 18.792969 33.871094 C 19.972656 33.265625 22.566406 31.605469 23.511719 28.378906 C 24.75 24.136719 23.824219 22.160156 24.050781 20.441406 Z M 24.050781 20.441406 "/>
<path style=" stroke:none;fill-rule:nonzero;fill:rgb(100%,100%,100%);fill-opacity:1;" d="M 3.855469 6.949219 C 9.027344 2.972656 14.003906 8.222656 14.539062 8.871094 C 15.074219 8.222656 20.050781 2.972656 25.222656 6.949219 C 27.179688 8.453125 27.976562 10.105469 28.097656 11.742188 C 28.234375 9.808594 27.554688 7.804688 25.222656 6.011719 C 20.054688 2.035156 15.074219 7.285156 14.539062 7.933594 C 14.003906 7.285156 9.027344 2.035156 3.855469 6.011719 C 1.523438 7.804688 0.84375 9.808594 0.980469 11.742188 C 1.105469 10.105469 1.898438 8.453125 3.855469 6.949219 Z M 3.855469 6.949219 "/>
<path style=" stroke:none;fill-rule:nonzero;fill:rgb(42.745098%,78.823529%,96.862745%);fill-opacity:1;" d="M 29.28125 33.566406 C 29.136719 33.566406 28.996094 33.546875 28.855469 33.515625 C 27.855469 33.273438 25.304688 32.335938 23.253906 28.917969 C 21.648438 26.238281 21.207031 22.710938 21.089844 20.847656 C 21.039062 20.054688 21.476562 19.300781 22.175781 18.972656 L 28.492188 16.019531 C 28.988281 15.789062 29.570312 15.789062 30.070312 16.019531 L 36.382812 18.972656 C 37.085938 19.300781 37.519531 20.054688 37.472656 20.847656 C 37.351562 22.710938 36.910156 26.238281 35.304688 28.917969 C 33.253906 32.335938 30.703125 33.273438 29.703125 33.515625 C 29.5625 33.546875 29.421875 33.566406 29.28125 33.566406 Z M 29.28125 33.566406 "/>
<path style=" stroke:none;fill-rule:nonzero;fill:rgb(22.745098%,17.254902%,37.647059%);fill-opacity:1;" d="M 2.859375 16.1875 C 2.472656 15.515625 2.171875 14.898438 1.929688 14.300781 C 1.867188 14.140625 1.683594 14.0625 1.523438 14.125 C 1.363281 14.191406 1.285156 14.375 1.347656 14.535156 C 1.601562 15.160156 1.917969 15.800781 2.316406 16.5 C 2.371094 16.601562 2.476562 16.65625 2.585938 16.65625 C 2.640625 16.65625 2.691406 16.644531 2.742188 16.617188 C 2.890625 16.53125 2.941406 16.339844 2.859375 16.1875 Z M 2.859375 16.1875 "/>
<path style=" stroke:none;fill-rule:nonzero;fill:rgb(22.745098%,17.254902%,37.647059%);fill-opacity:1;" d="M 36.515625 18.691406 L 30.203125 15.738281 C 29.617188 15.464844 28.945312 15.464844 28.359375 15.738281 L 26.773438 16.480469 C 28.523438 13.398438 29.894531 9.207031 25.414062 5.761719 C 20.429688 1.929688 15.652344 6.320312 14.539062 7.476562 C 13.429688 6.320312 8.652344 1.925781 3.664062 5.761719 C 1.046875 7.777344 0.128906 10.320312 0.9375 13.320312 C 0.984375 13.484375 1.15625 13.582031 1.324219 13.539062 C 1.488281 13.492188 1.585938 13.324219 1.542969 13.15625 C 0.792969 10.386719 1.613281 8.128906 4.046875 6.257812 C 9.246094 2.257812 14.25 8.074219 14.296875 8.132812 C 14.355469 8.207031 14.445312 8.25 14.539062 8.25 C 14.632812 8.25 14.722656 8.207031 14.78125 8.132812 C 14.828125 8.074219 19.835938 2.261719 25.03125 6.257812 C 29.511719 9.707031 27.652344 13.921875 25.769531 16.949219 L 22.042969 18.691406 C 21.226562 19.070312 20.71875 19.945312 20.777344 20.867188 C 20.898438 22.746094 21.339844 26.285156 22.949219 29.011719 C 21.910156 31.597656 19.765625 33 18.742188 33.542969 C 19.441406 31.507812 20.757812 26.738281 18.847656 24.046875 C 17.964844 22.804688 16.515625 22.175781 14.539062 22.175781 C 12.5625 22.175781 11.113281 22.804688 10.230469 24.046875 C 8.320312 26.738281 9.636719 31.507812 10.335938 33.542969 C 9.21875 32.953125 6.761719 31.34375 5.867188 28.289062 C 5.046875 25.480469 5.191406 23.710938 5.308594 22.292969 C 5.367188 21.59375 5.414062 20.992188 5.335938 20.402344 C 5.277344 19.9375 4.824219 19.257812 4.199219 18.316406 C 3.960938 17.960938 3.703125 17.570312 3.4375 17.152344 C 3.347656 17.007812 3.15625 16.964844 3.007812 17.054688 C 2.863281 17.148438 2.820312 17.34375 2.910156 17.488281 C 3.175781 17.910156 3.4375 18.304688 3.679688 18.664062 C 4.191406 19.433594 4.675781 20.164062 4.71875 20.480469 C 4.785156 21.007812 4.738281 21.578125 4.683594 22.238281 C 4.570312 23.636719 4.414062 25.546875 5.269531 28.464844 C 6.257812 31.84375 9.007812 33.566406 10.144531 34.148438 C 10.355469 34.257812 10.613281 34.226562 10.792969 34.070312 C 10.972656 33.914062 11.039062 33.664062 10.960938 33.4375 C 10.445312 31.96875 8.917969 26.976562 10.742188 24.410156 C 11.5 23.34375 12.777344 22.800781 14.539062 22.800781 C 16.300781 22.800781 17.578125 23.34375 18.335938 24.410156 C 20.160156 26.976562 18.628906 31.96875 18.117188 33.4375 C 18.039062 33.664062 18.105469 33.914062 18.285156 34.070312 C 18.394531 34.164062 18.53125 34.214844 18.667969 34.214844 C 18.757812 34.214844 18.847656 34.191406 18.933594 34.148438 C 19.925781 33.636719 22.148438 32.25 23.351562 29.652344 C 25.394531 32.703125 27.804688 33.578125 28.785156 33.820312 C 28.945312 33.859375 29.113281 33.878906 29.277344 33.878906 C 29.445312 33.878906 29.613281 33.859375 29.777344 33.816406 C 30.816406 33.566406 33.460938 32.597656 35.570312 29.078125 C 37.210938 26.34375 37.660156 22.757812 37.78125 20.863281 C 37.839844 19.945312 37.332031 19.070312 36.515625 18.691406 Z M 35.035156 28.757812 C 33.046875 32.074219 30.589844 32.976562 29.628906 33.210938 C 29.398438 33.265625 29.160156 33.265625 28.929688 33.210938 C 27.96875 32.976562 25.511719 32.074219 23.523438 28.757812 C 21.949219 26.136719 21.519531 22.664062 21.402344 20.828125 C 21.359375 20.160156 21.722656 19.53125 22.308594 19.257812 L 28.625 16.304688 C 28.832031 16.207031 29.054688 16.15625 29.28125 16.15625 C 29.503906 16.15625 29.726562 16.207031 29.9375 16.304688 L 36.25 19.257812 C 36.835938 19.53125 37.199219 20.160156 37.160156 20.824219 C 37.039062 22.664062 36.609375 26.136719 35.035156 28.757812 Z M 35.035156 28.757812 "/>
<path style=" stroke:none;fill-rule:nonzero;fill:rgb(0%,53.72549%,93.72549%);fill-opacity:1;" d="M 28.773438 17.691406 L 23.421875 20.195312 C 22.964844 20.40625 22.6875 20.890625 22.71875 21.410156 C 22.8125 22.867188 23.164062 25.851562 24.5 28.078125 C 26.1875 30.886719 28.277344 31.621094 29.011719 31.800781 C 29.1875 31.84375 29.371094 31.84375 29.546875 31.800781 C 30.28125 31.621094 32.371094 30.886719 34.058594 28.078125 C 35.394531 25.851562 35.746094 22.867188 35.839844 21.410156 C 35.871094 20.890625 35.59375 20.40625 35.136719 20.195312 L 29.785156 17.691406 C 29.464844 17.542969 29.09375 17.542969 28.773438 17.691406 Z M 28.773438 17.691406 "/>
<path style=" stroke:none;fill-rule:nonzero;fill:rgb(100%,100%,100%);fill-opacity:1;" d="M 32.875 23.671875 L 30.3125 23.671875 L 30.3125 21.109375 C 30.3125 20.773438 30.039062 20.5 29.703125 20.5 L 28.859375 20.5 C 28.519531 20.5 28.246094 20.773438 28.246094 21.109375 L 28.246094 23.671875 L 25.683594 23.671875 C 25.347656 23.671875 25.074219 23.945312 25.074219 24.285156 L 25.074219 25.128906 C 25.074219 25.464844 25.347656 25.742188 25.683594 25.742188 L 28.246094 25.742188 L 28.246094 28.300781 C 28.246094 28.640625 28.519531 28.914062 28.859375 28.914062 L 29.703125 28.914062 C 30.039062 28.914062 30.3125 28.640625 30.3125 28.300781 L 30.3125 25.742188 L 32.875 25.742188 C 33.210938 25.742188 33.488281 25.464844 33.488281 25.128906 L 33.488281 24.285156 C 33.488281 23.945312 33.210938 23.671875 32.875 23.671875 Z M 32.875 23.671875 "/>
</g>
</svg>
