<?xml version="1.0" encoding="UTF-8"?>
<svg xmlns="http://www.w3.org/2000/svg" xmlns:xlink="http://www.w3.org/1999/xlink" width="40pt" height="40pt" viewBox="0 0 40 40" version="1.1">
<g id="surface1">
<path style=" stroke:none;fill-rule:nonzero;fill:rgb(76.470588%,85.490196%,99.215686%);fill-opacity:1;" d="M 6.28125 22.996094 L 0 16.714844 L 5.28125 11.433594 L 11.914062 9.5625 L 15.816406 13.464844 Z M 6.28125 22.996094 "/>
<path style=" stroke:none;fill-rule:nonzero;fill:rgb(63.137255%,72.156863%,84.705882%);fill-opacity:1;" d="M 23.277344 39.992188 L 16.996094 33.710938 L 26.53125 24.179688 L 30.4375 28.085938 L 28.558594 34.710938 Z M 23.277344 39.992188 "/>
<path style=" stroke:none;fill-rule:nonzero;fill:rgb(92.54902%,76.862745%,26.27451%);fill-opacity:1;" d="M 0.0429688 38.289062 L 8.300781 30.03125 L 9.953125 31.6875 L 1.695312 39.945312 Z M 0.0429688 38.289062 "/>
<path style=" stroke:none;fill-rule:nonzero;fill:rgb(89.019608%,56.470588%,41.176471%);fill-opacity:1;" d="M 0.878906 39.125 L 9.136719 30.867188 L 9.953125 31.683594 L 1.699219 39.941406 Z M 0.878906 39.125 "/>
<path style=" stroke:none;fill-rule:nonzero;fill:rgb(89.019608%,56.470588%,41.176471%);fill-opacity:1;" d="M 7.316406 37.722656 L 11.65625 33.382812 L 13.308594 35.039062 L 8.972656 39.375 Z M 7.316406 37.722656 "/>
<path style=" stroke:none;fill-rule:nonzero;fill:rgb(92.54902%,76.862745%,26.27451%);fill-opacity:1;" d="M 0.609375 31.011719 L 4.949219 26.675781 L 6.601562 28.332031 L 2.265625 32.667969 Z M 0.609375 31.011719 "/>
<path style=" stroke:none;fill-rule:nonzero;fill:rgb(16.862745%,29.803922%,63.137255%);fill-opacity:1;" d="M 19.53125 32.289062 L 7.71875 20.472656 L 4.632812 21.347656 L 2.648438 26.027344 L 13.878906 37.261719 L 18.65625 35.371094 Z M 19.53125 32.289062 "/>
<path style=" stroke:none;fill-rule:nonzero;fill:rgb(12.941176%,23.137255%,50.980392%);fill-opacity:1;" d="M 13.3125 26.699219 C 12.636719 27.378906 8.332031 31.683594 8.316406 31.699219 C 8.828125 32.210938 13.585938 36.96875 13.878906 37.261719 L 18.65625 35.371094 L 19.21875 32.601562 Z M 13.3125 26.699219 "/>
<path style=" stroke:none;fill-rule:nonzero;fill:rgb(89.411765%,95.294118%,100%);fill-opacity:1;" d="M 37.328125 13.648438 C 40.484375 6.511719 39.929688 0.742188 40 0.0117188 C 39.570312 0.0976562 26.742188 -1.125 16.28125 9.699219 L 4.632812 21.347656 L 18.65625 35.371094 L 30.304688 23.722656 C 33.234375 20.898438 35.664062 17.414062 37.328125 13.648438 Z M 37.328125 13.648438 "/>
<path style=" stroke:none;fill-rule:nonzero;fill:rgb(76.470588%,85.490196%,99.215686%);fill-opacity:1;" d="M 37.328125 13.648438 C 40.484375 6.511719 39.929688 0.742188 40 0.0117188 C 40 0.0117188 40 0.0117188 39.996094 0.0117188 L 11.648438 28.363281 L 18.65625 35.371094 L 30.304688 23.722656 C 33.234375 20.898438 35.664062 17.414062 37.328125 13.648438 Z M 37.328125 13.648438 "/>
<path style=" stroke:none;fill-rule:nonzero;fill:rgb(51.764706%,85.098039%,95.294118%);fill-opacity:1;" d="M 21.167969 18.839844 C 17.84375 15.515625 20.15625 9.726562 24.941406 9.726562 C 29.695312 9.722656 32.0625 15.5 28.71875 18.84375 C 26.636719 20.925781 23.25 20.921875 21.167969 18.839844 Z M 21.167969 18.839844 "/>
<path style=" stroke:none;fill-rule:nonzero;fill:rgb(46.666667%,69.019608%,98.431373%);fill-opacity:1;" d="M 28.722656 11.289062 L 21.171875 18.84375 C 23.253906 20.921875 26.636719 20.921875 28.71875 18.84375 C 30.96875 16.59375 30.632812 13.242188 28.722656 11.289062 Z M 28.722656 11.289062 "/>
</g>
</svg>
