<?xml version="1.0" encoding="UTF-8"?>
<svg xmlns="http://www.w3.org/2000/svg" xmlns:xlink="http://www.w3.org/1999/xlink" width="40pt" height="40pt" viewBox="0 0 40 40" version="1.1">
<g id="surface1">
<path style=" stroke:none;fill-rule:nonzero;fill:rgb(100%,85.490196%,17.647059%);fill-opacity:1;" d="M 23.4375 23.59375 C 19.5625 23.59375 16.40625 20.4375 16.40625 16.5625 C 16.40625 12.6875 19.5625 9.53125 23.4375 9.53125 C 27.3125 9.53125 30.46875 12.6875 30.46875 16.5625 C 30.46875 20.4375 27.3125 23.59375 23.4375 23.59375 Z M 23.4375 23.59375 "/>
<path style=" stroke:none;fill-rule:nonzero;fill:rgb(99.215686%,74.901961%,0%);fill-opacity:1;" d="M 23.4375 9.53125 L 23.4375 23.59375 C 27.3125 23.59375 30.46875 20.4375 30.46875 16.5625 C 30.46875 12.6875 27.3125 9.53125 23.4375 9.53125 Z M 23.4375 9.53125 "/>
<path style=" stroke:none;fill-rule:nonzero;fill:rgb(100%,85.490196%,17.647059%);fill-opacity:1;" d="M 32.8125 11.875 C 30.226562 11.875 28.125 9.773438 28.125 7.1875 C 28.125 4.601562 30.226562 2.5 32.8125 2.5 C 35.398438 2.5 37.5 4.601562 37.5 7.1875 C 37.5 9.773438 35.398438 11.875 32.8125 11.875 Z M 32.8125 11.875 "/>
<path style=" stroke:none;fill-rule:nonzero;fill:rgb(99.215686%,74.901961%,0%);fill-opacity:1;" d="M 32.8125 2.5 L 32.8125 11.875 C 35.398438 11.875 37.5 9.773438 37.5 7.1875 C 37.5 4.601562 35.398438 2.5 32.8125 2.5 Z M 32.8125 2.5 "/>
<path style=" stroke:none;fill-rule:nonzero;fill:rgb(100%,85.490196%,17.647059%);fill-opacity:1;" d="M 22.265625 7.03125 C 20.328125 7.03125 18.75 5.453125 18.75 3.515625 C 18.75 1.578125 20.328125 0 22.265625 0 C 24.203125 0 25.78125 1.578125 25.78125 3.515625 C 25.78125 5.453125 24.203125 7.03125 22.265625 7.03125 Z M 22.265625 7.03125 "/>
<path style=" stroke:none;fill-rule:nonzero;fill:rgb(99.215686%,74.901961%,0%);fill-opacity:1;" d="M 22.265625 0 L 22.265625 7.03125 C 24.203125 7.03125 25.78125 5.453125 25.78125 3.515625 C 25.78125 1.578125 24.203125 0 22.265625 0 Z M 22.265625 0 "/>
<path style=" stroke:none;fill-rule:nonzero;fill:rgb(99.215686%,74.901961%,0%);fill-opacity:1;" d="M 22.265625 14.21875 L 24.609375 14.21875 L 24.609375 18.90625 L 22.265625 18.90625 Z M 22.265625 14.21875 "/>
<path style=" stroke:none;fill-rule:nonzero;fill:rgb(100%,56.862745%,0%);fill-opacity:1;" d="M 23.4375 14.21875 L 24.609375 14.21875 L 24.609375 18.90625 L 23.4375 18.90625 Z M 23.4375 14.21875 "/>
<path style=" stroke:none;fill-rule:nonzero;fill:rgb(100%,74.901961%,67.058824%);fill-opacity:1;" d="M 40 27.109375 L 29.6875 40 L 0 40 L 0 28.28125 L 1.542969 28.28125 C 3.824219 28.28125 5.867188 27.148438 7.414062 25.476562 C 8.488281 24.320312 10.019531 23.59375 11.71875 23.59375 C 13.636719 23.59375 15.335938 24.515625 16.40625 25.9375 L 22.265625 25.9375 C 22.671875 25.9375 23.0625 25.988281 23.4375 26.085938 C 25.460938 26.605469 26.953125 28.441406 26.953125 30.625 L 16.796875 30.625 L 16.796875 32.96875 L 28.015625 32.96875 L 34.070312 26.609375 C 35.753906 24.84375 38.636719 25.085938 40 27.109375 Z M 40 27.109375 "/>
<path style=" stroke:none;fill-rule:nonzero;fill:rgb(100%,65.490196%,56.078431%);fill-opacity:1;" d="M 26.953125 30.625 L 23.4375 30.625 L 23.4375 26.085938 C 25.460938 26.605469 26.953125 28.441406 26.953125 30.625 Z M 26.953125 30.625 "/>
<path style=" stroke:none;fill-rule:nonzero;fill:rgb(100%,65.490196%,56.078431%);fill-opacity:1;" d="M 40 27.109375 L 29.6875 40 L 23.4375 40 L 23.4375 32.96875 L 28.015625 32.96875 L 34.070312 26.609375 C 35.753906 24.84375 38.636719 25.085938 40 27.109375 Z M 40 27.109375 "/>
</g>
</svg>
