<?xml version="1.0" encoding="UTF-8"?>
<svg xmlns="http://www.w3.org/2000/svg" xmlns:xlink="http://www.w3.org/1999/xlink" width="40pt" height="40pt" viewBox="0 0 40 40" version="1.1">
<g id="surface1">
<path style=" stroke:none;fill-rule:nonzero;fill:rgb(37.647059%,49.019608%,54.509804%);fill-opacity:1;" d="M 35 26.25 C 34.308594 26.25 33.75 25.691406 33.75 25 L 33.75 22.5 L 6.25 22.5 L 6.25 25 C 6.25 25.691406 5.691406 26.25 5 26.25 C 4.308594 26.25 3.75 25.691406 3.75 25 L 3.75 21.25 C 3.75 20.558594 4.308594 20 5 20 L 35 20 C 35.691406 20 36.25 20.558594 36.25 21.25 L 36.25 25 C 36.25 25.691406 35.691406 26.25 35 26.25 Z M 35 26.25 "/>
<path style=" stroke:none;fill-rule:nonzero;fill:rgb(37.647059%,49.019608%,54.509804%);fill-opacity:1;" d="M 20 26.667969 C 19.308594 26.667969 18.75 26.105469 18.75 25.417969 L 18.75 17.917969 C 18.75 17.226562 19.308594 16.667969 20 16.667969 C 20.691406 16.667969 21.25 17.226562 21.25 17.917969 L 21.25 25.417969 C 21.25 26.105469 20.691406 26.667969 20 26.667969 Z M 20 26.667969 "/>
<path style=" stroke:none;fill-rule:nonzero;fill:rgb(12.941176%,58.823529%,95.294118%);fill-opacity:1;" d="M 22.5 30.832031 C 22.5 32.214844 21.378906 33.332031 20 33.332031 C 18.621094 33.332031 17.5 32.214844 17.5 30.832031 C 17.5 29.453125 18.621094 28.332031 20 28.332031 C 21.378906 28.332031 22.5 29.453125 22.5 30.832031 Z M 22.5 30.832031 "/>
<path style=" stroke:none;fill-rule:nonzero;fill:rgb(12.941176%,58.823529%,95.294118%);fill-opacity:1;" d="M 21.25 35 L 18.75 35 C 16.683594 35 15 36.683594 15 38.75 C 15 39.441406 15.558594 40 16.25 40 L 23.75 40 C 24.441406 40 25 39.441406 25 38.75 C 25 36.683594 23.316406 35 21.25 35 Z M 21.25 35 "/>
<path style=" stroke:none;fill-rule:nonzero;fill:rgb(12.941176%,58.823529%,95.294118%);fill-opacity:1;" d="M 37.5 30.832031 C 37.5 32.214844 36.378906 33.332031 35 33.332031 C 33.621094 33.332031 32.5 32.214844 32.5 30.832031 C 32.5 29.453125 33.621094 28.332031 35 28.332031 C 36.378906 28.332031 37.5 29.453125 37.5 30.832031 Z M 37.5 30.832031 "/>
<path style=" stroke:none;fill-rule:nonzero;fill:rgb(12.941176%,58.823529%,95.294118%);fill-opacity:1;" d="M 36.25 35 L 33.75 35 C 31.683594 35 30 36.683594 30 38.75 C 30 39.441406 30.558594 40 31.25 40 L 38.75 40 C 39.441406 40 40 39.441406 40 38.75 C 40 36.683594 38.316406 35 36.25 35 Z M 36.25 35 "/>
<path style=" stroke:none;fill-rule:nonzero;fill:rgb(100%,75.686275%,2.745098%);fill-opacity:1;" d="M 27.265625 5.394531 L 23.03125 4.761719 L 21.113281 0.714844 C 20.90625 0.277344 20.464844 0 19.980469 0 C 19.980469 0 19.976562 0 19.976562 0 C 19.492188 0 19.050781 0.285156 18.847656 0.722656 L 16.957031 4.785156 L 12.722656 5.445312 C 12.261719 5.515625 11.875 5.839844 11.730469 6.285156 C 11.582031 6.734375 11.699219 7.222656 12.023438 7.558594 L 15.136719 10.71875 L 14.417969 15.21875 C 14.339844 15.691406 14.546875 16.167969 14.9375 16.441406 C 15.148438 16.589844 15.398438 16.667969 15.652344 16.667969 C 15.863281 16.667969 16.070312 16.613281 16.261719 16.507812 L 20.027344 14.410156 L 23.808594 16.480469 C 24.226562 16.710938 24.738281 16.683594 25.132812 16.40625 C 25.523438 16.128906 25.722656 15.652344 25.644531 15.179688 L 24.894531 10.6875 L 27.984375 7.5 C 28.308594 7.164062 28.421875 6.675781 28.269531 6.230469 C 28.117188 5.785156 27.730469 5.464844 27.265625 5.394531 Z M 27.265625 5.394531 "/>
<path style=" stroke:none;fill-rule:nonzero;fill:rgb(32.941176%,42.745098%,47.45098%);fill-opacity:1;" d="M 19.976562 21.300781 L 6.066406 21.300781 C 5.476562 21.300781 5 21.777344 5 22.363281 L 5 26.25 C 5.691406 26.25 6.25 25.691406 6.25 25 L 6.25 22.5 L 19.976562 22.5 Z M 19.976562 21.300781 "/>
<path style=" stroke:none;fill-rule:nonzero;fill:rgb(32.941176%,42.745098%,47.45098%);fill-opacity:1;" d="M 20 16.667969 C 19.308594 16.667969 18.75 17.226562 18.75 17.917969 L 18.75 25.417969 C 18.75 26.105469 19.308594 26.667969 20 26.667969 Z M 20 16.667969 "/>
<path style=" stroke:none;fill-rule:nonzero;fill:rgb(12.941176%,58.823529%,95.294118%);fill-opacity:1;" d="M 5 33.332031 C 6.378906 33.332031 7.5 32.210938 7.5 30.832031 C 7.5 29.453125 6.378906 28.332031 5 28.332031 C 3.621094 28.332031 2.5 29.453125 2.5 30.832031 C 2.5 32.210938 3.621094 33.332031 5 33.332031 Z M 5 33.332031 "/>
<path style=" stroke:none;fill-rule:nonzero;fill:rgb(12.941176%,58.823529%,95.294118%);fill-opacity:1;" d="M 6.25 35 L 3.75 35 C 1.683594 35 0 36.683594 0 38.75 C 0 39.441406 0.558594 40 1.25 40 L 8.75 40 C 9.441406 40 10 39.441406 10 38.75 C 10 36.683594 8.316406 35 6.25 35 Z M 6.25 35 "/>
<path style=" stroke:none;fill-rule:nonzero;fill:rgb(11.372549%,51.372549%,83.137255%);fill-opacity:1;" d="M 5 28.332031 C 3.621094 28.332031 2.5 29.453125 2.5 30.832031 C 2.5 32.210938 3.621094 33.332031 5 33.332031 Z M 5 28.332031 "/>
<path style=" stroke:none;fill-rule:nonzero;fill:rgb(11.372549%,51.372549%,83.137255%);fill-opacity:1;" d="M 5 35 L 3.75 35 C 1.683594 35 0 36.683594 0 38.75 C 0 39.441406 0.558594 40 1.25 40 L 5 40 Z M 5 35 "/>
<path style=" stroke:none;fill-rule:nonzero;fill:rgb(11.372549%,51.372549%,83.137255%);fill-opacity:1;" d="M 20 28.332031 C 18.621094 28.332031 17.5 29.453125 17.5 30.832031 C 17.5 32.210938 18.621094 33.332031 20 33.332031 Z M 20 28.332031 "/>
<path style=" stroke:none;fill-rule:nonzero;fill:rgb(11.372549%,51.372549%,83.137255%);fill-opacity:1;" d="M 20 35 L 18.75 35 C 16.683594 35 15 36.683594 15 38.75 C 15 39.441406 15.558594 40 16.25 40 L 20 40 Z M 20 35 "/>
<path style=" stroke:none;fill-rule:nonzero;fill:rgb(11.372549%,51.372549%,83.137255%);fill-opacity:1;" d="M 35 28.332031 C 33.621094 28.332031 32.5 29.453125 32.5 30.832031 C 32.5 32.210938 33.621094 33.332031 35 33.332031 Z M 35 28.332031 "/>
<path style=" stroke:none;fill-rule:nonzero;fill:rgb(11.372549%,51.372549%,83.137255%);fill-opacity:1;" d="M 35 35 L 33.75 35 C 31.683594 35 30 36.683594 30 38.75 C 30 39.441406 30.558594 40 31.25 40 L 35 40 Z M 35 35 "/>
<path style=" stroke:none;fill-rule:nonzero;fill:rgb(87.058824%,65.882353%,2.352941%);fill-opacity:1;" d="M 19.980469 0 L 19.976562 0 C 19.492188 0 19.050781 0.285156 18.847656 0.722656 L 16.957031 4.785156 L 12.722656 5.445312 C 12.261719 5.519531 11.875 5.84375 11.730469 6.285156 C 11.582031 6.730469 11.695312 7.222656 12.023438 7.554688 L 15.136719 10.71875 L 14.417969 15.21875 C 14.339844 15.691406 14.546875 16.164062 14.9375 16.441406 C 15.148438 16.589844 15.398438 16.667969 15.652344 16.667969 C 15.863281 16.667969 16.070312 16.613281 16.261719 16.507812 L 20.027344 14.410156 L 20.027344 0 C 20.011719 0 19.996094 0 19.980469 0 Z M 19.980469 0 "/>
</g>
</svg>
