<?xml version="1.0" encoding="UTF-8"?>
<svg width="175px" height="70px" viewBox="0 0 175 70" version="1.1" xmlns="http://www.w3.org/2000/svg" xmlns:xlink="http://www.w3.org/1999/xlink">
    <!-- Generator: Sketch 52.1 (67048) - http://www.bohemiancoding.com/sketch -->
    <title>logo_WHO_africa</title>
    <desc>Created with Sketch.</desc>
    <g id="front-end" stroke="none" stroke-width="1" fill="none" fill-rule="evenodd">
        <g id="home-5" transform="translate(-250.000000, -24.000000)" fill="#FFFFFF" fill-rule="nonzero">
            <path d="M299.765823,33.8158398 C298.604738,32.4359581 298.209667,30.5228033 296.379073,29.1459345 C300.130736,29.9473505 303.303363,33.3006438 304.156836,37.4071477 C302.965593,36.0182275 300.929924,35.2017472 299.765823,33.8158398 Z M254.673498,44.2252096 C254.94492,42.3361575 252.794651,36.3164989 257.843109,32.5956388 C256.154258,34.6594357 256.654882,38.4857452 255.65665,40.9864042 C257.61994,36.7774637 261.842068,36.08451 262.746809,34.442511 C261.115258,39.7963316 257.258043,38.6062589 254.673498,44.2252096 Z M259.354028,57.7016527 C262.840299,62.9409853 260.925263,65.1735013 263.265528,68.5328204 C260.433686,66.5051776 254.100495,68.4333966 251.68785,59.0935858 C253.623997,62.9138697 258.376907,63.5525922 260.620666,66.0653026 C258.449286,63.0464347 259.818462,59.8889761 259.354028,57.7016527 Z M258.627219,63.5616307 C256.962494,61.3019991 250.375975,60.0878237 250.306611,51.8989186 C251.310874,54.8936838 254.776035,56.5206186 257.016779,60.8771884 C255.747124,55.7312539 257.628987,54.3573979 257.825015,51.5373776 C259.709893,56.5386956 257.242964,58.3464009 258.627219,63.5616307 Z M268.742231,72.2988731 L268.742231,72.3079116 C266.697515,71.3317507 259.480692,74.5374148 255.373165,66.6829352 C257.764698,69.5180197 262.722683,68.6141671 266.317523,70.7231566 C262.644272,67.2463367 263.832499,65.0108078 262.680462,63.2332309 C268.13907,68.1019839 266.803068,69.6174435 268.742231,72.2988731 Z M295.106403,70.7231566 L295.106403,70.7321951 C298.701244,68.6141671 303.659228,69.5210326 306.047746,66.6829352 C301.943235,74.5283763 294.726412,71.3227122 292.681696,72.2988731 C294.620859,69.6174435 293.29692,68.1019839 298.743465,63.2332309 C297.591427,64.9987565 298.779655,67.2463367 295.106403,70.7231566 Z M300.80326,66.0562641 L300.80326,66.0653026 C303.04702,63.5525922 307.793898,62.9138697 309.727029,59.0996115 C307.305337,68.4333966 300.996272,66.5112032 298.149351,68.538846 C300.498664,65.1644628 298.583627,62.9319467 302.069899,57.6926142 C301.605464,59.8799376 302.965593,63.0434219 300.80326,66.0562641 Z M292.099645,72.6694527 L292.099645,72.6784912 C295.377826,73.5492026 298.209667,74.2240792 300.679612,72.9918268 C298.312205,75.0827393 295.549727,75.832937 291.559816,75.4021005 C288.239414,75.0465852 285.558363,73.3865091 282.427957,73.4106118 L282.304309,73.4106118 C284.270132,74.3897878 286.024342,75.7450991 287.467368,77.3996149 L285.959465,77.6014753 C285.959465,77.6014753 284.370135,74.4108755 280.714979,73.579331 C277.059823,74.4108755 275.470493,77.6014753 275.470493,77.6014753 L273.96259,77.3996149 C275.402763,75.7365879 277.157304,74.3738543 279.12565,73.389522 L279.002001,73.389522 C275.871595,73.3654192 273.184512,75.0254953 269.867126,75.3810106 C265.877215,75.8178728 263.117753,75.0797264 260.750346,72.9707369 C263.220291,74.2150407 266.052132,73.5401641 269.330313,72.6694527 C271.275579,72.1463186 273.27351,71.8431336 275.286529,71.7656 C277.13851,71.7214511 278.981639,72.0344751 280.714979,72.6875297 C282.44826,72.0342557 284.291432,71.7212243 286.143429,71.7656 C288.156448,71.8431336 290.154379,72.1463186 292.099645,72.6694527 Z M258.048184,45.8822728 C258.304528,51.3234658 255.264596,52.2845624 255.454591,57.0418403 C254.163827,53.7216882 249.133463,52.7816814 251.015325,44.8579065 C250.982152,47.8978642 253.690345,49.6633897 254.83032,54.4297061 C254.598103,49.066847 256.697103,48.4733171 258.048184,45.8822728 Z M259.936078,39.7662032 C258.147706,45.782849 255.391259,45.8190031 254.190969,50.365382 C254.019068,48.0033137 249.130447,44.0956574 253.753677,37.572854 C252.559418,40.6158247 254.356838,44.7886111 254.227158,47.692991 C254.703595,45.3387542 255.998367,43.2288116 257.882315,41.7366019 C259.13689,40.7031971 259.465613,40.4230028 259.936078,39.7662032 Z M307.193752,47.692991 C307.064073,44.7886111 308.858477,40.6158247 307.652155,37.572854 C312.2784,44.0956574 307.38978,48.0033137 307.217879,50.365382 C306.032667,45.8190031 303.276221,45.7918875 301.487848,39.7662032 C301.958314,40.4230028 302.287037,40.7031971 303.541612,41.7366019 C305.423448,43.2301737 306.716875,45.3396652 307.193752,47.692991 Z M311.1143,51.91097 L311.117315,51.8989186 C311.047952,60.0878237 304.461432,61.3019991 302.793692,63.5857335 C304.199057,58.3674908 301.711018,56.568824 303.595896,51.5614803 C303.800971,54.3694492 305.673786,55.7433053 304.404132,60.9012911 C306.644876,56.5326699 310.110036,54.9057351 311.1143,51.91097 Z M303.38479,45.8822728 C304.726823,48.4733171 306.825824,49.066847 306.614718,54.4025905 C307.745645,49.6664026 310.453838,47.8858129 310.417648,44.8458551 C312.311574,52.76963 307.272163,53.7156625 305.978383,57.0297889 C306.171394,52.2845624 303.128446,51.3234658 303.38479,45.8822728 Z M261.664135,33.8309041 L261.652072,33.8158398 C260.487971,35.2017472 258.449286,36.0182275 257.276138,37.4222119 C258.117548,33.315708 261.302238,29.9624147 265.053901,29.1609987 C263.226322,30.5378675 262.831252,32.4449966 261.664135,33.8309041 Z M298.68918,34.4575752 L298.677117,34.442511 C299.596938,36.08451 303.810018,36.7774637 305.779339,41.0014685 C304.781108,38.5008094 305.281731,34.6775127 303.59288,32.610703 C308.641339,36.3315631 306.49107,42.3512218 306.759476,44.2402738 C304.177947,38.6213231 300.320731,39.8113958 298.68918,34.4575752 Z M285.591537,37.4824688 C285.5493,37.7083391 285.464346,37.9240941 285.341225,38.1181785 C284.431526,37.7445878 283.479506,37.4835456 282.506368,37.3408652 C282.506368,37.1118892 282.506368,36.8799003 282.506368,36.6539372 C283.56569,36.7986717 284.602354,37.0770712 285.591537,37.4824688 Z M284.810443,30.854216 L284.285693,30.8331261 L283.782053,30.8783187 C283.430324,30.8231699 283.07601,30.7859633 282.72049,30.7668435 L282.72049,30.6192143 L283.323651,30.6704326 L283.592058,30.4836364 L284.623463,30.5047263 L285.015518,30.6704326 L284.810443,30.854216 Z M282.810964,53.0739271 C282.810964,53.3511086 282.575731,53.5559818 282.150503,53.7457909 C282.171613,53.4053397 282.171613,52.7063603 282.171613,52.5647568 L282.234945,52.5647568 C282.578747,52.7274502 282.810964,52.8991822 282.810964,53.0739271 Z M270.862342,39.9680636 L270.527588,39.6336381 C270.669518,39.6367769 270.811303,39.6226125 270.949801,39.5914583 C270.913284,39.7151722 270.88408,39.8409244 270.862342,39.9680636 Z M280.733074,70.277256 L280.721011,70.2893073 C269.53751,70.2755016 260.318769,61.5242307 259.734473,50.3669697 C259.150177,39.2097087 267.4045,29.5451866 278.525504,28.3656083 C278.558678,28.5524045 278.594868,28.7301622 278.625026,28.8898429 C278.625026,28.8898429 278.637089,28.9561254 278.655184,29.040485 C274.099203,29.5091112 269.836456,31.5056425 266.561803,34.7046283 L269.004606,37.1450305 C270.080238,36.1071621 271.289087,35.2166129 272.599446,34.4967422 C272.410794,34.7230053 272.234611,34.959361 272.07168,35.2047601 C272.004474,35.3699581 271.947074,35.5389704 271.899779,35.7109176 C271.037013,36.2746558 270.22924,36.9182217 269.487135,37.6331109 L270.883453,39.0280568 C270.689332,39.1288532 270.477169,39.1902894 270.259181,39.2088274 C270.206949,39.211775 270.154591,39.211775 270.102359,39.2088274 L269.004606,38.10914 C266.177873,41.0609821 264.575505,44.9730768 264.520103,49.0578085 L267.979232,49.0578085 C268.031851,45.8954503 269.264357,42.8666362 271.435345,40.5646063 L271.175986,40.3024891 C271.30265,40.0403718 271.411219,39.8324857 271.504709,39.6667794 L271.917874,40.0705002 C273.834401,38.2294671 276.280192,37.0346411 278.911527,36.6539372 C278.926606,36.8738747 278.926606,37.1058635 278.926606,37.3408652 C276.472378,37.7115903 274.192897,38.8312691 272.400403,40.5465293 L274.837174,42.9809058 C274.155817,43.891768 273.806775,45.0080321 273.84799,46.1443901 C273.811212,47.8380657 274.684452,49.4219153 276.136986,50.2960866 C276.520682,50.5437435 276.924155,50.7593894 277.343308,50.9408348 C277.496382,51.2571095 277.693344,51.5502338 277.928375,51.8115462 L278.392809,51.3475685 C278.634073,51.4319281 278.881369,51.510262 279.122634,51.5825702 L278.432014,52.2725111 C278.680317,52.4653249 278.951848,52.6262618 279.24025,52.751553 C279.24025,52.9895675 279.24025,53.2456591 279.24025,53.4866865 C278.766296,53.3196849 278.323837,53.074229 277.93139,52.7605915 L275.479541,55.2070194 C276.006745,55.6736326 276.593991,56.0677849 277.225692,56.379015 C277.111684,56.5794083 277.02833,56.7957144 276.978396,57.0207504 C276.259984,56.6708792 275.593253,56.2237872 274.997012,55.692087 L272.551193,58.135502 C274.440003,59.8875599 276.841686,60.9879538 279.403104,61.2748835 C279.403104,61.4646926 279.403104,61.6966814 279.403104,61.9618115 C277.089742,61.7148218 274.889162,60.8360803 273.04277,59.4219856 L273.088007,59.605769 L272.904043,60.0366054 L271.655499,59.9944256 L271.179002,60.5066088 L270.27426,60.4041721 L269.622846,61.0579589 C272.315079,63.5975052 275.798547,65.1365104 279.490562,65.4175415 C279.490562,65.6615817 279.490562,65.8905578 279.490562,66.1014567 C275.619929,65.81615 271.966809,64.2037153 269.149365,61.5370008 L266.706562,63.977403 C274.583554,71.4993619 286.997768,71.4741059 294.844028,63.920159 L292.401226,61.4797568 C289.553972,64.1999368 285.84261,65.8373863 281.912254,66.1074824 C281.912254,65.8935706 281.912254,65.6645946 281.912254,65.4235672 C282.827782,65.3587895 283.735941,65.2146348 284.626479,64.9927308 C284.882822,64.9234354 285.181387,64.7125365 285.202498,63.9472745 C285.371383,60.8350086 283.546821,59.7473725 282.038918,59.0001877 C282.038918,59.0001877 282.06606,57.1261998 282.06606,57.1261998 C283.013023,56.8309413 284.104745,56.5296571 284.955202,55.9692684 L285.021549,55.9240758 L285.066787,55.8939474 C286.021886,55.2731586 286.591232,54.2061142 286.574689,53.0679014 C286.574689,50.3924975 284.358072,49.3741569 282.247008,48.6691518 C282.271135,47.4700406 282.319388,45.0838696 282.319388,45.0838696 L283.224129,45.5388088 L283.592058,45.4725263 L283.944907,45.5418216 L283.902686,45.2405374 L283.688563,45.1561778 L283.688563,44.8548936 L283.516662,44.8729707 L284.104745,44.0896317 L284.327914,44.2011069 L283.700627,44.8036753 L283.92078,44.7765597 L284.146966,44.5505966 L285.160277,44.3848902 L285.232656,44.4873269 L286.215808,43.5533458 C286.170571,43.5081532 286.119303,43.4629605 286.07105,43.4207807 L285.820738,43.4207807 L285.501063,43.511166 L285.446778,43.6166155 L285.268846,43.7070007 L285.250751,43.8335401 L285.018534,43.8154631 L284.662669,43.9088612 L284.520926,43.682898 L285.036628,43.511166 L285.214561,43.6889237 L285.320114,43.3876395 L285.621695,43.2279588 L285.745343,43.1044323 L285.537252,42.9417388 C285.781532,42.8483407 286.019781,42.7489169 286.255014,42.6404546 C286.411836,42.7700068 286.565642,42.9055847 286.713416,43.0471883 L289.159235,40.6037733 L288.981302,40.4410798 C289.230383,40.0727095 289.43297,39.675017 289.584463,39.2570328 L289.904139,39.8596013 L290.697296,39.0702366 L290.416826,38.6484387 L290.839038,38.5520278 L289.934297,37.4222119 C289.934297,37.286634 289.934297,37.1510561 289.934297,37.0094526 C289.92785,35.9209829 289.593687,34.8596391 288.975271,33.9634691 L289.303993,33.8670582 L289.460815,33.7013518 L291.270299,34.6564228 L291.849333,35.2921325 L292.129803,36.2411778 L292.042345,36.5093208 L292.458526,36.5334235 L292.760107,36.6659885 L292.672648,37.0757351 L294.994819,34.7558466 C291.685065,31.505142 287.360724,29.4849172 282.7416,29.0314465 C282.771758,28.868753 282.810964,28.6849696 282.853185,28.4800963 C282.877312,28.4409294 282.877312,28.3987496 282.877312,28.3595826 C293.98737,29.537473 302.238152,39.185552 301.667948,50.3324739 C301.097743,61.4793958 291.905447,70.2369521 280.733074,70.277256 Z M285.289956,55.7704209 L285.289956,55.7523438 L285.289956,55.7704209 Z M295.477347,35.2469399 L293.01645,37.6963806 C293.339141,38.0398446 293.640722,38.39536 293.942302,38.7629267 L294.810854,39.4709446 L295.543695,40.4832596 L296.146856,41.5648699 L296.089556,41.7486533 L295.851307,41.6221139 L295.821149,41.6823708 C296.98079,43.9703195 297.599815,46.4934595 297.630633,49.0578085 L301.101825,49.0578085 C301.052033,43.9073868 299.040945,38.9691748 295.477347,35.2469399 Z M291.059192,39.6667794 L290.048897,40.6158247 C290.509635,41.1140899 290.930147,41.6480282 291.306488,42.212631 L291.484421,41.793846 L291.683464,41.908334 L291.559816,42.4325685 L291.89457,42.3060291 L291.997108,42.4325685 L291.770922,42.5591079 L291.870444,42.7760325 L291.822191,42.824238 L291.635211,42.7308399 C291.74378,42.899559 291.843302,43.071291 291.936792,43.2460359 L292.199167,43.2128946 L292.410273,43.4780247 L292.410273,43.8998226 L292.711854,44.3216205 L292.558048,44.5536094 C292.660585,44.809701 292.995339,45.4333593 292.995339,45.4333593 L293.29692,45.4122694 L293.137082,44.3939288 L293.037561,43.7913603 L292.73598,42.8875077 L292.298688,41.983655 L291.523626,40.8779419 L291.574895,40.7062099 L292.349957,41.2304445 L292.232341,41.3479453 L291.997108,41.2244188 L292.962166,42.6344289 L293.378347,43.9721309 L293.5412,45.1350879 L293.327078,46.2166983 L293.16724,46.4306101 C293.366925,47.2925799 293.475087,48.1731798 293.489932,49.0578085 L296.946045,49.0578085 C296.916536,46.7785374 296.402551,44.531548 295.438142,42.4657098 L294.834981,42.6766087 L293.357236,40.9894171 L293.131051,41.0165327 L291.98806,40.2934505 L292.087582,39.940948 L291.888539,39.7029335 L291.059192,39.6667794 Z M290.365557,47.7622863 L290.760628,47.997288 L290.718406,48.1780585 L290.308257,48.2202383 L290.154451,48.3347263 L290.085087,48.5034455 L289.732238,48.7836398 L289.801601,49.0457571 L292.817407,49.0457571 C292.807183,48.4396433 292.749709,47.8352463 292.645506,47.2380518 L292.159961,47.8858129 L292.159961,47.5483745 L292.494716,46.5511238 C292.452494,46.3673404 292.407257,46.183557 292.355989,46.0057993 L292.24742,46.5149697 L292.111708,46.8162539 L291.758859,47.0271528 L291.620132,47.328437 L290.986813,47.424848 L290.365557,47.7622863 Z M286.215808,45.3911795 L286.625958,45.5297703 L286.722464,45.6713738 L286.864207,45.3188713 L286.737543,45.3188713 L286.610879,45.0808568 L286.867222,45.0115614 L287.204993,45.2525888 L287.334672,44.8518808 C287.138703,44.5602088 286.924137,44.2814463 286.692306,44.0173235 L286.321362,44.3879031 L286.215808,45.038677 L286.517389,45.2465631 L286.517389,45.3188713 L286.215808,45.3911795 Z M287.539747,56.8610697 L287.62419,56.7345304 L287.391973,56.5025415 L286.921507,56.2554884 L286.318346,55.8216392 C286.134382,55.9662556 285.944386,56.1259362 285.748359,56.2675398 L286.146445,56.4091434 L286.568658,56.7315175 L286.791827,56.6501708 L287.539747,56.8610697 Z M287.159756,43.5382816 C287.441774,43.8498195 287.699856,44.1821759 287.931802,44.5325195 L288.317825,44.5325195 L288.164019,44.3396976 C288.197193,44.3396976 288.465599,44.2794408 288.465599,44.2794408 L288.676706,44.3638003 L288.447505,44.4421342 L288.347983,44.5505966 L288.607342,44.7464313 L289.376373,45.6472711 L289.518116,45.6201555 L289.533195,45.4936162 L289.747317,45.4936162 L289.813665,45.7949004 L289.662874,45.8521444 L289.560337,45.6653482 L289.376373,45.7798362 L289.490973,46.0630433 L289.813665,46.3281734 L290.115245,45.993748 L290.22683,45.5327831 L290.718406,45.3670768 L291.34871,46.0148379 L291.12554,46.1534286 L290.983797,46.8433695 L290.78777,47.1084996 L291.12554,47.1084996 L291.315536,47.1777949 L291.505532,46.9548446 L291.731717,46.8283052 L291.813144,46.3221478 L292.144882,46.1112488 L292.30472,45.8762471 C292.149848,45.3493728 291.958382,44.8339306 291.731717,44.3336719 L290.826975,43.7552062 L290.811896,43.2098818 L291.113477,43.1255222 C290.682714,42.3982135 290.177358,41.717663 289.605574,41.0948666 L287.159756,43.5382816 Z M288.405283,56.5386956 L288.981302,55.6770227 L289.264788,56.7465817 L289.107966,57.2316493 L289.469863,57.5962032 C291.506913,55.472918 292.694605,52.6775621 292.80836,49.7387108 L290.163498,49.7387108 L290.627932,50.6877561 L291.231093,50.8142955 L291.776954,50.594358 L291.861397,50.9438477 L291.692511,51.0432715 L291.240141,50.8444239 L291.294425,51.184875 L291.454263,51.4650694 L290.609837,51.6880197 L290.287146,51.8567389 L289.753348,51.8567389 L289.469863,51.7422508 L289.316057,51.7844306 L289.484942,51.9953296 L289.273835,52.2484083 L289.189393,52.1519974 L289.014476,52.3869991 L288.712896,52.5195641 C288.509598,52.9609767 288.267378,53.383437 287.989102,53.781945 L288.170051,53.8301505 L288.281635,53.5770717 L288.583216,53.6825212 L288.70988,54.1314347 L288.734006,54.565284 L288.5229,55.0473387 L288.646548,55.2281093 L288.326872,55.8788832 L288.073545,56.207283 L288.405283,56.5386956 Z M288.872733,63.2784236 L288.872733,63.2814364 C289.970808,62.6433813 290.990958,61.8800315 291.912665,61.0067406 L289.466847,58.5633256 C289.267804,58.7440961 289.065745,58.9158281 288.863686,59.0845473 L289.098919,59.4671782 L289.47891,59.4671782 L289.985565,60.0125026 L289.47891,60.6753279 L289.14114,61.3471917 L289.551289,61.6032833 L289.551289,61.8563621 L289.071776,62.27816 L289.19844,62.5794442 L288.872733,63.2784236 Z M291.924728,60.0546824 L292.395194,60.5186601 C295.209884,57.6211925 296.834791,53.7746995 296.949061,49.7387108 L293.489932,49.7387108 C293.374772,52.8576787 292.114464,55.8251789 289.949376,58.0752451 L291.004908,59.1297399 L291.12554,59.0182647 L291.18284,58.4156963 L291.294425,57.9396672 L291.87346,58.1204378 L291.764891,58.3464009 L291.939808,58.4156963 L292.196151,59.7533982 L291.924728,60.0546824 Z M292.877723,61.0037277 L295.323541,63.4471427 C298.913734,59.7731148 300.974542,54.8748895 301.089762,49.7417236 L297.633648,49.7417236 C297.517757,53.9586405 295.820314,57.9781762 292.877723,61.0037277 Z M272.068664,57.6564601 L274.514483,55.2160579 C273.091182,53.7345115 272.24692,51.7921594 272.135012,49.7417236 L271.555977,49.7417236 L271.718831,50.0128794 L271.568041,51.0191687 L271.60423,51.5916087 L271.60423,51.8687902 L271.718831,52.0194323 L271.64042,52.465333 L271.528835,52.465333 L271.290587,52.007381 L271.151859,51.6157115 L271.212176,51.5494289 L271.350903,51.7241738 L271.549946,51.6157115 L271.248365,50.955899 L271.344871,50.8142955 L271.495661,49.9797382 L271.372013,49.7417236 L270.563777,49.7417236 L270.397908,50.0158923 L269.924427,50.0158923 L269.746494,50.4708314 L269.924427,50.8685266 L269.74951,51.3716713 L270.18077,51.5885959 L270.675362,52.5376412 L270.59092,53.0317473 L271.001069,53.8271376 L271.091543,55.137724 L271.456456,55.9752941 L271.350903,56.8490184 C271.580104,57.1292127 271.818353,57.3973556 272.068664,57.6564601 Z M269.776652,50.9046807 L269.459993,50.5732681 L269.710304,49.7417236 L268.669851,49.7417236 C268.691196,50.2923586 268.749634,50.8409327 268.844768,51.3837226 L268.890005,51.4168639 L269.450945,51.4168639 L269.776652,50.9046807 Z M270.913611,48.5335739 L271.290587,49.0578085 L272.119933,49.0578085 C272.128013,48.6599278 272.165308,48.2631758 272.231518,47.8707486 L272.119933,47.7381836 L271.387092,47.6086314 L270.976943,47.8466459 L270.913611,48.5335739 Z M274.433056,51.1155797 L273.817832,50.6757047 L273.347366,50.6757047 L272.846742,50.1424316 C273.037697,51.8642016 273.790079,53.4754701 274.987964,54.7279775 L277.430767,52.2875753 C277.103133,51.9311633 276.835296,51.5242069 276.63761,51.0824384 L276.477772,51.835649 L276.20635,52.0194323 L276.242539,52.1700744 L275.877627,52.3628963 L275.639378,51.8868673 L276.194286,51.7723793 L275.892706,51.356607 L275.60922,51.0553228 L275.337798,51.5042363 L275.349861,51.8657774 L274.84019,51.5283391 L275.036217,51.3686584 L274.604957,51.0282073 L274.433056,51.1155797 Z M271.917874,41.0346097 C269.870106,43.2154229 268.708922,46.0800852 268.660804,49.0698598 L270.192833,49.0698598 L270.256165,48.4672914 L270.663299,48.0153651 L270.515525,47.7351707 L271.26646,46.337212 L271.785179,46.3793918 L272.321992,45.9696452 L272.505956,45.9696452 L272.870869,45.7466949 L272.943248,45.5870143 L272.527067,45.6924637 L272.065649,45.7888747 L272.430561,45.4484235 L272.551193,45.4484235 L272.894995,45.342974 L273.06388,45.342974 C273.412833,44.667455 273.848802,44.0404784 274.360677,43.4780247 L271.917874,41.0346097 Z M268.760326,59.4581397 L268.374303,59.7413469 C268.619588,60.0305797 268.872916,60.310774 269.134286,60.5819298 L269.695225,60.0215412 L269.535388,59.9130789 L268.760326,59.4581397 Z M267.985264,49.7417236 L264.523119,49.7387108 C264.566671,51.263049 264.826613,52.7734919 265.295165,54.2248328 L265.789757,54.2248328 L266.694499,53.9235486 L266.673388,52.3839862 L267.554003,51.2632089 L267.641462,50.8353854 L268.063675,50.7389744 C268.027485,50.4105746 267.985264,50.0761491 267.985264,49.7417236 Z M264.571372,54.2067558 C264.12794,52.7580358 263.882445,51.2561099 263.841547,49.7417236 L260.382418,49.7417236 C260.513999,54.8997205 262.608361,59.8137257 266.239112,63.4832968 L268.681915,61.0428947 C267.772543,60.1130825 266.973137,59.0819524 266.299428,57.9697956 L266.178796,58.4759531 L265.789757,58.3674908 L265.150406,57.2858805 L264.848826,57.2195979 L264.607561,56.9183137 L264.607561,56.4995287 L264.52915,56.4452975 L264.299949,56.607991 L263.751073,56.4633746 L263.705835,56.1620903 L263.494729,56.0385638 L263.494729,56.6140167 L263.365049,56.5627983 L262.843315,55.7734337 L262.502529,55.7282411 L262.58094,56.0295253 L262.454276,56.1620903 L262.577924,56.7074148 L263.14188,57.7769737 L262.936805,57.7016527 L262.577924,57.141264 L261.830004,55.3697128 L261.73953,54.3845134 L261.971747,53.9566899 L262.620145,53.6734827 L262.840299,53.8904073 L262.605066,54.107332 L263.509808,54.2760511 L263.208228,53.8693174 L264.179317,53.953677 L264.369313,54.1675888 L264.571372,54.2067558 Z M266.079274,35.186683 L266.064195,35.186683 C262.464859,38.914954 260.430728,43.8783153 260.379402,49.0578085 L263.835515,49.0578085 C263.892478,44.7921683 265.567385,40.7069992 268.522077,37.6270852 L266.079274,35.186683 Z M291.110461,33.927315 L291.035066,34.2436634 L290.549521,33.8730838 L290.09715,33.6320565 L290.45,33.3639135 L290.90237,33.5898767 L291.110461,33.927315 Z M288.996381,43.6738595 L289.361294,43.5352687 L289.445736,43.3544982 L289.213519,42.9658416 L289.319072,42.6796216 L289.493989,42.3512218 L290.018739,42.0860916 L290.241909,42.3873759 L290.012708,42.5199409 L290.139372,42.7609683 L290.250956,42.8393022 L290.148419,42.9206489 L289.590495,42.5229538 L289.370341,42.8543664 L289.783507,43.396678 L289.599542,43.7612319 L288.996381,43.9389896 L288.996381,43.6738595 Z M263.995353,59.165894 L263.371081,58.1987717 L263.739009,58.3343496 L264.04059,59.0092262 L263.995353,59.165894 Z M278.133449,46.1865699 C278.133449,45.6171427 278.456141,45.2194475 279.05327,44.8880349 L279.083428,44.8880349 C279.086444,44.9964972 279.113586,45.7527206 279.113586,46.4275972 L278.93867,46.4758027 L278.724547,46.8644593 L279.128665,47.2681802 C279.128665,47.4278608 279.128665,47.5272846 279.128665,47.5272846 C278.486299,47.1747821 278.133449,46.7650356 278.133449,46.1865699 Z M281.993681,61.1543698 C281.993681,61.1573827 282.023839,59.795578 282.023839,59.7925652 C283.347777,60.4885317 284.683779,61.5189237 284.499815,63.8990691 C284.080618,62.4619433 283.079371,61.7027071 281.993681,61.1543698 Z M289.210503,37.0154782 C289.210503,41.3358939 285.591537,42.3451961 282.367641,43.0984066 L281.652895,43.2701386 C280.974338,43.4328321 280.338003,43.5985384 279.768016,43.7913603 C279.517704,43.8757199 279.282471,43.9661052 279.062318,44.065529 C278.070118,44.5295067 277.421719,45.1260494 277.421719,46.1745185 C277.421719,47.2229876 278.133449,47.8466459 279.143744,48.3196621 C279.161839,49.1692836 279.177923,50.014888 279.191997,50.8564752 C276.903001,50.1514702 274.556704,49.0728727 274.556704,46.1323387 C274.556704,43.1918047 276.613483,42.040899 279.005017,41.3117912 C279.24025,41.2424958 279.475483,41.1732005 279.713732,41.1099308 C280.380225,40.9321731 281.052749,40.7755053 281.707179,40.6128118 L282.421925,40.4260156 C284.587273,39.8415242 286.342472,39.0672238 286.342472,37.0154782 C286.342472,35.7440588 285.543284,34.4696266 283.308572,33.9363535 C283.064924,33.8853229 282.81805,33.8510966 282.5697,33.8339169 C282.575731,33.6471207 282.599858,32.782435 282.599858,32.5474333 C282.599858,32.5474333 282.623984,31.8002484 282.623984,31.4748615 C283.017524,31.4950588 283.409371,31.5403436 283.797132,31.6104394 C287.642285,32.457048 289.210503,34.8552704 289.210503,37.0154782 Z M277.617747,57.6444087 C277.614731,56.5658112 278.462172,55.9542042 279.294535,55.538432 C279.52495,55.4248487 279.761559,55.3242627 280.003249,55.2371478 C280.470699,55.0563773 280.971323,54.8997095 281.435757,54.755093 C281.54131,54.7219518 281.903206,54.6014381 282.144471,54.50804 C282.72049,54.2911153 283.534757,53.8482275 283.534757,53.0859785 C283.534757,52.4803972 283.003976,52.0857149 282.201771,51.7844306 C282.21685,51.1005155 282.250024,50.1092904 282.250024,49.4314009 C284.134903,50.0731363 285.868991,50.9769889 285.868991,53.0859785 C285.868991,55.194968 283.845385,55.8728575 282.096218,56.4001049 C281.848922,56.4724131 281.628768,56.5597855 281.369409,56.6501708 C280.899116,56.8017199 280.437068,56.9777088 279.985154,57.1774182 C279.698653,57.312996 279.345803,57.5329335 279.327708,57.8974874 C279.327708,57.9276159 279.363898,59.7564111 279.363898,59.9552586 C278.49233,59.452114 277.617747,58.8254428 277.617747,57.6444087 Z M278.802958,31.8122998 C278.821053,32.514292 278.839148,33.3398108 278.872322,34.2948817 C278.130563,34.5726989 277.485291,35.0593166 277.014586,35.6958534 C276.568246,36.3164989 274.99098,37.2956726 273.94148,37.898241 C273.012612,38.4315141 272.511988,38.452604 272.270723,38.3983728 C272.110886,38.527925 271.595183,38.9919027 271.034243,40.2603093 C271.104116,39.9242207 271.192718,39.5922916 271.299634,39.2660714 C271.299634,39.2660714 270.593935,39.615561 270.093312,39.3654951 C270.627862,39.4389777 271.161692,39.2261134 271.498677,38.8051065 C271.698305,38.5969655 271.837931,38.338807 271.902795,38.0579216 L271.902795,38.0398446 C271.902795,38.0398446 271.818353,37.7054191 272.168186,37.1028507 C272.424529,36.6900913 272.439608,35.9248294 272.771347,35.4488003 C273.08226,35.0009551 273.417517,34.5704769 273.77561,34.1593039 C274.882411,32.972244 275.937943,32.9210257 276.691894,32.6709598 C277.370911,32.3275845 278.076964,32.0404025 278.802958,31.8122998 Z M274.375756,35.7741873 L275.241292,34.8703346 L274.481309,34.8462319 L273.829895,35.8916881 L274.375756,35.7741873 Z M280.971323,57.4967794 C281.134176,57.4425483 281.363377,57.3672272 281.363377,57.3672272 C281.363377,57.3672272 281.170366,67.1439001 281.170366,67.279478 C281.170366,69.1745557 280.21134,69.1625044 280.21134,67.279478 C280.21134,67.0776176 280.042454,57.9758213 280.042454,57.9155645 C280.042454,57.8553076 280.274671,57.7588967 280.440541,57.7016527 C280.60641,57.6444087 280.868785,57.5329335 280.971323,57.4967794 Z M279.976107,54.4779116 C279.961028,53.610213 279.804206,45.6532968 279.783095,44.5686736 C280.391522,44.3584689 281.010622,44.180464 281.637816,44.0354005 C281.607658,45.4815648 281.432741,53.4414938 281.432741,54.0169467 L280.85069,54.1977172 C280.579268,54.2850897 280.277687,54.3754749 279.976107,54.4779116 Z M280.766248,24 C283.543805,24 282.132408,27.8895793 281.954475,29.2845252 C281.948444,29.3297178 281.7494,37.8952282 281.710195,39.8746655 L280.895927,40.0795387 C280.506888,40.1729369 280.099755,40.2723606 279.689605,40.380823 C279.647384,38.3351031 279.430246,29.3598462 279.430246,29.2965766 C279.216124,27.9950287 278.070118,24 280.766248,24 Z M324.368599,36.4581024 L324.323362,36.4581024 L322.040397,48.913192 L318.909991,48.913192 L315.981643,33.7134032 L318.472699,33.7134032 L320.508367,45.4303465 L320.547573,45.4303465 L322.728,33.7134032 L325.966976,33.7134032 L328.126292,45.4303465 L328.168514,45.4303465 L330.279578,33.7134032 L332.692222,33.7134032 L329.700543,48.913192 L326.527915,48.913192 L324.368599,36.4581024 Z M337.119425,37.5246486 C339.296836,37.5246486 341.812018,38.7297854 341.812018,43.2942414 C341.812018,48.0003009 339.296836,49.0879369 337.119425,49.0879369 C334.942013,49.0879369 332.405721,48.0003009 332.405721,43.3062927 C332.405721,38.7237598 334.938997,37.5246486 337.119425,37.5246486 Z M343.407379,39.5492785 C343.416385,38.9315912 343.389197,38.3139067 343.325953,37.6993934 L345.651139,37.6993934 C345.672249,38.3742701 345.735581,39.0702366 345.735581,39.7451133 L345.774787,39.7451133 C346.076367,38.8744019 346.896666,37.5246486 348.489012,37.5246486 C348.636474,37.533569 348.78283,37.555753 348.926304,37.5909311 L348.926304,40.1156929 C348.690599,40.0444391 348.445753,40.0079006 348.199495,40.0072305 C347.140947,40.0072305 345.976846,40.6821072 345.976846,42.7730197 L345.976846,48.913192 L343.401348,48.913192 L343.407379,39.5492785 Z M350.56087,32.5805745 L353.136368,32.5805745 L353.136368,48.913192 L350.56087,48.913192 L350.56087,32.5805745 Z M363.872636,32.5805745 L363.872636,46.9970244 C363.860354,47.6368115 363.887548,48.2767468 363.954063,48.913192 L361.541419,48.913192 C361.480521,48.3347654 361.452329,47.7533679 361.456976,47.1717693 L361.393644,47.1717693 C360.980479,48.1298531 360.211448,49.0879369 358.549739,49.0879369 C355.892815,49.0879369 354.792046,46.4306101 354.792046,43.3183441 C354.792046,39.6577408 356.182332,37.5246486 358.489423,37.5246486 C359.693589,37.4819744 360.796054,38.1957662 361.248885,39.311264 L361.291107,39.311264 L361.291107,32.5805745 L363.872636,32.5805745 Z M372.353082,33.7134032 L375.013022,33.7134032 L375.013022,39.8987682 L379.307529,39.8987682 L379.307529,33.7134032 L381.96747,33.7134032 L381.96747,48.913192 L379.307529,48.913192 L379.307529,42.2066053 L375.013022,42.2066053 L375.013022,48.913192 L372.353082,48.913192 L372.353082,33.7134032 Z M391.829154,48.3708804 C390.827558,48.8367022 389.737193,49.0812795 388.6324,49.0879369 C385.185334,49.0879369 383.689495,46.4968926 383.689495,43.4689862 C383.689495,40.1156929 385.372314,37.5246486 388.092571,37.5246486 C390.396647,37.5246486 392.368983,38.9406844 392.368983,43.5141788 L392.368983,44.0354005 L386.18055,44.0354005 C386.18055,45.9515682 386.907359,47.1084996 388.894775,47.1084996 C390.472042,47.1084996 391.219961,46.6053549 391.699475,46.2347753 L391.829154,48.3708804 Z M394.673059,38.3531802 C395.715388,37.802643 396.87777,37.5180254 398.056793,37.5246486 C401.374179,37.5246486 402.146225,39.2238916 402.146225,42.0439119 L402.146225,46.9217034 C402.149302,47.5841478 402.198681,48.245569 402.294,48.9011407 L399.965798,48.9011407 C399.852538,48.4073672 399.803879,47.901001 399.821039,47.3947196 L399.781834,47.3947196 C399.136451,48.2985722 398.325199,49.0909497 396.790154,49.0909497 C395.128446,49.0909497 393.5934,47.8858129 393.5934,45.8039389 C393.5934,42.7549426 395.960808,41.9926935 399.220894,41.9926935 L399.739612,41.9926935 L399.739612,41.5769213 C399.739612,40.4651825 399.220894,39.4408162 397.746165,39.4408162 C396.675388,39.4667742 395.644274,39.8508076 394.817818,40.5314651 L394.673059,38.3531802 Z M404.679502,32.5805745 L407.258016,32.5805745 L407.258016,48.913192 L404.682518,48.913192 L404.679502,32.5805745 Z M410.472864,35.3915563 L413.048362,34.5690504 L413.048362,37.6993934 L415.186569,37.6993934 L415.186569,39.6908821 L413.048362,39.6908821 L413.048362,45.5056675 C413.048362,46.7108044 413.461528,47.0512556 414.209448,47.0512556 C414.550585,47.0570985 414.887359,46.9740263 415.186569,46.8102282 L415.186569,48.7294087 C414.648406,48.9858008 414.057617,49.1127162 413.461528,49.0999883 C411.552523,49.0999883 410.472864,48.1961356 410.472864,45.8340673 L410.472864,39.6908821 L408.765918,39.6908821 L408.765918,37.6993934 L410.466833,37.6993934 L410.472864,35.3915563 Z M416.513523,32.5805745 L419.089021,32.5805745 L419.089021,39.1365191 L419.152353,39.1365191 C419.60774,38.4375398 420.210901,37.5246486 421.809278,37.5246486 C424.221922,37.5246486 424.96381,39.4197263 424.96381,41.6853836 L424.96381,48.9162049 L422.388312,48.9162049 L422.388312,42.1855154 C422.388312,40.4651825 421.975147,39.7451133 420.916599,39.7451133 C419.565518,39.7451133 419.089021,40.9502501 419.089021,42.3813502 L419.089021,48.913192 L416.513523,48.913192 L416.513523,32.5805745 Z M321.648342,52.9473877 C324.664148,52.9473877 327.420594,55.3004175 327.420594,60.7807774 C327.420594,66.2611373 324.661132,68.59609 321.648342,68.59609 C318.635552,68.59609 315.879106,66.2460731 315.879106,60.7807774 C315.879106,55.3154817 318.638568,52.9473877 321.648342,52.9473877 Z M329.148651,59.0152519 C329.156155,58.3965849 329.12897,57.7779836 329.067224,57.1623539 L331.39241,57.1623539 C331.413521,57.8402434 331.473837,58.53621 331.473837,59.2110866 L331.516058,59.2110866 C331.817638,58.3403752 332.637938,56.9906219 334.230283,56.9906219 C334.376528,56.9998336 334.521772,57.0209942 334.664559,57.0538916 L334.664559,59.5756405 C334.429946,59.5041257 334.186056,59.4675782 333.940766,59.4671782 C332.879202,59.4671782 331.718117,60.1420549 331.718117,62.2329673 L331.718117,68.3731397 L329.148651,68.3731397 L329.148651,59.0152519 Z M336.274999,70.1205882 C337.22819,70.7048541 338.315187,71.035715 339.432548,71.0816848 C341.845192,71.0816848 342.255342,69.3161593 342.255342,67.5506338 L342.255342,66.4840877 L342.21312,66.4840877 C341.799955,67.3547991 341.073146,68.3791654 339.390326,68.3791654 C337.882424,68.3791654 335.653743,67.3337092 335.653743,62.8054074 C335.653743,59.7112184 336.712291,56.9906219 339.513974,56.9906219 C341.073146,56.9906219 341.799955,57.9276159 342.339784,58.9067896 L342.418195,58.9067896 C342.418195,58.3042211 342.481527,57.752871 342.502638,57.1623539 L344.83084,57.1623539 C344.788618,57.7649224 344.746397,58.3403752 344.746397,58.9278795 L344.746397,67.2041569 C344.746397,70.7111053 343.730071,73.2298413 339.806508,73.2298413 C338.548791,73.2215346 337.303083,72.9846843 336.13024,72.5308619 L336.274999,70.1205882 Z M347.545065,57.8161407 C348.589361,57.2682678 349.75229,56.9848044 350.931814,56.9906219 C354.249201,56.9906219 355.021247,58.6898649 355.021247,61.5098852 L355.021247,66.4087666 C355.023488,67.0721349 355.071857,67.7345463 355.166005,68.3912168 L352.840819,68.3912168 C352.726094,67.8915529 352.677426,67.3790207 352.696061,66.8667186 L352.653839,66.8667186 C352.011473,67.7705713 351.200221,68.5659616 349.665176,68.5659616 C348.003467,68.5659616 346.468422,67.3608247 346.468422,65.2789508 C346.468422,62.2299545 348.832814,61.4677054 352.0929,61.4677054 L352.611618,61.4677054 L352.611618,61.0519332 C352.611618,59.9432073 352.0929,58.9188409 350.618171,58.9188409 C349.54893,58.9453085 348.519241,59.3281462 347.692839,60.006477 L347.545065,57.8161407 Z M357.599761,59.0152519 C357.607265,58.3965849 357.58008,57.7779836 357.518334,57.1623539 L359.930978,57.1623539 C359.949073,57.7287683 360.012405,58.3162725 360.012405,58.8856997 L360.054626,58.8856997 C360.428586,58.2078102 361.155395,56.9906219 362.898531,56.9906219 C365.326255,56.9906219 366.053064,58.8856997 366.053064,61.1483442 L366.053064,68.3791654 L363.480582,68.3791654 L363.480582,61.6514888 C363.480582,59.9311559 363.0644,59.2110866 362.005853,59.2110866 C360.654772,59.2110866 360.178274,60.4162235 360.178274,61.8473235 L360.178274,68.3791654 L357.602776,68.3791654 L357.599761,59.0152519 Z M368.372218,52.3930248 L371.029143,52.3930248 L371.029143,55.0563773 L368.372218,55.0563773 L368.372218,52.3930248 Z M373.384487,66.0502384 L377.950417,59.2110866 L373.529246,59.2110866 L373.529246,57.1653668 L380.525915,57.1653668 L380.525915,59.4762167 L376.041412,66.3364584 L380.670673,66.3364584 L380.670673,68.3821782 L373.384487,68.3821782 L373.384487,66.0502384 Z M383.107444,57.8161407 C384.151609,57.2679199 385.314626,56.984435 386.494194,56.9906219 C389.81158,56.9906219 390.583626,58.6898649 390.583626,61.5098852 L390.583626,66.4087666 C390.585867,67.0721349 390.634237,67.7345463 390.728385,68.3912168 L388.403199,68.3912168 C388.28682,67.891821 388.238131,67.3790681 388.25844,66.8667186 L388.216219,66.8667186 C387.570837,67.7705713 386.762601,68.5659616 385.227556,68.5659616 C383.565847,68.5659616 382.027786,67.3608247 382.027786,65.2789508 C382.027786,62.2299545 384.395193,61.4677054 387.655279,61.4677054 L388.173998,61.4677054 L388.173998,61.0519332 C388.173998,59.9432073 387.655279,58.9188409 386.18055,58.9188409 C385.11131,58.9453085 384.08162,59.3281462 383.255219,60.006477 L383.107444,57.8161407 Z M393.542132,54.8545168 L396.11763,54.0289981 L396.11763,57.1653668 L398.255836,57.1653668 L398.255836,59.1478169 L396.11763,59.1478169 L396.11763,64.9626024 C396.11763,66.1677392 396.533811,66.5081904 397.281731,66.5081904 C397.621628,66.5148479 397.957385,66.4328086 398.255836,66.2701759 L398.255836,68.1863435 C397.718734,68.4427013 397.128929,68.5696272 396.533811,68.5569231 C394.62179,68.5569231 393.542132,67.6530704 393.542132,65.2910022 L393.542132,59.1448041 L391.841217,59.1448041 L391.841217,57.1653668 L393.542132,57.1653668 L393.542132,54.8545168 Z M400.020082,52.3930248 L402.677007,52.3930248 L402.677007,55.0563773 L400.020082,55.0563773 L400.020082,52.3930248 Z M409.61336,56.9906219 C411.793787,56.9906219 414.302938,58.1957588 414.302938,62.7602147 C414.302938,67.4662742 411.793787,68.5539102 409.61336,68.5539102 C407.432932,68.5539102 404.899656,67.4662742 404.899656,62.7602147 C404.899656,58.1867203 407.432932,56.9906219 409.61336,56.9906219 Z M416.546697,59.0152519 C416.554847,58.3965009 416.526651,57.7778052 416.462254,57.1623539 L418.874899,57.1623539 C418.896009,57.7287683 418.959341,58.3162725 418.959341,58.8856997 L419.001563,58.8856997 C419.372507,58.2078102 420.099316,56.9906219 421.842452,56.9906219 C424.273191,56.9906219 425,58.8856997 425,61.1483442 L425,68.3791654 L422.427518,68.3791654 L422.427518,61.6514888 C422.427518,59.9311559 422.011337,59.2110866 420.949773,59.2110866 C419.601708,59.2110866 419.14029,60.4162235 419.14029,61.8473235 L419.14029,68.3791654 L416.546697,68.3791654 L416.546697,59.0152519 Z M368.411424,57.1623539 L370.986922,57.1623539 L370.986922,68.3791654 L368.411424,68.3791654 L368.411424,57.1623539 Z M400.351821,57.1653668 L402.927319,57.1653668 L402.927319,68.3821782 L400.351821,68.3821782 L400.351821,57.1653668 Z M337.119425,47.1657436 C338.778118,47.1657436 339.152078,45.1622035 339.152078,43.2882157 C339.152078,41.4142278 338.778118,39.4347905 337.119425,39.4347905 C335.460732,39.4347905 335.062645,41.4172407 335.062645,43.2882157 C335.062645,45.1591907 335.457716,47.1717693 337.119425,47.1717693 L337.119425,47.1657436 Z M359.261469,47.1084996 C360.769372,47.1084996 361.297138,45.3851538 361.297138,43.2731515 C361.297138,41.0948666 360.715088,39.5070987 359.303691,39.5070987 C357.892294,39.5070987 357.373575,40.9653143 357.373575,43.2098818 C357.373575,45.8009261 357.768646,47.1084996 359.261469,47.1084996 Z M389.877928,42.3451961 C389.877928,40.3627459 389.253656,39.3594695 388.092571,39.3594695 C386.74149,39.3594695 386.18055,40.8658906 386.18055,42.3451961 L389.877928,42.3451961 Z M399.739612,43.4268064 L399.510411,43.4268064 C397.308873,43.4268064 396.003029,43.9058483 396.003029,45.5357959 C396.003029,46.5601623 396.645396,47.2561288 397.640612,47.2561288 C399.178672,47.2561288 399.751675,46.050992 399.751675,44.0534776 L399.739612,43.4268064 Z M321.648342,66.4509464 C323.331162,66.4509464 324.679227,64.9445253 324.679227,60.768726 C324.679227,56.5929268 323.331162,55.0834928 321.648342,55.0834928 C319.965522,55.0834928 318.632536,56.5899139 318.632536,60.768726 C318.632536,64.9475381 319.968538,66.4629978 321.648342,66.4629978 L321.648342,66.4509464 Z M340.279989,66.3967152 C341.899477,66.3967152 342.541843,65.1915784 342.541843,62.6306625 C342.541843,60.2776328 341.691386,59.0152519 340.466969,59.0363418 C339.115888,59.0604445 338.597169,60.3650052 338.597169,62.6517524 C338.597169,65.3000407 339.40239,66.3967152 340.279989,66.3967152 Z M352.596539,62.8897669 L352.370354,62.8897669 C350.168816,62.8897669 348.859956,63.3688088 348.859956,64.9987565 C348.859956,66.02011 349.505338,66.7190894 350.500554,66.7190894 C352.035599,66.7190894 352.596539,65.5139525 352.596539,63.5164381 L352.596539,62.8897669 Z M388.173998,62.8897669 L387.95686,62.8897669 C385.755322,62.8897669 384.449478,63.3688088 384.449478,64.9987565 C384.449478,66.02011 385.091844,66.7190894 386.090076,66.7190894 C387.625121,66.7190894 388.20114,65.5139525 388.20114,63.5164381 L388.173998,62.8897669 Z M409.61336,66.6317169 C411.272053,66.6317169 411.646013,64.6281769 411.646013,62.754189 C411.646013,60.8802012 411.272053,58.9007639 409.61336,58.9007639 C407.954667,58.9007639 407.559596,60.8862269 407.559596,62.7602147 C407.559596,64.6342026 407.951651,66.6377426 409.61336,66.6377426 L409.61336,66.6317169 Z M317.682673,89.3370355 L320.855087,89.3370355 L319.35416,83.7891289 L319.320048,83.7891289 L317.682673,89.3370355 Z M322.151343,93.8638551 L321.315599,91.0048111 L317.222161,91.0048111 L316.369361,93.8638551 L314.186194,93.8638551 L318.177296,81.9852083 L320.565136,81.9852083 L324.402734,93.8638551 L322.151343,93.8638551 Z M326.142446,93.8638551 L326.142446,86.6481728 L324.67563,86.6481728 L324.67563,85.099524 L326.142446,85.099524 L326.142446,83.3126216 C326.142446,82.0532808 326.739405,80.8960487 328.666733,80.8960487 C329.229581,80.8960487 329.775372,81.0151756 330.184716,81.1002661 L330.099436,82.6318968 C329.843596,82.5638243 329.5707,82.4957519 329.263693,82.4957519 C328.649677,82.4957519 328.257389,82.9212048 328.257389,83.5849115 L328.257389,85.099524 L329.860652,85.099524 L329.860652,86.6481728 L328.257389,86.6481728 L328.257389,93.8638551 L326.142446,93.8638551 Z M331.208076,93.8638551 L331.208076,86.5460641 C331.208076,86.0014843 331.19102,85.4909407 331.139852,85.099524 L333.050123,85.099524 C333.067179,85.6270857 333.118347,86.1716655 333.118347,86.6992271 L333.152459,86.6992271 C333.408299,86.0185024 334.073483,84.9633791 335.386794,84.9633791 C335.523242,84.9633791 335.625578,84.9974153 335.74497,85.0144334 L335.74497,86.9885352 C335.557354,86.9374808 335.369738,86.9034446 335.14801,86.9034446 C334.278155,86.9034446 333.323019,87.4310062 333.323019,89.0647456 L333.323019,93.8638551 L331.208076,93.8638551 Z M337.348234,93.8638551 L337.348234,85.099524 L339.463177,85.099524 L339.463177,93.8638551 L337.348234,93.8638551 Z M337.314122,83.4487665 L337.314122,81.372556 L339.497289,81.372556 L339.497289,83.4487665 L337.314122,83.4487665 Z M347.428326,91.9748439 L347.547718,93.6426195 C347.053094,93.8298188 346.319686,94 345.466887,94 C342.567368,94 341.339336,91.9748439 341.339336,89.4901986 C341.339336,86.9885352 342.635592,84.9633791 345.586279,84.9633791 C346.251463,84.9633791 347.036038,85.1675965 347.428326,85.3207595 L347.308934,86.9885352 C346.933702,86.8013359 346.404966,86.5630822 345.825063,86.5630822 C344.221799,86.5630822 343.522503,87.6352237 343.522503,89.5072167 C343.522503,91.1409561 344.307079,92.4002969 345.927399,92.4002969 C346.439078,92.4002969 347.138374,92.1620432 347.428326,91.9748439 Z M349.389765,87.3118794 L349.270373,85.6100676 C349.867333,85.3377777 350.703077,84.9633791 352.0505,84.9633791 C354.77946,84.9633791 355.410531,86.2907923 355.410531,88.4861296 L355.410531,92.3152063 C355.410531,92.9448767 355.478755,93.5234927 355.529923,93.8638551 L353.619652,93.8638551 C353.517316,93.5234927 353.50026,93.0980397 353.50026,92.6725868 L353.466148,92.6725868 C352.937412,93.3873477 352.272228,94 351.010085,94 C349.645605,94 348.383462,93.0640035 348.383462,91.4302641 C348.383462,89.0477275 350.327845,88.4520934 353.005636,88.4520934 L353.432036,88.4520934 L353.432036,88.1287491 C353.432036,87.2608251 353.005636,86.4609735 351.794661,86.4609735 C350.737189,86.4609735 349.799109,86.971517 349.389765,87.3118794 Z M353.432036,90.0688146 L353.432036,89.5752892 L353.24442,89.5752892 C351.436485,89.5752892 350.361957,89.9496878 350.361957,91.2260467 C350.361957,92.0258982 350.890693,92.570478 351.709381,92.570478 C352.971524,92.570478 353.432036,91.6344815 353.432036,90.0688146 Z M315.879226,75.0543556 L424.498977,75.0543556 L424.498977,75.9500461 L315.879226,75.9500461 L315.879226,75.0543556 Z M250,93.8638551 L250,88.2371276 L251.761256,88.2371276 C252.763071,88.2371276 253.44172,88.6885556 253.44172,89.720391 C253.44172,90.4539615 252.981208,90.9456956 252.351034,91.0424301 L252.351034,91.0666138 C252.561092,91.0988586 252.795388,91.1955932 252.973129,91.7195721 L253.708332,93.8638551 L252.609567,93.8638551 L252.052105,92.0339595 C251.91476,91.5905927 251.648148,91.4454908 251.268427,91.4454908 L251.034132,91.4454908 L251.034132,93.8638551 L250,93.8638551 Z M251.034132,90.6877367 L251.454248,90.6877367 C252.00363,90.6877367 252.375272,90.4055942 252.375272,89.833248 C252.375272,89.1883509 252.035947,89.0271266 251.454248,89.0271266 L251.034132,89.0271266 L251.034132,90.6877367 Z M253.768477,93.8638551 L253.768477,88.2371276 L256.733527,88.2371276 L256.733527,89.0593715 L254.802609,89.0593715 L254.802609,90.5587573 L256.628498,90.5587573 L256.628498,91.3810011 L254.802609,91.3810011 L254.802609,93.0416112 L256.814318,93.0416112 L256.814318,93.8638551 L253.768477,93.8638551 Z M259.282051,91.5019193 L259.282051,90.7119204 L261.10794,90.7119204 L261.10794,93.6542635 C260.817091,93.8074266 260.316183,93.9444672 259.58098,93.9444672 C257.771249,93.9444672 256.80983,92.7191627 256.80983,91.0504914 C256.80983,89.38182 257.771249,88.1565155 259.58098,88.1565155 C260.227313,88.1565155 260.736299,88.3016174 260.954437,88.3983519 L260.897882,89.3253915 C260.566637,89.1238612 260.114204,88.9787593 259.597138,88.9787593 C258.498373,88.9787593 257.908595,89.8816153 257.908595,91.0504914 C257.908595,92.316102 258.482215,93.1222234 259.540584,93.1222234 C259.782959,93.1222234 260.001096,93.0738561 260.138442,93.0174276 L260.138442,91.5019193 L259.282051,91.5019193 Z M261.50741,93.8638551 L261.50741,88.2371276 L262.541542,88.2371276 L262.541542,93.8638551 L261.50741,93.8638551 Z M263.81356,91.0504914 C263.81356,92.5982444 264.338705,93.1544682 264.993116,93.1544682 C265.647528,93.1544682 266.172673,92.5982444 266.172673,91.0504914 C266.172673,89.5027383 265.647528,88.9465145 264.993116,88.9465145 C264.338705,88.9465145 263.81356,89.5027383 263.81356,91.0504914 Z M262.747111,91.0504914 C262.747111,89.0271266 263.821639,88.1565155 264.993116,88.1565155 C266.164594,88.1565155 267.239121,89.0271266 267.239121,91.0504914 C267.239121,93.0738561 266.164594,93.9444672 264.993116,93.9444672 C263.821639,93.9444672 262.747111,93.0738561 262.747111,91.0504914 Z M267.428533,93.8638551 L267.428533,88.2371276 L268.656564,88.2371276 L270.530928,92.6546729 L270.547087,92.6546729 L270.547087,88.2371276 L271.484269,88.2371276 L271.484269,93.8638551 L270.248158,93.8638551 L268.381873,89.4785546 L268.365715,89.4785546 L268.365715,93.8638551 L267.428533,93.8638551 Z M273.00674,91.7195721 L274.509463,91.7195721 L273.798498,89.0916163 L273.782339,89.0916163 L273.00674,91.7195721 Z M275.123479,93.8638551 L274.7276,92.5095711 L272.788603,92.5095711 L272.384646,93.8638551 L271.350514,93.8638551 L273.241036,88.2371276 L274.372118,88.2371276 L276.189928,93.8638551 L275.123479,93.8638551 Z M276.015777,93.8638551 L276.015777,88.2371276 L277.049909,88.2371276 L277.049909,93.0416112 L278.908114,93.0416112 L278.908114,93.8638551 L276.015777,93.8638551 Z M281.048193,91.0504914 C281.048193,92.5982444 281.573338,93.1544682 282.227749,93.1544682 C282.882161,93.1544682 283.407306,92.5982444 283.407306,91.0504914 C283.407306,89.5027383 282.882161,88.9465145 282.227749,88.9465145 C281.573338,88.9465145 281.048193,89.5027383 281.048193,91.0504914 Z M279.981744,91.0504914 C279.981744,89.0271266 281.056272,88.1565155 282.227749,88.1565155 C283.399227,88.1565155 284.473754,89.0271266 284.473754,91.0504914 C284.473754,93.0738561 283.399227,93.9444672 282.227749,93.9444672 C281.056272,93.9444672 279.981744,93.0738561 279.981744,91.0504914 Z M284.671245,93.8638551 L284.671245,88.2371276 L287.523187,88.2371276 L287.523187,89.0593715 L285.705377,89.0593715 L285.705377,90.5910021 L287.442395,90.5910021 L287.442395,91.413246 L285.705377,91.413246 L285.705377,93.8638551 L284.671245,93.8638551 Z M287.639886,93.8638551 L287.639886,88.2371276 L290.491827,88.2371276 L290.491827,89.0593715 L288.674017,89.0593715 L288.674017,90.5910021 L290.411036,90.5910021 L290.411036,91.413246 L288.674017,91.413246 L288.674017,93.8638551 L287.639886,93.8638551 Z M290.616605,93.8638551 L290.616605,88.2371276 L291.650737,88.2371276 L291.650737,93.8638551 L290.616605,93.8638551 Z M295.613114,92.7997748 L295.669668,93.7429368 C295.45961,93.8557938 294.958702,93.9444672 294.449716,93.9444672 C292.736935,93.9444672 291.856307,92.694979 291.856307,91.0504914 C291.856307,89.4060037 292.736935,88.1565155 294.417399,88.1565155 C294.991019,88.1565155 295.45961,88.3096786 295.669668,88.3902907 L295.613114,89.3173303 C295.403056,89.2125345 295.07181,89.0110042 294.546665,89.0110042 C293.690275,89.0110042 292.955072,89.5914116 292.955072,91.0504914 C292.955072,92.5095711 293.690275,93.0899785 294.546665,93.0899785 C295.047573,93.0899785 295.378818,92.9690603 295.613114,92.7997748 Z M295.802525,93.8638551 L295.802525,88.2371276 L298.767575,88.2371276 L298.767575,89.0593715 L296.836657,89.0593715 L296.836657,90.5587573 L298.662546,90.5587573 L298.662546,91.3810011 L296.836657,91.3810011 L296.836657,93.0416112 L298.848367,93.0416112 L298.848367,93.8638551 L295.802525,93.8638551 Z M300.398667,93.8638551 L300.398667,88.2371276 L303.250608,88.2371276 L303.250608,89.0593715 L301.432799,89.0593715 L301.432799,90.5910021 L303.169817,90.5910021 L303.169817,91.413246 L301.432799,91.413246 L301.432799,93.8638551 L300.398667,93.8638551 Z M304.207539,91.0504914 C304.207539,92.5982444 304.732685,93.1544682 305.387096,93.1544682 C306.041508,93.1544682 306.566653,92.5982444 306.566653,91.0504914 C306.566653,89.5027383 306.041508,88.9465145 305.387096,88.9465145 C304.732685,88.9465145 304.207539,89.5027383 304.207539,91.0504914 Z M303.141091,91.0504914 C303.141091,89.0271266 304.215619,88.1565155 305.387096,88.1565155 C306.558574,88.1565155 307.633101,89.0271266 307.633101,91.0504914 C307.633101,93.0738561 306.558574,93.9444672 305.387096,93.9444672 C304.215619,93.9444672 303.141091,93.0738561 303.141091,91.0504914 Z M307.782117,93.8638551 L307.782117,88.2371276 L309.543372,88.2371276 C310.545188,88.2371276 311.223837,88.6885556 311.223837,89.720391 C311.223837,90.4539615 310.763325,90.9456956 310.133151,91.0424301 L310.133151,91.0666138 C310.343209,91.0988586 310.577504,91.1955932 310.755246,91.7195721 L311.490449,93.8638551 L310.391684,93.8638551 L309.834222,92.0339595 C309.696876,91.5905927 309.430264,91.4454908 309.050544,91.4454908 L308.816249,91.4454908 L308.816249,93.8638551 L307.782117,93.8638551 Z M308.816249,90.6877367 L309.236365,90.6877367 C309.785747,90.6877367 310.157388,90.4055942 310.157388,89.833248 C310.157388,89.1883509 309.818064,89.0271266 309.236365,89.0271266 L308.816249,89.0271266 L308.816249,90.6877367 Z" id="logo_WHO_africa"></path>
        </g>
    </g>
</svg>