<?xml version="1.0" encoding="UTF-8"?>
<svg xmlns="http://www.w3.org/2000/svg" xmlns:xlink="http://www.w3.org/1999/xlink" width="30pt" height="30pt" viewBox="0 0 30 30" version="1.1">
<g id="surface1">
<path style=" stroke:none;fill-rule:nonzero;fill:rgb(21.960784%,30.588235%,60%);fill-opacity:1;" d="M 30 15 C 30 23.285156 23.285156 30 15 30 C 11.296875 30 7.90625 28.65625 5.289062 26.433594 C 4.085938 25.410156 3.050781 24.203125 2.21875 22.855469 C 0.8125 20.570312 0 17.878906 0 15 C 0 6.714844 6.714844 0 15 0 C 23.285156 0 30 6.714844 30 15 Z M 30 15 "/>
<path style=" stroke:none;fill-rule:nonzero;fill:rgb(77.254902%,87.058824%,91.764706%);fill-opacity:1;" d="M 28.320312 15 C 28.320312 22.355469 22.355469 28.320312 15 28.320312 C 14.007812 28.320312 13.042969 28.210938 12.113281 28.003906 C 6.144531 26.6875 1.679688 21.367188 1.679688 15 C 1.679688 8.480469 6.367188 3.050781 12.558594 1.90625 C 13.347656 1.757812 14.164062 1.679688 15 1.679688 C 22.355469 1.679688 28.320312 7.644531 28.320312 15 Z M 28.320312 15 "/>
<path style=" stroke:none;fill-rule:nonzero;fill:rgb(56.862745%,77.647059%,87.843137%);fill-opacity:1;" d="M 10.078125 25.96875 L 12.113281 28.003906 C 6.144531 26.6875 1.679688 21.367188 1.679688 15 C 1.679688 8.480469 6.367188 3.050781 12.558594 1.90625 L 10.324219 3.867188 L 8.546875 6.746094 L 7.386719 11.398438 L 7.386719 17.335938 L 8.179688 22.113281 Z M 10.078125 25.96875 "/>
<path style=" stroke:none;fill-rule:nonzero;fill:rgb(21.960784%,30.588235%,60%);fill-opacity:1;" d="M 7.457031 21.757812 C 6.425781 22.148438 5.429688 22.617188 4.472656 23.160156 C 4.699219 23.453125 4.941406 23.742188 5.195312 24.015625 C 6.035156 23.550781 6.90625 23.144531 7.804688 22.804688 C 7.96875 23.25 8.144531 23.6875 8.335938 24.105469 C 8.976562 25.507812 9.761719 26.6875 10.644531 27.589844 C 11.121094 27.753906 11.613281 27.894531 12.113281 28.003906 C 12.585938 28.109375 13.070312 28.1875 13.5625 28.242188 C 13.539062 28.234375 13.515625 28.226562 13.492188 28.214844 C 11.554688 27.457031 9.921875 25.3125 8.878906 22.429688 C 9.664062 22.179688 10.46875 21.976562 11.28125 21.828125 C 12.320312 21.632812 13.382812 21.523438 14.449219 21.496094 L 14.449219 28.308594 C 14.632812 28.3125 14.816406 28.320312 15 28.320312 C 15.183594 28.320312 15.367188 28.3125 15.550781 28.308594 L 15.550781 21.492188 C 17.46875 21.542969 19.34375 21.863281 21.128906 22.425781 C 20.835938 23.230469 20.496094 23.984375 20.105469 24.675781 C 19.070312 26.511719 17.804688 27.734375 16.441406 28.242188 C 17.457031 28.132812 18.4375 27.910156 19.371094 27.585938 C 19.996094 26.941406 20.574219 26.152344 21.09375 25.230469 C 21.515625 24.480469 21.882812 23.664062 22.199219 22.796875 C 23.097656 23.136719 23.96875 23.542969 24.808594 24.007812 C 25.0625 23.734375 25.300781 23.449219 25.53125 23.152344 C 24.816406 22.75 24.082031 22.386719 23.320312 22.0625 C 23.0625 21.953125 22.800781 21.851562 22.542969 21.753906 C 23.109375 19.855469 23.433594 17.742188 23.480469 15.550781 L 28.308594 15.550781 C 28.3125 15.367188 28.320312 15.183594 28.320312 15 C 28.320312 14.816406 28.3125 14.632812 28.308594 14.449219 L 23.480469 14.449219 C 23.433594 12.269531 23.113281 10.171875 22.550781 8.277344 C 22.808594 8.179688 23.066406 8.082031 23.320312 7.972656 C 24.085938 7.648438 24.832031 7.28125 25.550781 6.871094 C 25.324219 6.574219 25.082031 6.289062 24.832031 6.015625 C 23.988281 6.484375 23.113281 6.894531 22.210938 7.234375 C 21.894531 6.355469 21.519531 5.527344 21.09375 4.769531 C 20.574219 3.847656 19.996094 3.058594 19.371094 2.414062 C 18.4375 2.089844 17.457031 1.867188 16.441406 1.757812 C 17.804688 2.265625 19.070312 3.488281 20.105469 5.324219 C 20.5 6.027344 20.847656 6.792969 21.140625 7.605469 C 19.351562 8.171875 17.472656 8.492188 15.550781 8.542969 L 15.550781 1.691406 C 15.367188 1.6875 15.183594 1.679688 15 1.679688 C 14.816406 1.679688 14.632812 1.683594 14.449219 1.691406 L 14.449219 8.542969 C 13.152344 8.507812 11.863281 8.351562 10.609375 8.074219 C 10.019531 7.945312 9.4375 7.785156 8.863281 7.605469 C 9.039062 7.113281 9.234375 6.640625 9.445312 6.195312 C 10.523438 3.917969 11.980469 2.351562 13.5625 1.757812 C 13.222656 1.796875 12.886719 1.84375 12.558594 1.90625 C 11.902344 2.027344 11.261719 2.195312 10.640625 2.410156 C 9.800781 3.273438 9.046875 4.386719 8.421875 5.710938 C 8.195312 6.195312 7.984375 6.703125 7.792969 7.230469 C 6.890625 6.886719 6.015625 6.476562 5.171875 6.007812 C 4.921875 6.285156 4.679688 6.570312 4.453125 6.867188 C 5.414062 7.414062 6.417969 7.886719 7.453125 8.277344 C 6.890625 10.179688 6.566406 12.289062 6.519531 14.449219 L 1.691406 14.449219 C 1.683594 14.632812 1.679688 14.816406 1.679688 15 C 1.679688 15.183594 1.683594 15.367188 1.691406 15.550781 L 6.519531 15.550781 C 6.566406 17.75 6.886719 19.851562 7.457031 21.757812 Z M 15.550781 9.644531 C 17.582031 9.59375 19.570312 9.261719 21.480469 8.652344 C 22.003906 10.425781 22.300781 12.394531 22.34375 14.449219 L 15.550781 14.449219 Z M 15.550781 15.550781 L 22.34375 15.550781 C 22.300781 17.617188 22 19.601562 21.472656 21.382812 C 19.5625 20.773438 17.578125 20.441406 15.550781 20.390625 Z M 8.523438 8.652344 C 9.128906 8.84375 9.746094 9.011719 10.371094 9.148438 C 11.703125 9.445312 13.074219 9.609375 14.449219 9.644531 L 14.449219 14.449219 L 7.652344 14.449219 C 7.699219 12.414062 8 10.433594 8.523438 8.652344 Z M 14.449219 15.550781 L 14.449219 20.390625 C 13.3125 20.421875 12.183594 20.539062 11.082031 20.742188 C 10.21875 20.902344 9.367188 21.117188 8.535156 21.382812 C 8.011719 19.617188 7.699219 17.632812 7.652344 15.550781 Z M 14.449219 15.550781 "/>
<path style=" stroke:none;fill-rule:nonzero;fill:rgb(100%,35.686275%,27.843137%);fill-opacity:1;" d="M 9.898438 22.605469 C 9.898438 22.660156 9.898438 22.710938 9.898438 22.765625 C 9.847656 25.59375 7.40625 26.816406 5.289062 26.433594 C 4.085938 25.410156 3.050781 24.203125 2.21875 22.855469 C 2.21875 22.824219 2.21875 22.792969 2.214844 22.765625 C 2.214844 22.710938 2.214844 22.660156 2.214844 22.605469 C 2.214844 19.644531 3.746094 17.042969 6.058594 15.542969 C 8.371094 17.042969 9.898438 19.644531 9.898438 22.605469 Z M 9.898438 22.605469 "/>
<path style=" stroke:none;fill-rule:nonzero;fill:rgb(89.803922%,24.313725%,17.647059%);fill-opacity:1;" d="M 6.058594 26.503906 C 5.800781 26.503906 5.542969 26.480469 5.289062 26.433594 C 4.089844 25.410156 3.050781 24.203125 2.21875 22.855469 C 2.21875 22.824219 2.21875 22.796875 2.214844 22.765625 C 2.214844 22.710938 2.214844 22.660156 2.214844 22.605469 C 2.214844 19.644531 3.746094 17.042969 6.058594 15.542969 C 5.097656 17.042969 4.464844 19.644531 4.464844 22.605469 C 4.464844 22.660156 4.464844 22.710938 4.464844 22.765625 C 4.484375 25.257812 5.269531 26.503906 6.058594 26.503906 Z M 6.058594 26.503906 "/>
<path style=" stroke:none;fill-rule:nonzero;fill:rgb(98.823529%,53.72549%,50.196078%);fill-opacity:1;" d="M 9.058594 23.242188 C 8.992188 23.839844 8.546875 24.28125 8.070312 24.226562 C 7.589844 24.171875 7.253906 23.648438 7.320312 23.050781 C 7.386719 22.453125 7.992188 20.585938 8.46875 20.640625 C 8.949219 20.695312 9.125 22.648438 9.058594 23.242188 Z M 9.058594 23.242188 "/>
<path style=" stroke:none;fill-rule:nonzero;fill:rgb(100%,35.686275%,27.843137%);fill-opacity:1;" d="M 21.511719 7.0625 C 21.511719 7.117188 21.511719 7.167969 21.515625 7.222656 C 21.605469 12.203125 29.105469 12.203125 29.195312 7.222656 C 29.195312 7.167969 29.195312 7.117188 29.195312 7.0625 C 29.195312 4.101562 27.667969 1.5 25.355469 0 C 23.042969 1.5 21.511719 4.101562 21.511719 7.0625 Z M 21.511719 7.0625 "/>
<path style=" stroke:none;fill-rule:nonzero;fill:rgb(89.803922%,24.313725%,17.647059%);fill-opacity:1;" d="M 25.355469 10.957031 C 23.457031 10.957031 21.558594 9.710938 21.515625 7.222656 C 21.511719 7.167969 21.511719 7.117188 21.511719 7.0625 C 21.511719 4.101562 23.042969 1.5 25.355469 0 C 24.398438 1.5 23.761719 4.101562 23.761719 7.0625 C 23.761719 7.117188 23.761719 7.167969 23.765625 7.222656 C 23.78125 9.710938 24.570312 10.957031 25.355469 10.957031 Z M 25.355469 10.957031 "/>
<path style=" stroke:none;fill-rule:nonzero;fill:rgb(98.823529%,53.72549%,50.196078%);fill-opacity:1;" d="M 28.355469 7.699219 C 28.289062 8.296875 27.847656 8.738281 27.367188 8.683594 C 26.886719 8.628906 26.550781 8.101562 26.621094 7.507812 C 26.6875 6.910156 27.289062 5.042969 27.765625 5.097656 C 28.246094 5.148438 28.421875 7.105469 28.355469 7.699219 Z M 28.355469 7.699219 "/>
</g>
</svg>
