<?xml version="1.0" encoding="UTF-8"?>
<svg xmlns="http://www.w3.org/2000/svg" xmlns:xlink="http://www.w3.org/1999/xlink" width="30pt" height="30pt" viewBox="0 0 30 30" version="1.1">
<g id="surface1">
<path style=" stroke:none;fill-rule:nonzero;fill:rgb(94.901961%,94.901961%,94.901961%);fill-opacity:1;" d="M 5.625 12.1875 L 24.375 12.1875 L 24.375 26.25 L 5.625 26.25 Z M 5.625 12.1875 "/>
<path style=" stroke:none;fill-rule:nonzero;fill:rgb(52.54902%,53.72549%,57.254902%);fill-opacity:1;" d="M 11.25 17.8125 L 15 17.8125 L 15 26.25 L 11.25 26.25 Z M 11.25 17.8125 "/>
<path style=" stroke:none;fill-rule:nonzero;fill:rgb(70.196078%,71.372549%,76.078431%);fill-opacity:1;" d="M 11.25 17.8125 L 13.59375 17.8125 L 13.59375 26.25 L 11.25 26.25 Z M 11.25 17.8125 "/>
<path style=" stroke:none;fill-rule:nonzero;fill:rgb(52.54902%,53.72549%,57.254902%);fill-opacity:1;" d="M 15 17.8125 L 18.75 17.8125 L 18.75 26.25 L 15 26.25 Z M 15 17.8125 "/>
<path style=" stroke:none;fill-rule:nonzero;fill:rgb(70.196078%,71.372549%,76.078431%);fill-opacity:1;" d="M 15 17.8125 L 17.34375 17.8125 L 17.34375 26.25 L 15 26.25 Z M 15 17.8125 "/>
<path style=" stroke:none;fill-rule:nonzero;fill:rgb(63.137255%,63.137255%,66.666667%);fill-opacity:1;" d="M 0.9375 26.25 L 29.0625 26.25 L 29.0625 29.0625 L 0.9375 29.0625 Z M 0.9375 26.25 "/>
<path style=" stroke:none;fill-rule:nonzero;fill:rgb(84.313725%,84.313725%,88.627451%);fill-opacity:1;" d="M 0.9375 26.25 L 27.65625 26.25 L 27.65625 29.0625 L 0.9375 29.0625 Z M 0.9375 26.25 "/>
<path style=" stroke:none;fill-rule:nonzero;fill:rgb(69.803922%,30.588235%,29.019608%);fill-opacity:1;" d="M 9.375 14.0625 L 20.625 14.0625 L 20.625 15.9375 L 9.375 15.9375 Z M 9.375 14.0625 "/>
<path style=" stroke:none;fill-rule:nonzero;fill:rgb(92.941176%,40.784314%,38.823529%);fill-opacity:1;" d="M 9.375 14.0625 L 19.21875 14.0625 L 19.21875 15.9375 L 9.375 15.9375 Z M 9.375 14.0625 "/>
<path style=" stroke:none;fill-rule:nonzero;fill:rgb(52.54902%,53.72549%,57.254902%);fill-opacity:1;" d="M 1.875 12.1875 L 6.5625 12.1875 L 6.5625 14.0625 L 1.875 14.0625 Z M 1.875 12.1875 "/>
<path style=" stroke:none;fill-rule:nonzero;fill:rgb(70.196078%,71.372549%,76.078431%);fill-opacity:1;" d="M 1.875 12.1875 L 5.15625 12.1875 L 5.15625 14.0625 L 1.875 14.0625 Z M 1.875 12.1875 "/>
<path style=" stroke:none;fill-rule:nonzero;fill:rgb(52.54902%,53.72549%,57.254902%);fill-opacity:1;" d="M 1.875 24.375 L 6.5625 24.375 L 6.5625 26.25 L 1.875 26.25 Z M 1.875 24.375 "/>
<path style=" stroke:none;fill-rule:nonzero;fill:rgb(70.196078%,71.372549%,76.078431%);fill-opacity:1;" d="M 1.875 24.375 L 5.15625 24.375 L 5.15625 26.25 L 1.875 26.25 Z M 1.875 24.375 "/>
<path style=" stroke:none;fill-rule:nonzero;fill:rgb(52.54902%,53.72549%,57.254902%);fill-opacity:1;" d="M 23.4375 24.375 L 28.125 24.375 L 28.125 26.25 L 23.4375 26.25 Z M 23.4375 24.375 "/>
<path style=" stroke:none;fill-rule:nonzero;fill:rgb(70.196078%,71.372549%,76.078431%);fill-opacity:1;" d="M 23.4375 24.375 L 26.71875 24.375 L 26.71875 26.25 L 23.4375 26.25 Z M 23.4375 24.375 "/>
<path style=" stroke:none;fill-rule:nonzero;fill:rgb(37.254902%,59.215686%,27.843137%);fill-opacity:1;" d="M 21.695312 4.957031 L 20.988281 6.019531 C 20.316406 7.027344 19.890625 8.179688 19.746094 9.375 L 0.9375 9.375 L 15 0.9375 Z M 21.695312 4.957031 "/>
<path style=" stroke:none;fill-rule:nonzero;fill:rgb(49.411765%,78.823529%,37.254902%);fill-opacity:1;" d="M 14.621094 1.164062 L 1.71875 8.90625 L 18.203125 8.90625 C 18.351562 7.710938 18.773438 6.558594 19.449219 5.550781 L 20.15625 4.488281 C 20.15625 4.488281 16.207031 2.117188 14.621094 1.164062 Z M 14.621094 1.164062 "/>
<path style=" stroke:none;fill-rule:nonzero;fill:rgb(100%,100%,100%);fill-opacity:1;" d="M 16.875 5.625 C 16.875 6.660156 16.035156 7.5 15 7.5 C 13.964844 7.5 13.125 6.660156 13.125 5.625 C 13.125 4.589844 13.964844 3.75 15 3.75 C 16.035156 3.75 16.875 4.589844 16.875 5.625 Z M 16.875 5.625 "/>
<path style=" stroke:none;fill-rule:nonzero;fill:rgb(63.137255%,63.137255%,66.666667%);fill-opacity:1;" d="M 19.746094 9.375 C 19.707031 9.683594 19.6875 9.996094 19.6875 10.3125 C 19.6875 10.964844 19.828125 11.605469 20.09375 12.1875 L 0.9375 12.1875 L 0.9375 9.375 L 19.894531 9.375 Z M 19.746094 9.375 "/>
<path style=" stroke:none;fill-rule:nonzero;fill:rgb(84.313725%,84.313725%,88.627451%);fill-opacity:1;" d="M 17.875 10.3125 C 17.875 9.996094 17.894531 9.683594 17.933594 9.375 L 0.9375 9.375 L 0.9375 12.1875 L 18.28125 12.1875 C 18.015625 11.605469 17.875 10.964844 17.875 10.3125 Z M 17.875 10.3125 "/>
<path style=" stroke:none;fill-rule:nonzero;fill:rgb(63.137255%,63.137255%,66.666667%);fill-opacity:1;" d="M 2.8125 14.0625 L 5.625 14.0625 L 5.625 24.375 L 2.8125 24.375 Z M 2.8125 14.0625 "/>
<path style=" stroke:none;fill-rule:nonzero;fill:rgb(84.313725%,84.313725%,88.627451%);fill-opacity:1;" d="M 2.8125 14.0625 L 4.21875 14.0625 L 4.21875 24.375 L 2.8125 24.375 Z M 2.8125 14.0625 "/>
<path style=" stroke:none;fill-rule:nonzero;fill:rgb(63.137255%,63.137255%,66.666667%);fill-opacity:1;" d="M 24.375 14.0625 L 27.1875 14.0625 L 27.1875 24.375 L 24.375 24.375 Z M 24.375 14.0625 "/>
<path style=" stroke:none;fill-rule:nonzero;fill:rgb(84.313725%,84.313725%,88.627451%);fill-opacity:1;" d="M 24.375 14.0625 L 25.78125 14.0625 L 25.78125 24.375 L 24.375 24.375 Z M 24.375 14.0625 "/>
<path style=" stroke:none;fill-rule:nonzero;fill:rgb(69.803922%,30.588235%,29.019608%);fill-opacity:1;" d="M 24.375 15 C 25.574219 15 26.726562 14.523438 27.574219 13.675781 L 27.738281 13.511719 C 28.585938 12.664062 29.0625 11.511719 29.0625 10.3125 C 29.0625 8.785156 28.609375 7.289062 27.761719 6.019531 L 24.375 0.9375 L 20.988281 6.019531 C 20.140625 7.289062 19.6875 8.785156 19.6875 10.3125 C 19.6875 11.511719 20.164062 12.664062 21.011719 13.511719 L 21.175781 13.675781 C 22.023438 14.523438 23.175781 15 24.375 15 Z M 24.375 15 "/>
<path style=" stroke:none;fill-rule:nonzero;fill:rgb(92.941176%,40.784314%,38.823529%);fill-opacity:1;" d="M 26.355469 6.019531 L 23.671875 1.992188 L 20.988281 6.019531 C 20.140625 7.289062 19.6875 8.785156 19.6875 10.3125 C 19.6875 11.511719 20.164062 12.664062 21.011719 13.511719 L 21.175781 13.675781 C 21.855469 14.355469 22.730469 14.792969 23.671875 14.941406 C 24.609375 14.792969 25.488281 14.355469 26.167969 13.675781 L 26.328125 13.511719 C 27.179688 12.664062 27.65625 11.511719 27.65625 10.3125 C 27.65625 8.785156 27.203125 7.289062 26.355469 6.019531 Z M 26.355469 6.019531 "/>
<path style=" stroke:none;fill-rule:nonzero;fill:rgb(100%,100%,100%);fill-opacity:1;" d="M 27.1875 9.375 L 25.3125 9.375 L 25.3125 7.5 L 23.4375 7.5 L 23.4375 9.375 L 21.5625 9.375 L 21.5625 11.25 L 23.4375 11.25 L 23.4375 13.125 L 25.3125 13.125 L 25.3125 11.25 L 27.1875 11.25 Z M 27.1875 9.375 "/>
<path style=" stroke:none;fill-rule:nonzero;fill:rgb(0%,0%,0%);fill-opacity:1;" d="M 29.0625 29.53125 L 0.9375 29.53125 C 0.679688 29.53125 0.46875 29.320312 0.46875 29.0625 L 0.46875 26.25 C 0.46875 25.992188 0.679688 25.78125 0.9375 25.78125 L 29.0625 25.78125 C 29.320312 25.78125 29.53125 25.992188 29.53125 26.25 L 29.53125 29.0625 C 29.53125 29.320312 29.320312 29.53125 29.0625 29.53125 Z M 1.40625 28.59375 L 28.59375 28.59375 L 28.59375 26.71875 L 1.40625 26.71875 Z M 1.40625 28.59375 "/>
<path style=" stroke:none;fill-rule:nonzero;fill:rgb(0%,0%,0%);fill-opacity:1;" d="M 7.03125 26.25 L 6.09375 26.25 L 6.09375 24.84375 L 2.34375 24.84375 L 2.34375 26.25 L 1.40625 26.25 L 1.40625 24.375 C 1.40625 24.117188 1.617188 23.90625 1.875 23.90625 L 6.5625 23.90625 C 6.820312 23.90625 7.03125 24.117188 7.03125 24.375 Z M 7.03125 26.25 "/>
<path style=" stroke:none;fill-rule:nonzero;fill:rgb(0%,0%,0%);fill-opacity:1;" d="M 28.59375 26.25 L 27.65625 26.25 L 27.65625 24.84375 L 23.90625 24.84375 L 23.90625 26.25 L 22.96875 26.25 L 22.96875 24.375 C 22.96875 24.117188 23.179688 23.90625 23.4375 23.90625 L 28.125 23.90625 C 28.382812 23.90625 28.59375 24.117188 28.59375 24.375 Z M 28.59375 26.25 "/>
<path style=" stroke:none;fill-rule:nonzero;fill:rgb(0%,0%,0%);fill-opacity:1;" d="M 6.5625 14.53125 L 1.875 14.53125 C 1.617188 14.53125 1.40625 14.320312 1.40625 14.0625 L 1.40625 12.1875 L 2.34375 12.1875 L 2.34375 13.59375 L 6.09375 13.59375 L 6.09375 12.1875 L 7.03125 12.1875 L 7.03125 14.0625 C 7.03125 14.320312 6.820312 14.53125 6.5625 14.53125 Z M 6.5625 14.53125 "/>
<path style=" stroke:none;fill-rule:nonzero;fill:rgb(0%,0%,0%);fill-opacity:1;" d="M 27.1875 24.84375 L 24.375 24.84375 C 24.117188 24.84375 23.90625 24.632812 23.90625 24.375 L 23.90625 15 L 24.84375 15 L 24.84375 23.90625 L 26.71875 23.90625 L 26.71875 14.0625 L 27.65625 14.0625 L 27.65625 24.375 C 27.65625 24.632812 27.445312 24.84375 27.1875 24.84375 Z M 27.1875 24.84375 "/>
<path style=" stroke:none;fill-rule:nonzero;fill:rgb(0%,0%,0%);fill-opacity:1;" d="M 19.785156 12.65625 L 0.9375 12.65625 C 0.679688 12.65625 0.46875 12.445312 0.46875 12.1875 L 0.46875 9.375 C 0.46875 9.117188 0.679688 8.90625 0.9375 8.90625 L 19.894531 8.90625 L 19.894531 9.84375 L 1.40625 9.84375 L 1.40625 11.71875 L 19.785156 11.71875 Z M 19.785156 12.65625 "/>
<path style=" stroke:none;fill-rule:nonzero;fill:rgb(0%,0%,0%);fill-opacity:1;" d="M 1.179688 9.777344 L 0.695312 8.972656 L 14.757812 0.535156 C 14.90625 0.445312 15.09375 0.445312 15.242188 0.535156 L 22.171875 4.691406 L 21.6875 5.496094 L 15 1.484375 Z M 1.179688 9.777344 "/>
<path style=" stroke:none;fill-rule:nonzero;fill:rgb(0%,0%,0%);fill-opacity:1;" d="M 15 7.96875 C 13.707031 7.96875 12.65625 6.917969 12.65625 5.625 C 12.65625 4.332031 13.707031 3.28125 15 3.28125 C 16.292969 3.28125 17.34375 4.332031 17.34375 5.625 C 17.34375 6.917969 16.292969 7.96875 15 7.96875 Z M 15 4.21875 C 14.226562 4.21875 13.59375 4.851562 13.59375 5.625 C 13.59375 6.398438 14.226562 7.03125 15 7.03125 C 15.773438 7.03125 16.40625 6.398438 16.40625 5.625 C 16.40625 4.851562 15.773438 4.21875 15 4.21875 Z M 15 4.21875 "/>
<path style=" stroke:none;fill-rule:nonzero;fill:rgb(0%,0%,0%);fill-opacity:1;" d="M 20.625 16.40625 L 9.375 16.40625 C 9.117188 16.40625 8.90625 16.195312 8.90625 15.9375 L 8.90625 14.0625 C 8.90625 13.804688 9.117188 13.59375 9.375 13.59375 L 20.625 13.59375 C 20.882812 13.59375 21.09375 13.804688 21.09375 14.0625 L 21.09375 15.9375 C 21.09375 16.195312 20.882812 16.40625 20.625 16.40625 Z M 9.84375 15.46875 L 20.15625 15.46875 L 20.15625 14.53125 L 9.84375 14.53125 Z M 9.84375 15.46875 "/>
<path style=" stroke:none;fill-rule:nonzero;fill:rgb(0%,0%,0%);fill-opacity:1;" d="M 19.21875 26.25 L 18.28125 26.25 L 18.28125 18.28125 L 11.71875 18.28125 L 11.71875 26.25 L 10.78125 26.25 L 10.78125 17.8125 C 10.78125 17.554688 10.992188 17.34375 11.25 17.34375 L 18.75 17.34375 C 19.007812 17.34375 19.21875 17.554688 19.21875 17.8125 Z M 19.21875 26.25 "/>
<path style=" stroke:none;fill-rule:nonzero;fill:rgb(0%,0%,0%);fill-opacity:1;" d="M 24.375 15.46875 C 23.039062 15.46875 21.785156 14.949219 20.84375 14.003906 L 20.683594 13.84375 C 19.738281 12.902344 19.21875 11.648438 19.21875 10.3125 C 19.21875 8.6875 19.695312 7.113281 20.597656 5.757812 L 23.984375 0.675781 C 24.160156 0.417969 24.589844 0.417969 24.765625 0.675781 L 28.152344 5.757812 C 29.054688 7.113281 29.53125 8.6875 29.53125 10.3125 C 29.53125 11.648438 29.011719 12.902344 28.066406 13.84375 L 27.90625 14.003906 C 26.964844 14.949219 25.710938 15.46875 24.375 15.46875 Z M 24.375 1.78125 L 21.378906 6.277344 C 20.578125 7.476562 20.15625 8.871094 20.15625 10.3125 C 20.15625 11.394531 20.578125 12.414062 21.34375 13.183594 L 21.503906 13.34375 C 22.273438 14.109375 23.292969 14.53125 24.375 14.53125 C 25.457031 14.53125 26.476562 14.109375 27.246094 13.34375 L 27.40625 13.183594 C 28.171875 12.414062 28.59375 11.394531 28.59375 10.3125 C 28.59375 8.871094 28.171875 7.476562 27.371094 6.277344 Z M 24.375 1.78125 "/>
<path style=" stroke:none;fill-rule:nonzero;fill:rgb(0%,0%,0%);fill-opacity:1;" d="M 14.53125 17.8125 L 15.46875 17.8125 L 15.46875 26.25 L 14.53125 26.25 Z M 14.53125 17.8125 "/>
<path style=" stroke:none;fill-rule:nonzero;fill:rgb(0%,0%,0%);fill-opacity:1;" d="M 25.3125 13.59375 L 23.4375 13.59375 C 23.179688 13.59375 22.96875 13.382812 22.96875 13.125 L 22.96875 11.71875 L 21.5625 11.71875 C 21.304688 11.71875 21.09375 11.507812 21.09375 11.25 L 21.09375 9.375 C 21.09375 9.117188 21.304688 8.90625 21.5625 8.90625 L 22.96875 8.90625 L 22.96875 7.5 C 22.96875 7.242188 23.179688 7.03125 23.4375 7.03125 L 25.3125 7.03125 C 25.570312 7.03125 25.78125 7.242188 25.78125 7.5 L 25.78125 8.90625 L 27.1875 8.90625 C 27.445312 8.90625 27.65625 9.117188 27.65625 9.375 L 27.65625 11.25 C 27.65625 11.507812 27.445312 11.71875 27.1875 11.71875 L 25.78125 11.71875 L 25.78125 13.125 C 25.78125 13.382812 25.570312 13.59375 25.3125 13.59375 Z M 23.90625 12.65625 L 24.84375 12.65625 L 24.84375 11.25 C 24.84375 10.992188 25.054688 10.78125 25.3125 10.78125 L 26.71875 10.78125 L 26.71875 9.84375 L 25.3125 9.84375 C 25.054688 9.84375 24.84375 9.632812 24.84375 9.375 L 24.84375 7.96875 L 23.90625 7.96875 L 23.90625 9.375 C 23.90625 9.632812 23.695312 9.84375 23.4375 9.84375 L 22.03125 9.84375 L 22.03125 10.78125 L 23.4375 10.78125 C 23.695312 10.78125 23.90625 10.992188 23.90625 11.25 Z M 23.90625 12.65625 "/>
<path style=" stroke:none;fill-rule:nonzero;fill:rgb(0%,0%,0%);fill-opacity:1;" d="M 2.34375 14.0625 L 3.28125 14.0625 L 3.28125 24.375 L 2.34375 24.375 Z M 2.34375 14.0625 "/>
<path style=" stroke:none;fill-rule:nonzero;fill:rgb(0%,0%,0%);fill-opacity:1;" d="M 5.15625 14.0625 L 6.09375 14.0625 L 6.09375 24.375 L 5.15625 24.375 Z M 5.15625 14.0625 "/>
</g>
</svg>
