<svg width="688" height="580" viewBox="0 0 688 580" fill="none" xmlns="http://www.w3.org/2000/svg">
<path opacity="0.4" d="M624.607 31.4102C479.832 -37.4825 415.969 150.909 316.138 181.906C216.394 227.253 120.215 174.176 60.8283 219.674C-33.3064 291.794 8.01039 417.963 68.2737 471.05C154.694 547.18 308.272 519.78 467.012 437.462C665.894 334.329 751.55 91.8174 624.607 31.4102Z" fill="url(#paint0_linear)"/>
<path opacity="0.2" d="M143.5 106.5C148.5 119 133.5 138.5 112 145C93.4998 150.593 75.4998 150 70.4998 137C66.0767 125.5 79.9998 113 95.9998 106.5C112 100 138.5 94 143.5 106.5Z" fill="url(#paint1_linear)"/>
<path opacity="0.2" d="M307 81C303.109 71.0604 316.816 47.8658 333.802 42.7986C348.419 38.4383 362.111 28.1637 366 38.5C369.44 47.6437 358.909 68.3246 346.26 73.415C333.612 78.5054 310.891 90.9396 307 81Z" fill="url(#paint2_linear)"/>
<path opacity="0.2" d="M295.792 573.215C291.901 563.276 303.816 547.866 320.802 542.799C335.419 538.438 349.614 538.985 353.503 549.321C356.944 558.465 345.908 568.325 333.26 573.415C320.612 578.505 299.684 583.155 295.792 573.215Z" fill="url(#paint3_linear)"/>
<path opacity="0.2" d="M471.573 522.55C463.478 503.52 489.279 461.235 524.573 451.55C554.942 443.216 603.982 460.26 612.072 480.05C619.229 497.555 572.353 494.66 546.074 504.393C519.795 514.126 479.667 541.579 471.573 522.55Z" fill="url(#paint4_linear)"/>
<mask id="mask0" mask-type="alpha" maskUnits="userSpaceOnUse" x="20" y="20" width="648" height="490">
<path d="M606.962 32.9443C466.39 -29.131 410.042 153.479 315.141 186.024C220.694 232.339 127.118 184.084 71.3641 229.416C-17.0125 301.272 25.8608 421.217 85.0062 470.486C169.824 541.139 316.342 510.544 466.39 427.093C654.38 322.539 730.22 87.3739 606.962 32.9443Z" fill="#98C3E8"/>
</mask>
<g mask="url(#mask0)">
<rect x="-85.083" y="-60.5983" width="805.162" height="681.485" fill="url(#paint5_linear)"/>
<path d="M16.5085 156.467C90.336 193.697 172.998 297.904 172.998 347.662C172.998 408.869 43.221 502.678 -16.3037 555.893L491.655 588.705C473.566 507.726 427.894 327.7 455.688 287.716C491.655 235.974 637.207 248.594 718.816 258.059L740.902 27.7424C701.148 44.3588 612.177 92.1048 563.589 79.4847C518.615 67.8031 432.34 17.4359 395.742 -14.5349" stroke="white" stroke-opacity="0.2" stroke-width="15"/>
<path d="M206.441 99.6768C226.634 204.844 281.531 397.637 339.583 327.469C412.149 239.76 469.57 126.179 523.837 201.269C567.25 261.34 631.107 379.843 657.61 431.585" stroke="white" stroke-opacity="0.2" stroke-width="15"/>
<path fill-rule="evenodd" clip-rule="evenodd" d="M434 161C434 165.418 430.418 169 426 169C421.582 169 418 165.418 418 161C418 156.582 421.582 153 426 153C430.418 153 434 156.582 434 161ZM103 334C107.418 334 111 330.418 111 326C111 321.582 107.418 318 103 318C98.5817 318 95 321.582 95 326C95 330.418 98.5817 334 103 334ZM277 436C281.418 436 285 432.418 285 428C285 423.582 281.418 420 277 420C272.582 420 269 423.582 269 428C269 432.418 272.582 436 277 436ZM551 318C555.418 318 559 314.418 559 310C559 305.582 555.418 302 551 302C546.582 302 543 305.582 543 310C543 314.418 546.582 318 551 318Z" fill="white" fill-opacity="0.6"/>
<circle cx="73" cy="413" r="18" stroke="white" stroke-opacity="0.4" stroke-width="8"/>
<circle cx="653" cy="136" r="18" stroke="white" stroke-opacity="0.4" stroke-width="8"/>
<circle cx="403" cy="369" r="18" stroke="white" stroke-opacity="0.4" stroke-width="8"/>
</g>
<g filter="url(#filter0_d)">
<rect x="453" y="90" width="88" height="88" rx="10" fill="white"/>
</g>
<path d="M493 150V138H501V150H511V134H517L497 116L477 134H483V150H493Z" fill="url(#paint6_linear)"/>
<path d="M500.39 173C499.274 177.364 500.787 179.88 501.978 180.5C504.34 181.73 506.977 183.27 506.977 183.27C506.977 183.27 523.406 211.414 528.168 213.429C533.724 215.778 546.422 217 546.422 217L551.978 205.889C551.978 205.889 539.279 203.111 533.724 201.921C529.98 201.118 513.486 183.27 513.486 183.27L516.66 177.714H510.708C506.343 174.54 503.977 168 503.977 168C503.977 168 501.153 170.02 500.39 173Z" fill="url(#paint7_linear)"/>
<path d="M565.478 223.5C563.478 221.5 551.978 218.333 546.478 217L551.978 206C554.144 206 560.478 205.5 568.478 203.5C578.478 201 581.978 192 593.478 201.5C602.678 209.1 618.644 242.333 625.478 258C614.731 268.243 607.594 271.569 593.478 274.5C592.644 272.833 590.178 267.2 586.978 258C582.978 246.5 570.478 246.5 568.478 242.5C566.478 238.5 567.978 226 565.478 223.5Z" fill="url(#paint8_linear)"/>
<path d="M601.478 337C597.878 329 597.811 291 596.478 273.5C608.671 271.103 615.111 268.016 625.478 257.5C625.478 257.5 642.478 265.5 641.478 284C640.478 302.5 647.998 311.841 652.478 318C656.478 323.5 665.978 335.167 670.978 343L665.978 352.5C660.478 346.667 644.378 334.8 635.978 328C627.578 321.2 624.811 304.167 623.478 295C622.644 304.667 618.478 322.4 620.478 328C622.478 333.6 643.978 350.5 652.478 359L649.478 367.5C634.978 360.667 605.078 345 601.478 337Z" fill="url(#paint9_linear)"/>
<path d="M559.477 189.5C559.877 187.9 559.311 183.167 559.978 181.5C564.778 182.3 567.477 185.667 568.477 187C569.477 186.833 570.912 186.369 571.477 187.5C571.977 188.5 571.477 190.5 569.977 192L573.477 201.5C571.819 202.577 570.809 202.939 568.977 203.5C569.977 201 569.477 199 568.977 198C565.377 200.8 563.977 200.667 562.477 200.5L560.977 194L558.478 194.5C558.978 193.667 559.077 191.1 559.477 189.5Z" fill="url(#paint10_linear)"/>
<path d="M568.477 187C566.477 184.2 561.644 182.167 559.477 181.5C555.477 178.5 557.477 172 566.977 169C576.477 166 580.477 174 582.477 176C584.477 178 585.477 184.5 594.477 188.5C603.477 192.5 602.977 187.5 608.477 187.5C613.977 187.5 616.477 191 615.477 194C614.477 197 613.977 200.5 619.977 204.5C625.977 208.5 620.477 214 619.977 220C619.477 226 611.477 223 602.977 223C594.477 223 595.977 223 594.477 217.5C592.977 212 590.477 210 587.477 208.5C584.477 207 577.477 208 575.977 206.5C574.777 205.3 571.477 196.333 569.977 192C570.644 191 571.877 188.7 571.477 187.5C571.077 186.3 569.31 186.667 568.477 187Z" fill="#828282"/>
<path d="M549.478 247.5L573.478 246C576.278 246.4 580.978 249.833 582.978 251.5C582.311 253 580.378 256 577.978 256C575.578 256 557.978 253 549.478 251.5H547.478V244L549.478 247.5Z" fill="url(#paint11_linear)"/>
<path d="M547.478 255V238H538.978V255H547.478Z" fill="#F2C94C"/>
<path d="M665.978 381.5C663.578 381.1 653.811 371.833 649.478 367.5L652.478 359C654.478 359.833 658.678 361.3 659.478 362.5C660.478 364 668.978 382 665.978 381.5Z" fill="url(#paint12_linear)"/>
<path d="M677.978 370.5C676.778 368.5 669.478 358.833 665.978 352.5L670.978 343C673.311 345 673.478 345 675.978 348.5C677.14 350.127 679.478 373 677.978 370.5Z" fill="url(#paint13_linear)"/>
<path opacity="0.2" d="M626.478 280.5L623.478 295.5C623.978 301 626.978 314.5 631.978 324C625.978 305 627.978 290.833 626.478 280.5Z" fill="black"/>
<path d="M196 505L194.5 500L202.5 498.5C206.333 500.5 213.7 504.9 212.5 506.5C212.1 507.3 201.333 505.833 196 505Z" fill="#D06262"/>
<path d="M155.5 458L160 465.5C159.667 470.667 158.6 480.8 157 480C155.4 479.2 150.333 466.333 148 460L155.5 458Z" fill="#D06262"/>
<path d="M129.328 412.993C123.999 407.458 119.156 397.024 117.401 392.5C122.529 390.019 133.924 384.352 138.484 381.522C143.044 378.693 151.693 372.274 155.447 369.418C157.637 371.392 164.01 376.262 171.981 379.948C192.452 389.613 204.145 402.095 208.185 413.272C211.418 422.213 198.175 435.449 190.651 440.994C186.292 433.586 183.669 430.59 178.501 423.534L180.257 415.338L169.933 412.271C171.459 414.307 176.461 421.01 184.258 431.54C198.328 449.125 203.2 479.172 203.878 491.997C201.253 492.573 194.79 493.636 189.937 493.279C189.364 487.05 181.559 473.211 174.106 460.959C172.59 462.773 170.489 464.942 169.265 465.054C163.07 463.214 161.151 455.089 160.966 451.256L165.648 447.335C165.006 446.31 164.406 445.349 163.856 444.463C156.193 432.113 135.99 419.912 129.328 412.993Z" fill="#1F3F68"/>
<path d="M157.347 368.239C142.813 379.451 112.728 399.557 108.662 390.291C103.58 378.708 104.576 378.616 101.766 375.36C98.9555 372.103 98.2686 364.635 96.998 361.739C96.3594 360.284 91.211 353.917 87.0954 346.08C87.0954 346.08 86.9717 345.853 86.7625 345.439C83.8406 339.737 81.5329 333.32 81.9125 327.477C82.2029 318.914 88.7162 313.391 88.7162 313.391C92.5981 309.253 96.2389 308.558 97.5 308.669L97.5233 308.685C100.558 310.749 105.045 313.8 106.634 313.654C108.228 313.508 110.5 310.5 112 309C119.606 309.807 121.929 307.859 127.874 308.669C135.205 309.669 155 320 170.5 292.5C172.04 292.861 175.511 294.229 178 294C169.5 319 162 326.781 155 329.231C149.628 331.112 145.395 331.636 142.052 331.602C141.438 334.863 140.623 340.224 139.263 345.691C142.058 350.807 145.012 355.505 147.332 357.612C153.358 363.083 160.163 366.102 157.347 368.239Z" fill="white"/>
<path d="M157.062 397.89L170.477 412.723L180.258 415.338L179.674 419.911C181.919 417.027 184.797 410.101 178.346 405.472C171.895 400.844 161.469 398.489 157.062 397.89Z" fill="black" fill-opacity="0.2"/>
<path d="M165.625 447.313L173.923 461.111L172.567 462.742C171.342 460.344 168.126 458.129 165.408 455.869C163.233 454.061 162.777 450.922 162.821 449.579L165.625 447.313Z" fill="black" fill-opacity="0.2"/>
<path d="M127.067 372.028C112.87 370.522 95.6038 355.675 88.7456 348.439C104.604 362.546 123.032 366.374 128.87 364.331C133.54 362.696 137.12 350.527 139.001 345.5L142.799 352.003C143.471 359.306 141.265 373.534 127.067 372.028Z" fill="black" fill-opacity="0.2"/>
<path d="M121.967 343.877C118.82 344.452 110.674 337.551 107.019 334.206C120.474 344.014 120.5 339 137.5 327C136.762 328.072 129.5 342.5 121.967 343.877Z" fill="black" fill-opacity="0.2"/>
<path d="M142.5 329.5C140.787 329.156 139.296 328.576 137.5 327L139 323.5C138.833 322.667 138.6 320.8 139 320C139.4 319.2 141 318.333 141.5 318L141 320.5L143.5 317.5L147.5 321L147 324.5L144 326L142.5 329.5Z" fill="#828282"/>
<path d="M179 289L178 294C176.4 294.4 172.167 293.167 170.5 292.5C171 291 172.6 287 173 285C173.4 283 177.167 280.833 179 280H181L179 283.5V289Z" fill="#828282"/>
<path d="M94.9997 298.5C95.7997 300.1 97.9997 303.5 98.9997 305C99.6664 303.667 100.6 300.7 98.9997 299.5C97.3997 298.3 95.9997 296.333 95.4998 295.5C95.9998 295.167 97.2998 294.5 98.4998 294.5C97.6998 288.5 101.833 286.333 104 286L112.5 285.5L113 288C116.166 285 121.9 278.5 119.5 276.5C116.5 274 107.5 280.5 101.5 280.5C95.4998 280.5 92.9997 283.5 91.4997 286.5C89.9997 289.5 93.9997 296.5 94.9997 298.5Z" fill="#316099"/>
<path d="M106.5 314C104.9 314 100.333 310.833 97.5 309C98.8333 308.333 99.5 305.8 99.5 305C99.5 304 100.5 300 99.5 299.5C98.5 299 95.5 297 95.5 296C95.5 295.2 97.5 295 98.5 295C98.1667 293.333 98.1 289.5 100.5 287.5C102.9 285.5 109.5 285.333 112.5 285.5C112.667 286.167 113.3 289 114.5 295C115.7 301 113 303.833 111.5 304.5L112 309C110.833 310.5 108.1 314 106.5 314Z" fill="#828282"/>
<path d="M202.5 498.5L202 492.5C198.469 493.446 196.371 493.613 192.5 493.5L194.5 500L202.5 498.5Z" fill="url(#paint14_linear)"/>
<path d="M160 465.5L166 463.5C163.322 460.423 162.421 458.668 161.5 455.5L155.5 458L160 465.5Z" fill="url(#paint15_linear)"/>
<rect opacity="0.8" x="187" y="218" width="266.284" height="189.301" rx="5" fill="url(#paint16_linear)"/>
<path d="M187 223C187 220.239 189.239 218 192 218H263.983V407.301H192C189.239 407.301 187 405.063 187 402.301V223Z" fill="white"/>
<circle cx="199" cy="230" r="4" fill="#FA9595"/>
<circle cx="212" cy="230" r="4" fill="#FDF397"/>
<circle cx="224" cy="230" r="4" fill="#C1FEBB"/>
<path opacity="0.4" fill-rule="evenodd" clip-rule="evenodd" d="M196 324H254V331H196V324ZM196 338H254V345H196V338ZM235 354H196V361H235V354Z" fill="url(#paint17_linear)"/>
<path opacity="0.1" fill-rule="evenodd" clip-rule="evenodd" d="M373 243H431V250H373V243ZM373 257H431V264H373V257ZM412 273H373V280H412V273Z" fill="black"/>
<rect x="281" y="236" width="79" height="77" rx="5" fill="#EB5757"/>
<g clip-path="url(#clip0)">
<path d="M312 261V289L334 275L312 261Z" fill="white"/>
</g>
<g filter="url(#filter1_d)">
<rect x="281" y="326" width="154" height="63" rx="5" fill="#6FCF97"/>
</g>
<path d="M294.5 371C304 364.5 308 356 326 356C344 356 345.58 366 356.5 366C369.5 366 382 346.5 396 346.5C410 346.5 413.5 356.5 421 357" stroke="black" stroke-opacity="0.1" stroke-width="2" stroke-linecap="round" stroke-linejoin="round"/>
<path d="M294 371.5C303.5 365 306 346 324 346C342 346 346.08 362.5 357 362.5C370 362.5 381.5 335.5 395.5 335.5C409.5 335.5 414 356.5 421.5 357" stroke="white" stroke-width="2" stroke-linecap="round" stroke-linejoin="round"/>
<defs>
<filter id="filter0_d" x="403" y="40" width="188" height="188" filterUnits="userSpaceOnUse" color-interpolation-filters="sRGB">
<feFlood flood-opacity="0" result="BackgroundImageFix"/>
<feColorMatrix in="SourceAlpha" type="matrix" values="0 0 0 0 0 0 0 0 0 0 0 0 0 0 0 0 0 0 127 0"/>
<feOffset/>
<feGaussianBlur stdDeviation="25"/>
<feColorMatrix type="matrix" values="0 0 0 0 0.0627451 0 0 0 0 0.439216 0 0 0 0 0.694118 0 0 0 0.25 0"/>
<feBlend mode="normal" in2="BackgroundImageFix" result="effect1_dropShadow"/>
<feBlend mode="normal" in="SourceGraphic" in2="effect1_dropShadow" result="shape"/>
</filter>
<filter id="filter1_d" x="271" y="320" width="174" height="83" filterUnits="userSpaceOnUse" color-interpolation-filters="sRGB">
<feFlood flood-opacity="0" result="BackgroundImageFix"/>
<feColorMatrix in="SourceAlpha" type="matrix" values="0 0 0 0 0 0 0 0 0 0 0 0 0 0 0 0 0 0 127 0"/>
<feOffset dy="4"/>
<feGaussianBlur stdDeviation="5"/>
<feColorMatrix type="matrix" values="0 0 0 0 0.435294 0 0 0 0 0.811765 0 0 0 0 0.592157 0 0 0 0.2 0"/>
<feBlend mode="normal" in2="BackgroundImageFix" result="effect1_dropShadow"/>
<feBlend mode="normal" in="SourceGraphic" in2="effect1_dropShadow" result="shape"/>
</filter>
<linearGradient id="paint0_linear" x1="350.879" y1="10.124" x2="336.024" y2="519.844" gradientUnits="userSpaceOnUse">
<stop stop-color="#EB5757"/>
<stop offset="1" stop-color="#872727"/>
</linearGradient>
<linearGradient id="paint1_linear" x1="107.067" y1="99.2054" x2="107.067" y2="148.355" gradientUnits="userSpaceOnUse">
<stop stop-color="#EB5757"/>
<stop offset="1" stop-color="#872727"/>
</linearGradient>
<linearGradient id="paint2_linear" x1="336.363" y1="84.8637" x2="336.635" y2="33.9154" gradientUnits="userSpaceOnUse">
<stop stop-color="#EB5757"/>
<stop offset="1" stop-color="#872727"/>
</linearGradient>
<linearGradient id="paint3_linear" x1="324.499" y1="579.157" x2="324.707" y2="540.157" gradientUnits="userSpaceOnUse">
<stop stop-color="#EB5757"/>
<stop offset="1" stop-color="#872727"/>
</linearGradient>
<linearGradient id="paint4_linear" x1="541.28" y1="529.423" x2="541.706" y2="449.38" gradientUnits="userSpaceOnUse">
<stop stop-color="#EB5757"/>
<stop offset="1" stop-color="#872727"/>
</linearGradient>
<linearGradient id="paint5_linear" x1="375.616" y1="-106.319" x2="337.792" y2="564.507" gradientUnits="userSpaceOnUse">
<stop stop-color="#8A0303"/>
<stop offset="1" stop-color="#8A0303"/>
</linearGradient>
<linearGradient id="paint6_linear" x1="497" y1="116" x2="497" y2="150" gradientUnits="userSpaceOnUse">
<stop stop-color="#EB5757"/>
<stop offset="1" stop-color="#872727"/>
</linearGradient>
<linearGradient id="paint7_linear" x1="559.735" y1="180.576" x2="507.964" y2="214.395" gradientUnits="userSpaceOnUse">
<stop stop-color="#FFF8E1"/>
<stop offset="1" stop-color="#FFCC80"/>
</linearGradient>
<linearGradient id="paint8_linear" x1="585.978" y1="197.241" x2="585.978" y2="274.5" gradientUnits="userSpaceOnUse">
<stop stop-color="#AF6CED"/>
<stop offset="1" stop-color="#5E199D"/>
</linearGradient>
<linearGradient id="paint9_linear" x1="633.728" y1="257.5" x2="633.728" y2="367.5" gradientUnits="userSpaceOnUse">
<stop stop-color="#EB5757"/>
<stop offset="1" stop-color="#872727"/>
</linearGradient>
<linearGradient id="paint10_linear" x1="575.716" y1="187.146" x2="557.595" y2="194.755" gradientUnits="userSpaceOnUse">
<stop stop-color="#FFF8E1"/>
<stop offset="1" stop-color="#FFCC80"/>
</linearGradient>
<linearGradient id="paint11_linear" x1="588.276" y1="247.08" x2="576.596" y2="268.359" gradientUnits="userSpaceOnUse">
<stop stop-color="#FFF8E1"/>
<stop offset="1" stop-color="#FFCC80"/>
</linearGradient>
<linearGradient id="paint12_linear" x1="663.971" y1="343" x2="663.971" y2="381.51" gradientUnits="userSpaceOnUse">
<stop stop-color="#EB5757"/>
<stop offset="1" stop-color="#872727"/>
</linearGradient>
<linearGradient id="paint13_linear" x1="663.971" y1="343" x2="663.971" y2="381.51" gradientUnits="userSpaceOnUse">
<stop stop-color="#EB5757"/>
<stop offset="1" stop-color="#872727"/>
</linearGradient>
<linearGradient id="paint14_linear" x1="179" y1="455.5" x2="179" y2="500" gradientUnits="userSpaceOnUse">
<stop stop-color="#EB5757"/>
<stop offset="1" stop-color="#872727"/>
</linearGradient>
<linearGradient id="paint15_linear" x1="179" y1="455.5" x2="179" y2="500" gradientUnits="userSpaceOnUse">
<stop stop-color="#EB5757"/>
<stop offset="1" stop-color="#872727"/>
</linearGradient>
<linearGradient id="paint16_linear" x1="193.393" y1="287.155" x2="498.893" y2="320.655" gradientUnits="userSpaceOnUse">
<stop offset="0.127122" stop-color="white"/>
<stop offset="0.972261" stop-color="white" stop-opacity="0.8"/>
</linearGradient>
<linearGradient id="paint17_linear" x1="225" y1="324" x2="225" y2="361" gradientUnits="userSpaceOnUse">
<stop stop-color="#EB5757"/>
<stop offset="1" stop-color="#872727"/>
</linearGradient>
<clipPath id="clip0">
<rect x="296" y="251" width="48" height="48" fill="white"/>
</clipPath>
</defs>
</svg>
