<svg width="71" height="70" viewBox="0 0 71 70" fill="none" xmlns="http://www.w3.org/2000/svg">
<path d="M67.8167 2.29463C66.3368 0.814722 64.37 0 62.2776 0C60.1852 0 58.2183 0.814722 56.7384 2.29463L56.4878 2.54527L56.2372 2.29463C54.7572 0.814722 52.7904 0 50.698 0C48.6056 0 46.6388 0.814722 45.1594 2.29463C43.6795 3.77348 42.8647 5.74084 42.8647 7.83325C42.8647 9.92567 43.6795 11.893 45.1594 13.3719C45.1626 13.3756 45.1663 13.3799 45.1706 13.383L54.4443 22.5163V63.6196C54.4443 64.7462 53.5274 65.6631 52.4009 65.6631H24.8823C23.7558 65.6631 22.8389 64.7462 22.8389 63.6196V59.2603H26.9258V59.9414C26.9258 61.0701 27.8405 61.9849 28.9692 61.9849C30.0979 61.9849 31.0127 61.0701 31.0127 59.9414V59.2603H35.0996C38.4798 59.2603 41.23 56.5101 41.23 53.1299V20.4346C41.23 17.0544 38.4798 14.3042 35.0996 14.3042H22.8389V10.2173C22.8389 9.08859 21.9241 8.17383 20.7954 8.17383C19.6688 8.17383 18.752 7.25693 18.752 6.13037C18.752 5.00381 19.6688 4.08691 20.7954 4.08691C21.922 4.08691 22.8389 5.00381 22.8389 6.13037C22.8389 7.25906 23.7536 8.17383 24.8823 8.17383C26.011 8.17383 26.9258 7.25906 26.9258 6.13037C26.9258 2.75015 24.1756 0 20.7954 0C17.4152 0 14.665 2.75015 14.665 6.13037C14.665 8.79485 16.3732 11.0671 18.752 11.9106V14.3042H6.49121C3.11099 14.3042 0.36084 17.0544 0.36084 20.4346V53.1299C0.36084 56.5101 3.11099 59.2603 6.49121 59.2603H10.5781V59.9414C10.5781 61.0701 11.4929 61.9849 12.6216 61.9849C13.7503 61.9849 14.665 61.0701 14.665 59.9414V59.2603H18.752V63.6196C18.752 66.9998 21.5021 69.75 24.8823 69.75H52.4009C55.7811 69.75 58.5312 66.9998 58.5312 63.6196V22.5163L67.8056 13.383C67.8093 13.3799 67.813 13.3761 67.8167 13.3724C69.2961 11.893 70.1108 9.92567 70.1108 7.83325C70.1108 5.74084 69.2961 3.77348 67.8167 2.29463ZM6.49121 18.3911H35.0996C36.2262 18.3911 37.1431 19.308 37.1431 20.4346V22.478H4.44775V20.4346C4.44775 19.308 5.36465 18.3911 6.49121 18.3911ZM4.44775 53.1299V51.0864H6.49121C7.6199 51.0864 8.53467 50.1717 8.53467 49.043C8.53467 47.9143 7.6199 46.9995 6.49121 46.9995H4.44775V42.9126H6.49121C7.6199 42.9126 8.53467 41.9978 8.53467 40.8691C8.53467 39.7404 7.6199 38.8257 6.49121 38.8257H4.44775V34.7388H6.49121C7.6199 34.7388 8.53467 33.824 8.53467 32.6953C8.53467 31.5666 7.6199 30.6519 6.49121 30.6519H4.44775V26.5649H37.1431V53.1299C37.1431 54.2564 36.2262 55.1733 35.0996 55.1733H6.49121C5.36465 55.1733 4.44775 54.2564 4.44775 53.1299ZM64.9314 10.4775L56.4878 18.7924L48.0442 10.4775C47.3396 9.77081 46.9517 8.83157 46.9517 7.83325C46.9517 6.83228 47.3412 5.89197 48.049 5.18421C48.7567 4.47645 49.6976 4.08691 50.698 4.08691C51.699 4.08691 52.6393 4.47645 53.347 5.18421L55.043 6.88017C55.4262 7.26332 55.9455 7.47884 56.4878 7.47884C57.0301 7.47884 57.5494 7.26332 57.9326 6.88017L59.6285 5.18421C60.3363 4.47645 61.2766 4.08691 62.2776 4.08691C63.278 4.08691 64.2189 4.47645 64.9266 5.18421C65.6344 5.89197 66.0239 6.83228 66.0239 7.83325C66.0239 8.83157 65.636 9.77081 64.9314 10.4775Z" fill="white"/>
</svg>
